  0
SECTION
  2
HEADER
  9
$ACADVER
  1
AC1015
  9
$ACADMAINTVER
 70
     6
  9
$DWGCODEPAGE
  3
ANSI_1252
  9
$INSBASE
 10
0.0
 20
0.0
 30
0.0
  9
$EXTMIN
 10
-34.4461806777
 20
-34.6
 30
0.0
  9
$EXTMAX
 10
34.4461806777
 20
33.9168297589
 30
0.0
  9
$LIMMIN
 10
0.0
 20
0.0
  9
$LIMMAX
 10
420.0
 20
297.0
  9
$ORTHOMODE
 70
     0
  9
$REGENMODE
 70
     1
  9
$FILLMODE
 70
     1
  9
$QTEXTMODE
 70
     0
  9
$MIRRTEXT
 70
     1
  9
$LTSCALE
 40
1.0
  9
$ATTMODE
 70
     1
  9
$TEXTSIZE
 40
3.5
  9
$TRACEWID
 40
1.0
  9
$TEXTSTYLE
  7
Standard
  9
$CLAYER
  8
0
  9
$CELTYPE
  6
ByLayer
  9
$CECOLOR
 62
   256
  9
$CELTSCALE
 40
1.0
  9
$DISPSILH
 70
     0
  9
$DIMSCALE
 40
1.0
  9
$DIMASZ
 40
3.302
  9
$DIMEXO
 40
1.0
  9
$DIMDLI
 40
3.75
  9
$DIMRND
 40
0.0
  9
$DIMDLE
 40
0.0
  9
$DIMEXE
 40
1.0
  9
$DIMTP
 40
0.0
  9
$DIMTM
 40
0.0
  9
$DIMTXT
 40
3.5
  9
$DIMCEN
 40
2.5
  9
$DIMTSZ
 40
0.0
  9
$DIMTOL
 70
     0
  9
$DIMLIM
 70
     0
  9
$DIMTIH
 70
     1
  9
$DIMTOH
 70
     1
  9
$DIMSE1
 70
     0
  9
$DIMSE2
 70
     0
  9
$DIMTAD
 70
     1
  9
$DIMZIN
 70
     0
  9
$DIMBLK
  1

  9
$DIMASO
 70
     1
  9
$DIMSHO
 70
     1
  9
$DIMPOST
  1

  9
$DIMAPOST
  1

  9
$DIMALT
 70
     0
  9
$DIMALTD
 70
     3
  9
$DIMALTF
 40
0.0393700787
  9
$DIMLFAC
 40
1.0
  9
$DIMTOFL
 70
     1
  9
$DIMTVP
 40
0.0
  9
$DIMTIX
 70
     0
  9
$DIMSOXD
 70
     0
  9
$DIMSAH
 70
     0
  9
$DIMBLK1
  1

  9
$DIMBLK2
  1

  9
$DIMSTYLE
  2
ISO-25
  9
$DIMCLRD
 70
     0
  9
$DIMCLRE
 70
     0
  9
$DIMCLRT
 70
     0
  9
$DIMTFAC
 40
1.0
  9
$DIMGAP
 40
1.524
  9
$DIMJUST
 70
     0
  9
$DIMSD1
 70
     0
  9
$DIMSD2
 70
     0
  9
$DIMTOLJ
 70
     0
  9
$DIMTZIN
 70
     0
  9
$DIMALTZ
 70
     0
  9
$DIMALTTZ
 70
     0
  9
$DIMUPT
 70
     0
  9
$DIMDEC
 70
     3
  9
$DIMTDEC
 70
     3
  9
$DIMALTU
 70
     2
  9
$DIMALTTD
 70
     3
  9
$DIMTXSTY
  7
Standard
  9
$DIMAUNIT
 70
     0
  9
$DIMADEC
 70
     2
  9
$DIMALTRND
 40
0.0
  9
$DIMAZIN
 70
     0
  9
$DIMDSEP
 70
    44
  9
$DIMATFIT
 70
     3
  9
$DIMFRAC
 70
     0
  9
$DIMLDRBLK
  1

  9
$DIMLUNIT
 70
     2
  9
$DIMLWD
 70
    -2
  9
$DIMLWE
 70
    -2
  9
$DIMTMOVE
 70
     0
  9
$LUNITS
 70
     2
  9
$LUPREC
 70
     2
  9
$SKETCHINC
 40
1.0
  9
$FILLETRAD
 40
10.0
  9
$AUNITS
 70
     0
  9
$AUPREC
 70
     2
  9
$MENU
  1
.
  9
$ELEVATION
 40
0.0
  9
$PELEVATION
 40
0.0
  9
$THICKNESS
 40
0.0
  9
$LIMCHECK
 70
     0
  9
$CHAMFERA
 40
10.0
  9
$CHAMFERB
 40
10.0
  9
$CHAMFERC
 40
20.0
  9
$CHAMFERD
 40
0.0
  9
$SKPOLY
 70
     0
  9
$TDCREATE
 40
2461026.472839722
  9
$TDUCREATE
 40
2461026.597839722
  9
$TDUPDATE
 40
2461026.473079606
  9
$TDUUPDATE
 40
2461026.598079606
  9
$TDINDWG
 40
0.0000000116
  9
$TDUSRTIMER
 40
0.0000000116
  9
$USRTIMER
 70
     1
  9
$ANGBASE
 50
0.0
  9
$ANGDIR
 70
     0
  9
$PDMODE
 70
     0
  9
$PDSIZE
 40
-1.0
  9
$PLINEWID
 40
0.0
  9
$SPLFRAME
 70
     0
  9
$SPLINETYPE
 70
     6
  9
$SPLINESEGS
 70
     8
  9
$HANDSEED
  5
109
  9
$SURFTAB1
 70
     6
  9
$SURFTAB2
 70
     6
  9
$SURFTYPE
 70
     6
  9
$SURFU
 70
     6
  9
$SURFV
 70
     6
  9
$UCSBASE
  2

  9
$UCSNAME
  2

  9
$UCSORG
 10
0.0
 20
0.0
 30
0.0
  9
$UCSXDIR
 10
1.0
 20
0.0
 30
0.0
  9
$UCSYDIR
 10
0.0
 20
1.0
 30
0.0
  9
$UCSORTHOREF
  2

  9
$UCSORTHOVIEW
 70
     0
  9
$UCSORGTOP
 10
0.0
 20
0.0
 30
0.0
  9
$UCSORGBOTTOM
 10
0.0
 20
0.0
 30
0.0
  9
$UCSORGLEFT
 10
0.0
 20
0.0
 30
0.0
  9
$UCSORGRIGHT
 10
0.0
 20
0.0
 30
0.0
  9
$UCSORGFRONT
 10
0.0
 20
0.0
 30
0.0
  9
$UCSORGBACK
 10
0.0
 20
0.0
 30
0.0
  9
$PUCSBASE
  2

  9
$PUCSNAME
  2

  9
$PUCSORG
 10
0.0
 20
0.0
 30
0.0
  9
$PUCSXDIR
 10
1.0
 20
0.0
 30
0.0
  9
$PUCSYDIR
 10
0.0
 20
1.0
 30
0.0
  9
$PUCSORTHOREF
  2

  9
$PUCSORTHOVIEW
 70
     0
  9
$PUCSORGTOP
 10
0.0
 20
0.0
 30
0.0
  9
$PUCSORGBOTTOM
 10
0.0
 20
0.0
 30
0.0
  9
$PUCSORGLEFT
 10
0.0
 20
0.0
 30
0.0
  9
$PUCSORGRIGHT
 10
0.0
 20
0.0
 30
0.0
  9
$PUCSORGFRONT
 10
0.0
 20
0.0
 30
0.0
  9
$PUCSORGBACK
 10
0.0
 20
0.0
 30
0.0
  9
$USERI1
 70
     0
  9
$USERI2
 70
     0
  9
$USERI3
 70
     0
  9
$USERI4
 70
     0
  9
$USERI5
 70
     0
  9
$USERR1
 40
0.0
  9
$USERR2
 40
0.0
  9
$USERR3
 40
0.0
  9
$USERR4
 40
0.0
  9
$USERR5
 40
0.0
  9
$WORLDVIEW
 70
     1
  9
$SHADEDGE
 70
     3
  9
$SHADEDIF
 70
    70
  9
$TILEMODE
 70
     1
  9
$MAXACTVP
 70
    64
  9
$PINSBASE
 10
0.0
 20
0.0
 30
0.0
  9
$PLIMCHECK
 70
     0
  9
$PEXTMIN
 10
1.0000000000E+20
 20
1.0000000000E+20
 30
1.0000000000E+20
  9
$PEXTMAX
 10
-1.0000000000E+20
 20
-1.0000000000E+20
 30
-1.0000000000E+20
  9
$PLIMMIN
 10
0.0
 20
0.0
  9
$PLIMMAX
 10
420.0
 20
297.0
  9
$UNITMODE
 70
     0
  9
$VISRETAIN
 70
     1
  9
$PLINEGEN
 70
     0
  9
$PSLTSCALE
 70
     1
  9
$TREEDEPTH
 70
  3020
  9
$CMLSTYLE
  2
Standard
  9
$CMLJUST
 70
     0
  9
$CMLSCALE
 40
20.0
  9
$PROXYGRAPHICS
 70
     1
  9
$MEASUREMENT
 70
     1
  9
$CELWEIGHT
370
    -1
  9
$ENDCAPS
280
     0
  9
$JOINSTYLE
280
     0
  9
$LWDISPLAY
290
     1
  9
$INSUNITS
 70
     4
  9
$HYPERLINKBASE
  1

  9
$STYLESHEET
  1

  9
$XEDIT
290
     1
  9
$CEPSNTYPE
380
     0
  9
$PSTYLEMODE
290
     1
  9
$FINGERPRINTGUID
  2
{05554E02-9729-4E06-939D-EA11F955168E}
  9
$VERSIONGUID
  2
{FAEB1C32-E019-11D5-929B-00C0DF256EC4}
  9
$EXTNAMES
290
     1
  9
$PSVPSCALE
 40
0.0
  9
$OLESTARTUP
290
     0
  0
ENDSEC
  0
SECTION
  2
CLASSES
  0
CLASS
  1
ACDBDICTIONARYWDFLT
  2
AcDbDictionaryWithDefault
  3
ObjectDBX Classes
 90
        0
280
     0
281
     0
  0
CLASS
  1
VISUALSTYLE
  2
AcDbVisualStyle
  3
ObjectDBX Classes
 90
     4095
280
     0
281
     0
  0
CLASS
  1
MATERIAL
  2
AcDbMaterial
  3
ObjectDBX Classes
 90
     1153
280
     0
281
     0
  0
CLASS
  1
SCALE
  2
AcDbScale
  3
ObjectDBX Classes
 90
     1153
280
     0
281
     0
  0
CLASS
  1
DICTIONARYVAR
  2
AcDbDictionaryVar
  3
ObjectDBX Classes
 90
        0
280
     0
281
     0
  0
CLASS
  1
ACDBPLACEHOLDER
  2
AcDbPlaceHolder
  3
ObjectDBX Classes
 90
        0
280
     0
281
     0
  0
CLASS
  1
LAYOUT
  2
AcDbLayout
  3
ObjectDBX Classes
 90
        0
280
     0
281
     0
  0
ENDSEC
  0
SECTION
  2
TABLES
  0
TABLE
  2
VPORT
  5
8
330
0
100
AcDbSymbolTable
 70
     1
  0
VPORT
  5
29
330
8
100
AcDbSymbolTableRecord
100
AcDbViewportTableRecord
  2
*Active
 70
     0
 10
0.0
 20
0.0
 11
1.0
 21
1.0
 12
0.0
 22
-0.3415851206
 13
0.0
 23
0.0
 14
10.0
 24
10.0
 15
10.0
 25
10.0
 16
0.0
 26
0.0
 36
1.0
 17
0.0
 27
0.0
 37
0.0
 40
69.8871663541
 41
1.0054808665
 42
50.0
 43
0.0
 44
0.0
 50
0.0
 51
0.0
 71
     0
 72
   100
 73
     1
 74
     3
 75
     0
 76
     0
 77
     0
 78
     0
281
     0
 65
     1
110
0.0
120
0.0
130
0.0
111
1.0
121
0.0
131
0.0
112
0.0
122
1.0
132
0.0
 79
     0
146
0.0
  0
ENDTAB
  0
TABLE
  2
LTYPE
  5
5
330
0
100
AcDbSymbolTable
 70
     6
  0
LTYPE
  5
14
330
5
100
AcDbSymbolTableRecord
100
AcDbLinetypeTableRecord
  2
ByBlock
 70
     0
  3

 72
    65
 73
     0
 40
0.0
  0
LTYPE
  5
15
330
5
100
AcDbSymbolTableRecord
100
AcDbLinetypeTableRecord
  2
ByLayer
 70
     0
  3

 72
    65
 73
     0
 40
0.0
  0
LTYPE
  5
16
330
5
100
AcDbSymbolTableRecord
100
AcDbLinetypeTableRecord
  2
Continuous
 70
     0
  3
Solid line
 72
    65
 73
     0
 40
0.0
  0
LTYPE
  5
3F
330
5
100
AcDbSymbolTableRecord
100
AcDbLinetypeTableRecord
  2
HIDDEN
 70
     0
  3
Hidden __ __ __ __ __ __ __ __ __ __ __ __ __ __
 72
    65
 73
     2
 40
1.905
 49
1.27
 74
     0
 49
-0.635
 74
     0
  0
LTYPE
  5
40
330
5
100
AcDbSymbolTableRecord
100
AcDbLinetypeTableRecord
  2
PHANTOM
 70
     0
  3
Phantom ______  __  __  ______  __  __  ______
 72
    65
 73
     6
 40
12.7
 49
6.35
 74
     0
 49
-1.27
 74
     0
 49
1.27
 74
     0
 49
-1.27
 74
     0
 49
1.27
 74
     0
 49
-1.27
 74
     0
  0
LTYPE
  5
41
330
5
100
AcDbSymbolTableRecord
100
AcDbLinetypeTableRecord
  2
CENTER
 70
     0
  3
Center ____ _ ____ _ ____ _ ____ _ ____ _ ____
 72
    65
 73
     4
 40
10.16
 49
6.35
 74
     0
 49
-1.27
 74
     0
 49
1.27
 74
     0
 49
-1.27
 74
     0
  0
LTYPE
  5
42
330
5
100
AcDbSymbolTableRecord
100
AcDbLinetypeTableRecord
  2
CENTERX2
 70
     0
  3
Center (2x) ________  __  ________  __  _____
 72
    65
 73
     4
 40
20.32
 49
12.7
 74
     0
 49
-2.54
 74
     0
 49
2.54
 74
     0
 49
-2.54
 74
     0
  0
LTYPE
  5
43
330
5
100
AcDbSymbolTableRecord
100
AcDbLinetypeTableRecord
  2
DOT2
 70
     0
  3
Dot (.5x) ........................................
 72
    65
 73
     2
 40
0.635
 49
0.0
 74
     0
 49
-0.635
 74
     0
  0
ENDTAB
  0
TABLE
  2
LAYER
  5
2
330
0
100
AcDbSymbolTable
 70
     1
  0
LAYER
  5
10
330
2
100
AcDbSymbolTableRecord
100
AcDbLayerTableRecord
  2
0
 70
     0
 62
     7
  6
Continuous
370
    -3
390
F
  0
ENDTAB
  0
TABLE
  2
STYLE
  5
3
330
0
100
AcDbSymbolTable
 70
     2
  0
STYLE
  5
11
330
3
100
AcDbSymbolTableRecord
100
AcDbTextStyleTableRecord
  2
Standard
 70
     0
 40
0.0
 41
1.0
 50
0.0
 71
     0
 42
3.5
  3
txt
  4

  0
STYLE
  5
104
330
3
100
AcDbSymbolTableRecord
100
AcDbTextStyleTableRecord
  2
SLDTEXTSTYLE0
 70
     0
 40
0.0
 41
0.7
 50
0.0
 71
     0
 42
0.2
  3
TXT
  4

  0
ENDTAB
  0
TABLE
  2
VIEW
  5
6
330
0
100
AcDbSymbolTable
 70
     0
  0
ENDTAB
  0
TABLE
  2
UCS
  5
7
330
0
100
AcDbSymbolTable
 70
     0
  0
ENDTAB
  0
TABLE
  2
APPID
  5
9
330
0
100
AcDbSymbolTable
 70
     1
  0
APPID
  5
12
330
9
100
AcDbSymbolTableRecord
100
AcDbRegAppTableRecord
  2
ACAD
 70
     0
  0
ENDTAB
  0
TABLE
  2
DIMSTYLE
  5
A
330
0
100
AcDbSymbolTable
 70
     1
100
AcDbDimStyleTable
  0
DIMSTYLE
105
27
330
A
100
AcDbSymbolTableRecord
100
AcDbDimStyleTableRecord
  2
ISO-25
 70
     0
 41
2.5
 42
0.625
 43
3.75
 44
1.25
 73
     0
 74
     0
 77
     1
 78
     8
140
2.5
141
2.5
143
0.0393700787
147
0.625
171
     3
172
     1
178
     0
271
     2
272
     2
274
     3
278
    44
283
     0
284
     8
340
11
  0
ENDTAB
  0
TABLE
  2
BLOCK_RECORD
  5
1
330
0
100
AcDbSymbolTable
 70
     1
  0
BLOCK_RECORD
  5
1F
330
1
100
AcDbSymbolTableRecord
100
AcDbBlockTableRecord
  2
*Model_Space
340
22
  0
BLOCK_RECORD
  5
1B
330
1
100
AcDbSymbolTableRecord
100
AcDbBlockTableRecord
  2
*Paper_Space
340
1E
  0
BLOCK_RECORD
  5
23
330
1
100
AcDbSymbolTableRecord
100
AcDbBlockTableRecord
  2
*Paper_Space0
340
26
  0
ENDTAB
  0
ENDSEC
  0
SECTION
  2
BLOCKS
  0
BLOCK
  5
20
330
1F
100
AcDbEntity
  8
0
100
AcDbBlockBegin
  2
*Model_Space
 70
     0
 10
0.0
 20
0.0
 30
0.0
  3
*Model_Space
  1

  0
ENDBLK
  5
21
330
1F
100
AcDbEntity
  8
0
100
AcDbBlockEnd
  0
BLOCK
  5
1C
330
1B
100
AcDbEntity
 67
     1
  8
0
100
AcDbBlockBegin
  2
*Paper_Space
 70
     0
 10
0.0
 20
0.0
 30
0.0
  3
*Paper_Space
  1

  0
ENDBLK
  5
1D
330
1B
100
AcDbEntity
 67
     1
  8
0
100
AcDbBlockEnd
  0
BLOCK
  5
24
330
23
100
AcDbEntity
  8
0
100
AcDbBlockBegin
  2
*Paper_Space0
 70
     0
 10
0.0
 20
0.0
 30
0.0
  3
*Paper_Space0
  1

  0
ENDBLK
  5
25
330
23
100
AcDbEntity
  8
0
100
AcDbBlockEnd
  0
ENDSEC
  0
SECTION
  2
ENTITIES
  0
SPLINE
  5
45
330
1F
100
AcDbEntity
  8
0
  6
Continuous
 62
     7
370
    15
100
AcDbSpline
210
0.0
220
0.0
230
1.0
 70
     8
 71
     3
 72
     8
 73
     4
 74
     0
 42
0.00000001
 43
0.00000001
 12
1.0
 22
0.0
 32
0.0
 13
1.0
 23
0.0
 33
0.0
 40
0.0
 40
0.0
 40
0.0
 40
0.0
 40
1.0
 40
1.0
 40
1.0
 40
1.0
 10
3.602625870199487
 20
29.05133916938768
 30
0.0
 10
3.573846150891296
 20
28.98353839956773
 30
0.0
 10
3.543296485472387
 20
28.91688474607384
 30
0.0
 10
3.511019679787446
 20
28.85134946677565
 30
0.0
  0
SPLINE
  5
46
330
1F
100
AcDbEntity
  8
0
  6
Continuous
 62
     7
370
    15
100
AcDbSpline
210
0.0
220
0.0
230
1.0
 70
     8
 71
     3
 72
    12
 73
     8
 74
     0
 42
0.00000001
 43
0.00000001
 12
1.0
 22
0.0
 32
0.0
 13
1.0
 23
0.0
 33
0.0
 40
0.0
 40
0.0
 40
0.0
 40
0.0
 40
0.5000000000000016
 40
0.5000000000000016
 40
0.7500000000000008
 40
0.7500000000000008
 40
1.0
 40
1.0
 40
1.0
 40
1.0
 10
6.841685399571747
 20
33.91682975888647
 30
0.0
 10
6.185722217215647
 20
33.24475863774975
 30
0.0
 10
5.58038123834776
 20
32.50598123470098
 30
0.0
 10
4.759567622867296
 20
31.28443945444704
 30
0.0
 10
4.499216606260284
 20
30.85546607239035
 30
0.0
 10
4.020292887040604
 20
29.97285299251485
 30
0.0
 10
3.801036339396979
 20
29.51876494265115
 30
0.0
 10
3.602625870199368
 20
29.05133916938775
 30
0.0
  0
SPLINE
  5
48
330
1F
100
AcDbEntity
  8
0
  6
Continuous
 62
     7
370
    15
100
AcDbSpline
210
0.0
220
0.0
230
1.0
 70
     8
 71
     3
 72
     8
 73
     4
 74
     0
 42
0.00000001
 43
0.00000001
 12
1.0
 22
0.0
 32
0.0
 13
1.0
 23
0.0
 33
0.0
 40
0.0
 40
0.0
 40
0.0
 40
0.0
 40
1.0
 40
1.0
 40
1.0
 40
1.0
 10
8.527424950159157
 20
27.78507961056209
 30
0.0
 10
8.524594477082433
 20
27.85807060877504
 30
0.0
 10
8.523796077987774
 20
27.93138729743263
 30
0.0
 10
8.525081671306438
 20
28.00503888933176
 30
0.0
  0
SPLINE
  5
49
330
1F
100
AcDbEntity
  8
0
  6
Continuous
 62
     7
370
    15
100
AcDbSpline
210
0.0
220
0.0
230
1.0
 70
     8
 71
     3
 72
    12
 73
     8
 74
     0
 42
0.00000001
 43
0.00000001
 12
1.0
 22
0.0
 32
0.0
 13
1.0
 23
0.0
 33
0.0
 40
0.0
 40
0.0
 40
0.0
 40
0.0
 40
0.4999999999999991
 40
0.4999999999999991
 40
0.7499999999999996
 40
0.7499999999999996
 40
1.0
 40
1.0
 40
1.0
 40
1.0
 10
8.525081671306435
 20
28.00503888933182
 30
0.0
 10
8.542828332451567
 20
29.02174442541127
 30
0.0
 10
8.463088494344468
 20
30.01149670784136
 30
0.0
 10
8.21202251458949
 20
31.46155638389048
 30
0.0
 10
8.105472808899421
 20
31.94143539056822
 30
0.0
 10
7.853503099618903
 20
32.87336735682672
 30
0.0
 10
7.708174229539681
 20
33.32640552341354
 30
0.0
 10
7.545026860504274
 20
33.76732991627094
 30
0.0
  0
SPLINE
  5
4A
330
1F
100
AcDbEntity
  8
0
  6
Continuous
 62
     7
370
    15
100
AcDbSpline
210
0.0
220
0.0
230
1.0
 70
     8
 71
     3
 72
    12
 73
     8
 74
     0
 42
0.00000001
 43
0.00000001
 12
1.0
 22
0.0
 32
0.0
 13
1.0
 23
0.0
 33
0.0
 40
0.0
 40
0.0
 40
0.0
 40
0.0
 40
0.4999999999999976
 40
0.4999999999999976
 40
0.7499999999999988
 40
0.7499999999999988
 40
1.0
 40
1.0
 40
1.0
 40
1.0
 10
-28.74273804241333
 20
5.551056703064559
 30
0.0
 10
-29.75572897851603
 20
5.462431479901055
 30
0.0
 10
-30.73172421088494
 20
5.279671182036608
 30
0.0
 10
-32.14759677772911
 20
4.878408056008804
 30
0.0
 10
-32.61370948443255
 20
4.722281023990956
 30
0.0
 10
-33.51419822094701
 20
4.374278215702091
 30
0.0
 10
-33.94956359332296
 20
4.182390089214942
 30
0.0
 10
-34.37101901289721
 20
3.974047309113918
 30
0.0
  0
SPLINE
  5
4B
330
1F
100
AcDbEntity
  8
0
  6
Continuous
 62
     7
370
    15
100
AcDbSpline
210
0.0
220
0.0
230
1.0
 70
     8
 71
     3
 72
     8
 73
     4
 74
     0
 42
0.00000001
 43
0.00000001
 12
1.0
 22
0.0
 32
0.0
 13
1.0
 23
0.0
 33
0.0
 40
0.0
 40
0.0
 40
0.0
 40
0.0
 40
1.0
 40
1.0
 40
1.0
 40
1.0
 10
-28.5242286629249
 20
5.576379150581801
 30
0.0
 10
-28.59652393459495
 20
5.565934547588697
 30
0.0
 10
-28.66935553110301
 20
5.557476840905279
 30
0.0
 10
-28.74273804241326
 20
5.551056703064568
 30
0.0
  0
SPLINE
  5
4D
330
1F
100
AcDbEntity
  8
0
  6
Continuous
 62
     7
370
    15
100
AcDbSpline
210
0.0
220
0.0
230
1.0
 70
     8
 71
     3
 72
     8
 73
     4
 74
     0
 42
0.00000001
 43
0.00000001
 12
1.0
 22
0.0
 32
0.0
 13
1.0
 23
0.0
 33
0.0
 40
0.0
 40
0.0
 40
0.0
 40
0.0
 40
1.0
 40
1.0
 40
1.0
 40
1.0
 10
-29.26876983966623
 20
0.5461984694899784
 30
0.0
 10
-29.19833218516731
 20
0.5246635173796735
 30
0.0
 10
-29.12885035794526
 20
0.5012484099701608
 30
0.0
 10
-29.06030024726081
 20
0.4759987236573169
 30
0.0
  0
SPLINE
  5
4E
330
1F
100
AcDbEntity
  8
0
  6
Continuous
 62
     7
370
    15
100
AcDbSpline
210
0.0
220
0.0
230
1.0
 70
     8
 71
     3
 72
    12
 73
     8
 74
     0
 42
0.00000001
 43
0.00000001
 12
1.0
 22
0.0
 32
0.0
 13
1.0
 23
0.0
 33
0.0
 40
0.0
 40
0.0
 40
0.0
 40
0.0
 40
0.5
 40
0.5
 40
0.75
 40
0.75
 40
1.0
 40
1.0
 40
1.0
 40
1.0
 10
-34.44618067766881
 20
3.258931837488392
 30
0.0
 10
-33.70922441740652
 20
2.676812658186057
 30
0.0
 10
-32.91121876391957
 20
2.152011074310319
 30
0.0
 10
-31.61057035771367
 20
1.463379856186499
 30
0.0
 10
-31.15673285831821
 20
1.249295001731124
 30
0.0
 10
-30.22889365362454
 20
0.8652530569792021
 30
0.0
 10
-29.75437457838716
 20
0.6946627371785464
 30
0.0
 10
-29.26876983966629
 20
0.5461984694898642
 30
0.0
  0
SPLINE
  5
50
330
1F
100
AcDbEntity
  8
0
  6
Continuous
 62
     7
370
    15
100
AcDbSpline
210
0.0
220
0.0
230
1.0
 70
     8
 71
     3
 72
    12
 73
     8
 74
     0
 42
0.00000001
 43
0.00000001
 12
1.0
 22
0.0
 32
0.0
 13
1.0
 23
0.0
 33
0.0
 40
0.0
 40
0.0
 40
0.0
 40
0.0
 40
0.5
 40
0.5
 40
0.75
 40
0.75
 40
1.0
 40
1.0
 40
1.0
 40
1.0
 10
26.96051066974755
 20
-11.40570406076982
 30
0.0
 10
27.96979153153487
 20
-11.52962816821207
 30
0.0
 10
28.96245692774616
 20
-11.55378244231047
 30
0.0
 10
30.43081658775123
 20
-11.45566433750995
 30
0.0
 10
30.91920425340186
 20
-11.39985933600558
 30
0.0
 10
31.87236900022627
 20
-11.24668336014327
 30
0.0
 10
32.33811637917414
 20
-11.14950600043509
 30
0.0
 10
32.79367888681385
 20
-11.03334151871301
 30
0.0
  0
SPLINE
  5
51
330
1F
100
AcDbEntity
  8
0
  6
Continuous
 62
     7
370
    15
100
AcDbSpline
210
0.0
220
0.0
230
1.0
 70
     8
 71
     3
 72
     8
 73
     4
 74
     0
 42
0.00000001
 43
0.00000001
 12
1.0
 22
0.0
 32
0.0
 13
1.0
 23
0.0
 33
0.0
 40
0.0
 40
0.0
 40
0.0
 40
0.0
 40
1.0
 40
1.0
 40
1.0
 40
1.0
 10
26.74151141158416
 20
-11.38504249750454
 30
0.0
 10
26.81439842986611
 20
-11.38985716741944
 30
0.0
 10
26.8873969375559
 20
-11.3967268232667
 30
0.0
 10
26.96051066974748
 20
-11.40570406076981
 30
0.0
  0
SPLINE
  5
53
330
1F
100
AcDbEntity
  8
0
  6
Continuous
 62
     7
370
    15
100
AcDbSpline
210
0.0
220
0.0
230
1.0
 70
     8
 71
     3
 72
     8
 73
     4
 74
     0
 42
0.00000001
 43
0.00000001
 12
1.0
 22
0.0
 32
0.0
 13
1.0
 23
0.0
 33
0.0
 40
0.0
 40
0.0
 40
0.0
 40
0.0
 40
1.0
 40
1.0
 40
1.0
 40
1.0
 10
28.51561594778581
 20
-6.61958214797677
 30
0.0
 10
28.45119499760662
 20
-6.58387303218926
 30
0.0
 10
28.38809978441621
 20
-6.54652352153491
 30
0.0
 10
28.32629726399954
 20
-6.507573169577332
 30
0.0
  0
SPLINE
  5
54
330
1F
100
AcDbEntity
  8
0
  6
Continuous
 62
     7
370
    15
100
AcDbSpline
210
0.0
220
0.0
230
1.0
 70
     8
 71
     3
 72
    12
 73
     8
 74
     0
 42
0.00000001
 43
0.00000001
 12
1.0
 22
0.0
 32
0.0
 13
1.0
 23
0.0
 33
0.0
 40
0.0
 40
0.0
 40
0.0
 40
0.0
 40
0.4999999999999993
 40
0.4999999999999993
 40
0.7499999999999997
 40
0.7499999999999997
 40
1.0
 40
1.0
 40
1.0
 40
1.0
 10
33.01587895571295
 20
-10.34948002470223
 30
0.0
 10
32.41605632436844
 20
-9.626859704300184
 30
0.0
 10
31.74460136924272
 20
-8.947611566761086
 30
0.0
 10
30.61554967532068
 20
-8.003608548543683
 30
0.0
 10
30.21614032888441
 20
-7.699843824792623
 30
0.0
 10
29.38842346906365
 20
-7.131285526082362
 30
0.0
 10
28.95974153218452
 20
-6.865764979390534
 30
0.0
 10
28.51561594778591
 20
-6.619582147976644
 30
0.0
  0
SPLINE
  5
56
330
1F
100
AcDbEntity
  8
0
  6
Continuous
 62
     7
370
    15
100
AcDbSpline
210
0.0
220
0.0
230
1.0
 70
     8
 71
     3
 72
    12
 73
     8
 74
     0
 42
0.00000001
 43
0.00000001
 12
1.0
 22
0.0
 32
0.0
 13
1.0
 23
0.0
 33
0.0
 40
0.0
 40
0.0
 40
0.0
 40
0.0
 40
0.5000000000000008
 40
0.5000000000000008
 40
0.7500000000000003
 40
0.7500000000000003
 40
1.0
 40
1.0
 40
1.0
 40
1.0
 10
-2.516213195950231
 20
-29.16552574269764
 30
0.0
 10
-2.322187094427468
 20
-30.16370350248959
 30
0.0
 10
-2.038408703867713
 20
-31.11524847562192
 30
0.0
 10
-1.491344741511585
 20
-32.48142136773396
 30
0.0
 10
-1.28735093625542
 20
-32.92866095873825
 30
0.0
 10
-0.8471278244607221
 20
-33.78784051555191
 30
0.0
 10
-0.6107828087605038
 20
-34.20076313885659
 30
0.0
 10
-0.3595272637815939
 20
-34.59813203262013
 30
0.0
  0
SPLINE
  5
57
330
1F
100
AcDbEntity
  8
0
  6
Continuous
 62
     7
370
    15
100
AcDbSpline
210
0.0
220
0.0
230
1.0
 70
     8
 71
     3
 72
     8
 73
     4
 74
     0
 42
0.00000001
 43
0.00000001
 12
1.0
 22
0.0
 32
0.0
 13
1.0
 23
0.0
 33
0.0
 40
0.0
 40
0.0
 40
0.0
 40
0.0
 40
1.0
 40
1.0
 40
1.0
 40
1.0
 10
-2.564237374097936
 20
-28.95086029697821
 30
0.0
 10
-2.546293077142002
 20
-29.02166775721733
 30
0.0
 10
-2.530268727160349
 20
-29.09321630316403
 30
0.0
 10
-2.516213195950245
 20
-29.16552574269757
 30
0.0
  0
SPLINE
  5
59
330
1F
100
AcDbEntity
  8
0
  6
Continuous
 62
     7
370
    15
100
AcDbSpline
210
0.0
220
0.0
230
1.0
 70
     8
 71
     3
 72
     8
 73
     4
 74
     0
 42
0.00000001
 43
0.00000001
 12
1.0
 22
0.0
 32
0.0
 13
1.0
 23
0.0
 33
0.0
 40
0.0
 40
0.0
 40
0.0
 40
0.0
 40
1.0
 40
1.0
 40
1.0
 40
1.0
 10
2.516213195950637
 20
-29.16552574269754
 30
0.0
 10
2.530267438162252
 20
-29.09322293448636
 30
0.0
 10
2.546291446698698
 20
-29.02167419088132
 30
0.0
 10
2.56423737409833
 20
-28.95086029697819
 30
0.0
  0
SPLINE
  5
5A
330
1F
100
AcDbEntity
  8
0
  6
Continuous
 62
     7
370
    15
100
AcDbSpline
210
0.0
220
0.0
230
1.0
 70
     8
 71
     3
 72
    12
 73
     8
 74
     0
 42
0.00000001
 43
0.00000001
 12
1.0
 22
0.0
 32
0.0
 13
1.0
 23
0.0
 33
0.0
 40
0.0
 40
0.0
 40
0.0
 40
0.0
 40
0.5000000000000016
 40
0.5000000000000016
 40
0.7500000000000008
 40
0.7500000000000008
 40
1.0
 40
1.0
 40
1.0
 40
1.0
 10
0.3595272637818239
 20
-34.59813203261987
 30
0.0
 10
0.8614246241525595
 20
-33.80436487858509
 30
0.0
 10
1.299936981523364
 20
-32.955874088841
 30
0.0
 10
1.848841022259217
 20
-31.59036922565058
 30
0.0
 10
2.014314159620317
 20
-31.11663994372045
 30
0.0
 10
2.299266681134621
 20
-30.15374021694912
 30
0.0
 10
2.41932174400491
 20
-29.6639890509188
 30
0.0
 10
2.516213195950755
 20
-29.16552574269759
 30
0.0
  0
SPLINE
  5
5C
330
1F
100
AcDbEntity
  8
0
  6
Continuous
 62
     7
370
    15
100
AcDbSpline
210
0.0
220
0.0
230
1.0
 70
     8
 71
     3
 72
    12
 73
     8
 74
     0
 42
0.00000001
 43
0.00000001
 12
1.0
 22
0.0
 32
0.0
 13
1.0
 23
0.0
 33
0.0
 40
0.0
 40
0.0
 40
0.0
 40
0.0
 40
0.5
 40
0.5
 40
0.75
 40
0.75
 40
1.0
 40
1.0
 40
1.0
 40
1.0
 10
-14.16136316974641
 20
-25.62059745341593
 30
0.0
 10
-14.39010697169019
 20
-26.61139571292748
 30
0.0
 10
-14.51789072389918
 20
-27.59609836794837
 30
0.0
 10
-14.57379550402562
 20
-29.06667038962316
 30
0.0
 10
-14.56934661934569
 20
-29.5582158517967
 30
0.0
 10
-14.51664260410406
 20
-30.52217029859842
 30
0.0
 10
-14.46868145042757
 20
-30.99552406310788
 30
0.0
 10
-14.4007725783676
 20
-31.46073344895431
 30
0.0
  0
SPLINE
  5
5D
330
1F
100
AcDbEntity
  8
0
  6
Continuous
 62
     7
370
    15
100
AcDbSpline
210
0.0
220
0.0
230
1.0
 70
     8
 71
     3
 72
     8
 73
     4
 74
     0
 42
0.00000001
 43
0.00000001
 12
1.0
 22
0.0
 32
0.0
 13
1.0
 23
0.0
 33
0.0
 40
0.0
 40
0.0
 40
0.0
 40
0.0
 40
1.0
 40
1.0
 40
1.0
 40
1.0
 10
-14.11792313677397
 20
-25.40495761755984
 30
0.0
 10
-14.13033020049997
 20
-25.4769420892523
 30
0.0
 10
-14.14479264585377
 20
-25.54882262895075
 30
0.0
 10
-14.16136316974639
 20
-25.62059745341586
 30
0.0
  0
SPLINE
  5
5F
330
1F
100
AcDbEntity
  8
0
  6
Continuous
 62
     7
370
    15
100
AcDbSpline
210
0.0
220
0.0
230
1.0
 70
     8
 71
     3
 72
     8
 73
     4
 74
     0
 42
0.00000001
 43
0.00000001
 12
1.0
 22
0.0
 32
0.0
 13
1.0
 23
0.0
 33
0.0
 40
0.0
 40
0.0
 40
0.0
 40
0.0
 40
1.0
 40
1.0
 40
1.0
 40
1.0
 10
-9.564012898504584
 20
-27.66746967058367
 30
0.0
 10
-9.521765556600876
 20
-27.60713421345373
 30
0.0
 10
-9.47802540351492
 20
-27.54828873116248
 30
0.0
 10
-9.43282832592448
 20
-27.49089622074019
 30
0.0
  0
SPLINE
  5
60
330
1F
100
AcDbEntity
  8
0
  6
Continuous
 62
     7
370
    15
100
AcDbSpline
210
0.0
220
0.0
230
1.0
 70
     8
 71
     3
 72
    12
 73
     8
 74
     0
 42
0.00000001
 43
0.00000001
 12
1.0
 22
0.0
 32
0.0
 13
1.0
 23
0.0
 33
0.0
 40
0.0
 40
0.0
 40
0.0
 40
0.0
 40
0.5
 40
0.5
 40
0.75
 40
0.75
 40
1.0
 40
1.0
 40
1.0
 40
1.0
 10
-13.74388358091459
 20
-31.75319927368368
 30
0.0
 10
-12.96252329546572
 20
-31.23219691383409
 30
0.0
 10
-12.21680997575141
 20
-30.63542100581366
 30
0.0
 10
-11.15996023391706
 20
-29.61122951806806
 30
0.0
 10
-10.81610990552746
 20
-29.24576021570932
 30
0.0
 10
-10.16414627960154
 20
-28.48200821591648
 30
0.0
 10
-9.85527084369497
 20
-28.08342912445543
 30
0.0
 10
-9.56401289850446
 20
-27.66746967058379
 30
0.0
  0
SPLINE
  5
62
330
1F
100
AcDbEntity
  8
0
  6
Continuous
 62
     7
370
    15
100
AcDbSpline
210
0.0
220
0.0
230
1.0
 70
     8
 71
     3
 72
    12
 73
     8
 74
     0
 42
0.00000001
 43
0.00000001
 12
1.0
 22
0.0
 32
0.0
 13
1.0
 23
0.0
 33
0.0
 40
0.0
 40
0.0
 40
0.0
 40
0.0
 40
0.5000000000000016
 40
0.5000000000000016
 40
0.7500000000000008
 40
0.7500000000000008
 40
1.0
 40
1.0
 40
1.0
 40
1.0
 10
29.26876983966629
 20
0.5461984694903924
 30
0.0
 10
30.24119814307333
 20
0.8434996373607286
 30
0.0
 10
31.15786753204894
 20
1.225186977241249
 30
0.0
 10
32.45937270245793
 20
1.912058052185639
 30
0.0
 10
32.88283913858868
 20
2.161683643783211
 30
0.0
 10
33.69129615841345
 20
2.689303876139277
 30
0.0
 10
34.07725196540848
 20
2.967516334585185
 30
0.0
 10
34.44618067766903
 20
3.258931837488641
 30
0.0
  0
SPLINE
  5
63
330
1F
100
AcDbEntity
  8
0
  6
Continuous
 62
     7
370
    15
100
AcDbSpline
210
0.0
220
0.0
230
1.0
 70
     8
 71
     3
 72
     8
 73
     4
 74
     0
 42
0.00000001
 43
0.00000001
 12
1.0
 22
0.0
 32
0.0
 13
1.0
 23
0.0
 33
0.0
 40
0.0
 40
0.0
 40
0.0
 40
0.0
 40
1.0
 40
1.0
 40
1.0
 40
1.0
 10
29.0603002472608
 20
0.4759987236577171
 30
0.0
 10
29.12884411030731
 20
0.5012461087212006
 30
0.0
 10
29.19832570452783
 20
0.5246615360497455
 30
0.0
 10
29.26876983966622
 20
0.5461984694903717
 30
0.0
  0
SPLINE
  5
65
330
1F
100
AcDbEntity
  8
0
  6
Continuous
 62
     7
370
    15
100
AcDbSpline
210
0.0
220
0.0
230
1.0
 70
     8
 71
     3
 72
     8
 73
     4
 74
     0
 42
0.00000001
 43
0.00000001
 12
1.0
 22
0.0
 32
0.0
 13
1.0
 23
0.0
 33
0.0
 40
0.0
 40
0.0
 40
0.0
 40
0.0
 40
1.0
 40
1.0
 40
1.0
 40
1.0
 10
28.7427380424132
 20
5.551056703064943
 30
0.0
 10
28.66936224647086
 20
5.557476253387088
 30
0.0
 10
28.59653048942329
 20
5.565933600603487
 30
0.0
 10
28.52422866292484
 20
5.576379150582179
 30
0.0
  0
SPLINE
  5
66
330
1F
100
AcDbEntity
  8
0
  6
Continuous
 62
     7
370
    15
100
AcDbSpline
210
0.0
220
0.0
230
1.0
 70
     8
 71
     3
 72
    12
 73
     8
 74
     0
 42
0.00000001
 43
0.00000001
 12
1.0
 22
0.0
 32
0.0
 13
1.0
 23
0.0
 33
0.0
 40
0.0
 40
0.0
 40
0.0
 40
0.0
 40
0.5000000000000001
 40
0.5000000000000001
 40
0.75
 40
0.75
 40
1.0
 40
1.0
 40
1.0
 40
1.0
 10
34.37101901289694
 20
3.974047309114106
 30
0.0
 10
33.5291376420877
 20
4.390223960696484
 30
0.0
 10
32.63945795564395
 20
4.737642661494373
 30
0.0
 10
31.22405738521802
 20
5.140805622164256
 30
0.0
 10
30.73562659413074
 20
5.255854086228907
 30
0.0
 10
29.74821607895134
 20
5.438595181548565
 30
0.0
 10
29.24859864299935
 20
5.506799635189362
 30
0.0
 10
28.74273804241323
 20
5.551056703065058
 30
0.0
  0
SPLINE
  5
68
330
1F
100
AcDbEntity
  8
0
  6
Continuous
 62
     7
370
    15
100
AcDbSpline
210
0.0
220
0.0
230
1.0
 70
     8
 71
     3
 72
    12
 73
     8
 74
     0
 42
0.00000001
 43
0.00000001
 12
1.0
 22
0.0
 32
0.0
 13
1.0
 23
0.0
 33
0.0
 40
0.0
 40
0.0
 40
0.0
 40
0.0
 40
0.4999999999999991
 40
0.4999999999999991
 40
0.7499999999999996
 40
0.7499999999999996
 40
1.0
 40
1.0
 40
1.0
 40
1.0
 10
-23.99997960992998
 20
16.76186742037946
 30
0.0
 10
-24.96143983844036
 20
17.09292472613538
 30
0.0
 10
-25.92739113658922
 20
17.32293793513052
 30
0.0
 10
-27.38406366008084
 20
17.53225311423529
 30
0.0
 10
-27.8733814601437
 20
17.57920909538677
 30
0.0
 10
-28.83756431144987
 20
17.62755447356012
 30
0.0
 10
-29.31333829739707
 20
17.62933499822264
 30
0.0
 10
-29.78309763184629
 20
17.61042576009816
 30
0.0
  0
SPLINE
  5
69
330
1F
100
AcDbEntity
  8
0
  6
Continuous
 62
     7
370
    15
100
AcDbSpline
210
0.0
220
0.0
230
1.0
 70
     8
 71
     3
 72
     8
 73
     4
 74
     0
 42
0.00000001
 43
0.00000001
 12
1.0
 22
0.0
 32
0.0
 13
1.0
 23
0.0
 33
0.0
 40
0.0
 40
0.0
 40
0.0
 40
0.0
 40
1.0
 40
1.0
 40
1.0
 40
1.0
 10
-23.79006179154839
 20
16.69612485579153
 30
0.0
 10
-23.86035503888278
 20
16.7159883800595
 30
0.0
 10
-23.93033007227754
 20
16.73788516131287
 30
0.0
 10
-23.99997960992991
 20
16.76186742037943
 30
0.0
  0
SPLINE
  5
6B
330
1F
100
AcDbEntity
  8
0
  6
Continuous
 62
     7
370
    15
100
AcDbSpline
210
0.0
220
0.0
230
1.0
 70
     8
 71
     3
 72
     8
 73
     4
 74
     0
 42
0.00000001
 43
0.00000001
 12
1.0
 22
0.0
 32
0.0
 13
1.0
 23
0.0
 33
0.0
 40
0.0
 40
0.0
 40
0.0
 40
0.0
 40
1.0
 40
1.0
 40
1.0
 40
1.0
 10
-26.51619280588034
 20
12.40365832231801
 30
0.0
 10
-26.46060390303222
 20
12.35533562630238
 30
0.0
 10
-26.40665287473406
 20
12.30568405776717
 30
0.0
 10
-26.35429916564651
 20
12.25473544118656
 30
0.0
  0
SPLINE
  5
6C
330
1F
100
AcDbEntity
  8
0
  6
Continuous
 62
     7
370
    15
100
AcDbSpline
210
0.0
220
0.0
230
1.0
 70
     8
 71
     3
 72
    12
 73
     8
 74
     0
 42
0.00000001
 43
0.00000001
 12
1.0
 22
0.0
 32
0.0
 13
1.0
 23
0.0
 33
0.0
 40
0.0
 40
0.0
 40
0.0
 40
0.0
 40
0.5
 40
0.5
 40
0.75
 40
0.75
 40
1.0
 40
1.0
 40
1.0
 40
1.0
 10
-30.14262489562778
 20
16.98770627252191
 30
0.0
 10
-29.70615101841707
 20
16.15616676024634
 30
0.0
 10
-29.19059255813157
 20
15.35215843840727
 30
0.0
 10
-28.28248252632443
 20
14.19404101843392
 30
0.0
 10
-27.95495742218833
 20
13.81387237123807
 30
0.0
 10
-27.26353810892999
 20
13.08564647943429
 30
0.0
 10
-26.89942878158333
 20
12.7368002734504
 30
0.0
 10
-26.5161928058805
 20
12.40365832231788
 30
0.0
  0
SPLINE
  5
6E
330
1F
100
AcDbEntity
  8
0
  6
Continuous
 62
     7
370
    15
100
AcDbSpline
210
0.0
220
0.0
230
1.0
 70
     8
 71
     3
 72
    12
 73
     8
 74
     0
 42
0.00000001
 43
0.00000001
 12
1.0
 22
0.0
 32
0.0
 13
1.0
 23
0.0
 33
0.0
 40
0.0
 40
0.0
 40
0.0
 40
0.0
 40
0.5000000000000013
 40
0.5000000000000013
 40
0.7500000000000007
 40
0.7500000000000007
 40
1.0
 40
1.0
 40
1.0
 40
1.0
 10
-3.602625870199513
 20
29.05133916938774
 30
0.0
 10
-3.999944775645323
 20
29.98736385276874
 30
0.0
 10
-4.475359209463147
 20
30.85911443923383
 30
0.0
 10
-5.294511929323868
 20
32.08169235239002
 30
0.0
 10
-5.587034374130256
 20
32.47674605671636
 30
0.0
 10
-6.19627100014191
 20
33.22562290972904
 30
0.0
 10
-6.513302746073549
 20
33.58038328744676
 30
0.0
 10
-6.841685399571564
 20
33.91682975888676
 30
0.0
  0
SPLINE
  5
6F
330
1F
100
AcDbEntity
  8
0
  6
Continuous
 62
     7
370
    15
100
AcDbSpline
210
0.0
220
0.0
230
1.0
 70
     8
 71
     3
 72
     8
 73
     4
 74
     0
 42
0.00000001
 43
0.00000001
 12
1.0
 22
0.0
 32
0.0
 13
1.0
 23
0.0
 33
0.0
 40
0.0
 40
0.0
 40
0.0
 40
0.0
 40
1.0
 40
1.0
 40
1.0
 40
1.0
 10
-3.51101967978745
 20
28.85134946677565
 30
0.0
 10
-3.543293568905315
 20
28.91687882423511
 30
0.0
 10
-3.573843525629981
 20
28.98353221483965
 30
0.0
 10
-3.602625870199481
 20
29.05133916938766
 30
0.0
  0
SPLINE
  5
71
330
1F
100
AcDbEntity
  8
0
  6
Continuous
 62
     7
370
    15
100
AcDbSpline
210
0.0
220
0.0
230
1.0
 70
     8
 71
     3
 72
     8
 73
     4
 74
     0
 42
0.00000001
 43
0.00000001
 12
1.0
 22
0.0
 32
0.0
 13
1.0
 23
0.0
 33
0.0
 40
0.0
 40
0.0
 40
0.0
 40
0.0
 40
1.0
 40
1.0
 40
1.0
 40
1.0
 10
-8.525081671306811
 20
28.00503888933165
 30
0.0
 10
-8.523796195462214
 20
27.93139402751743
 30
0.0
 10
-8.52459422082824
 20
27.85807721695537
 30
0.0
 10
-8.527424950159531
 20
27.78507961056198
 30
0.0
  0
SPLINE
  5
72
330
1F
100
AcDbEntity
  8
0
  6
Continuous
 62
     7
370
    15
100
AcDbSpline
210
0.0
220
0.0
230
1.0
 70
     8
 71
     3
 72
    12
 73
     8
 74
     0
 42
0.00000001
 43
0.00000001
 12
1.0
 22
0.0
 32
0.0
 13
1.0
 23
0.0
 33
0.0
 40
0.0
 40
0.0
 40
0.0
 40
0.0
 40
0.5000000000000008
 40
0.5000000000000008
 40
0.7500000000000003
 40
0.7500000000000003
 40
1.0
 40
1.0
 40
1.0
 40
1.0
 10
-7.545026860504447
 20
33.76732991627064
 30
0.0
 10
-7.870923086566299
 20
32.88655815476179
 30
0.0
 10
-8.123441740666179
 20
31.96543708504544
 30
0.0
 10
-8.376446485845223
 20
30.5156482248246
 30
0.0
 10
-8.439809782439182
 20
30.01786727080511
 30
0.0
 10
-8.518337299583342
 20
29.01676424666827
 30
0.0
 10
-8.533943879538185
 20
28.51275445886409
 30
0.0
 10
-8.525081671306928
 20
28.00503888933167
 30
0.0
  0
SPLINE
  5
74
330
1F
100
AcDbEntity
  8
0
  6
Continuous
 62
     7
370
    15
100
AcDbSpline
210
0.0
220
0.0
230
1.0
 70
     8
 71
     3
 72
    12
 73
     8
 74
     0
 42
0.00000001
 43
0.00000001
 12
1.0
 22
0.0
 32
0.0
 13
1.0
 23
0.0
 33
0.0
 40
0.0
 40
0.0
 40
0.0
 40
0.0
 40
0.5000000000000009
 40
0.5000000000000009
 40
0.7500000000000004
 40
0.7500000000000004
 40
1.0
 40
1.0
 40
1.0
 40
1.0
 10
19.17872514390826
 20
22.11641296751926
 30
0.0
 10
19.60846878034845
 20
23.03800116991022
 30
0.0
 10
19.93819137635231
 20
23.97461793679482
 30
0.0
 10
20.29862368477817
 20
25.4014313898263
 30
0.0
 10
20.39647008375531
 20
25.88316047737087
 30
0.0
 10
20.54533516686017
 20
26.83700793448448
 30
0.0
 10
20.5968378615851
 20
27.30998946109431
 30
0.0
 10
20.62713543198219
 20
27.77915196457015
 30
0.0
  0
SPLINE
  5
75
330
1F
100
AcDbEntity
  8
0
  6
Continuous
 62
     7
370
    15
100
AcDbSpline
210
0.0
220
0.0
230
1.0
 70
     8
 71
     3
 72
     8
 73
     4
 74
     0
 42
0.00000001
 43
0.00000001
 12
1.0
 22
0.0
 32
0.0
 13
1.0
 23
0.0
 33
0.0
 40
0.0
 40
0.0
 40
0.0
 40
0.0
 40
1.0
 40
1.0
 40
1.0
 40
1.0
 10
19.09140033699998
 20
21.91451707015848
 30
0.0
 10
19.11850269392544
 20
21.98234894506744
 30
0.0
 10
19.14759390534717
 20
22.04965181098095
 30
0.0
 10
19.17872514390823
 20
22.11641296751919
 30
0.0
  0
SPLINE
  5
77
330
1F
100
AcDbEntity
  8
0
  6
Continuous
 62
     7
370
    15
100
AcDbSpline
210
0.0
220
0.0
230
1.0
 70
     8
 71
     3
 72
     8
 73
     4
 74
     0
 42
0.00000001
 43
0.00000001
 12
1.0
 22
0.0
 32
0.0
 13
1.0
 23
0.0
 33
0.0
 40
0.0
 40
0.0
 40
0.0
 40
0.0
 40
1.0
 40
1.0
 40
1.0
 40
1.0
 10
15.1074066699194
 20
25.0743989839259
 30
0.0
 10
15.05353805464643
 20
25.02416568751451
 30
0.0
 10
14.99851906408207
 20
24.97570021173308
 30
0.0
 10
14.94237711048639
 20
24.92895889390254
 30
0.0
  0
SPLINE
  5
78
330
1F
100
AcDbEntity
  8
0
  6
Continuous
 62
     7
370
    15
100
AcDbSpline
210
0.0
220
0.0
230
1.0
 70
     8
 71
     3
 72
    12
 73
     8
 74
     0
 42
0.00000001
 43
0.00000001
 12
1.0
 22
0.0
 32
0.0
 13
1.0
 23
0.0
 33
0.0
 40
0.0
 40
0.0
 40
0.0
 40
0.0
 40
0.5000000000000004
 40
0.5000000000000004
 40
0.7500000000000002
 40
0.7500000000000002
 40
1.0
 40
1.0
 40
1.0
 40
1.0
 10
20.045408099301
 20
28.20180161146585
 30
0.0
 10
19.17279989352711
 20
27.85463832708595
 30
0.0
 10
18.31930546718383
 20
27.42594589729087
 30
0.0
 10
17.07260896740592
 20
26.64386680269349
 30
0.0
 10
16.66028721784024
 20
26.35787434975209
 30
0.0
 10
15.86377763904423
 20
25.74636304282348
 30
0.0
 10
15.47878267726884
 20
25.42071271340913
 30
0.0
 10
15.10740666991928
 20
25.07439898392609
 30
0.0
  0
SPLINE
  5
7A
330
1F
100
AcDbEntity
  8
0
  6
Continuous
 62
     7
370
    15
100
AcDbSpline
210
0.0
220
0.0
230
1.0
 70
     8
 71
     3
 72
    12
 73
     8
 74
     0
 42
0.00000001
 43
0.00000001
 12
1.0
 22
0.0
 32
0.0
 13
1.0
 23
0.0
 33
0.0
 40
0.0
 40
0.0
 40
0.0
 40
0.0
 40
0.5000000000000017
 40
0.5000000000000017
 40
0.7500000000000008
 40
0.7500000000000008
 40
1.0
 40
1.0
 40
1.0
 40
1.0
 10
-28.51561594778576
 20
-6.619582147977181
 30
0.0
 10
-29.4049816931793
 20
-7.112565630700859
 30
0.0
 10
-30.22226240142853
 20
-7.676498408129345
 30
0.0
 10
-31.35251826331999
 20
-8.618958014344331
 30
0.0
 10
-31.71483095304319
 20
-8.951172398537247
 30
0.0
 10
-32.39592278308018
 20
-9.635350481619506
 30
0.0
 10
-32.71560090243043
 20
-9.98772804714465
 30
0.0
 10
-33.01587895571312
 20
-10.34948002470253
 30
0.0
  0
SPLINE
  5
7B
330
1F
100
AcDbEntity
  8
0
  6
Continuous
 62
     7
370
    15
100
AcDbSpline
210
0.0
220
0.0
230
1.0
 70
     8
 71
     3
 72
     8
 73
     4
 74
     0
 42
0.00000001
 43
0.00000001
 12
1.0
 22
0.0
 32
0.0
 13
1.0
 23
0.0
 33
0.0
 40
0.0
 40
0.0
 40
0.0
 40
0.0
 40
1.0
 40
1.0
 40
1.0
 40
1.0
 10
-28.32629726399944
 20
-6.507573169577716
 30
0.0
 10
-28.38809415402118
 20
-6.546519973041433
 30
0.0
 10
-28.45118907294297
 20
-6.583869748094999
 30
0.0
 10
-28.51561594778572
 20
-6.61958214797715
 30
0.0
  0
SPLINE
  5
7D
330
1F
100
AcDbEntity
  8
0
  6
Continuous
 62
     7
370
    15
100
AcDbSpline
210
0.0
220
0.0
230
1.0
 70
     8
 71
     3
 72
     8
 73
     4
 74
     0
 42
0.00000001
 43
0.00000001
 12
1.0
 22
0.0
 32
0.0
 13
1.0
 23
0.0
 33
0.0
 40
0.0
 40
0.0
 40
0.0
 40
0.0
 40
1.0
 40
1.0
 40
1.0
 40
1.0
 10
-26.96051066974733
 20
-11.40570406077019
 30
0.0
 10
-26.88740361186251
 20
-11.3967276427689
 30
0.0
 10
-26.81440502208435
 20
-11.38985760287947
 30
0.0
 10
-26.741511411584
 20
-11.38504249750492
 30
0.0
  0
SPLINE
  5
7E
330
1F
100
AcDbEntity
  8
0
  6
Continuous
 62
     7
370
    15
100
AcDbSpline
210
0.0
220
0.0
230
1.0
 70
     8
 71
     3
 72
    12
 73
     8
 74
     0
 42
0.00000001
 43
0.00000001
 12
1.0
 22
0.0
 32
0.0
 13
1.0
 23
0.0
 33
0.0
 40
0.0
 40
0.0
 40
0.0
 40
0.0
 40
0.5
 40
0.5
 40
0.75
 40
0.75
 40
1.0
 40
1.0
 40
1.0
 40
1.0
 10
-32.79367888681354
 20
-11.03334151871317
 30
0.0
 10
-31.88366665160707
 20
-11.26538673290604
 30
0.0
 10
-30.94119619013391
 20
-11.42023869379826
 30
0.0
 10
-29.47290322274614
 20
-11.52031325051046
 30
0.0
 10
-28.97122589439576
 20
-11.53129715779244
 30
0.0
 10
-27.96739865917514
 20
-11.5047507316877
 30
0.0
 10
-27.46451856137947
 20
-11.46758844843596
 30
0.0
 10
-26.96051066974734
 20
-11.40570406077031
 30
0.0
  0
SPLINE
  5
80
330
1F
100
AcDbEntity
  8
0
  6
Continuous
 62
     7
370
    15
100
AcDbSpline
210
0.0
220
0.0
230
1.0
 70
     8
 71
     3
 72
    12
 73
     8
 74
     0
 42
0.00000001
 43
0.00000001
 12
1.0
 22
0.0
 32
0.0
 13
1.0
 23
0.0
 33
0.0
 40
0.0
 40
0.0
 40
0.0
 40
0.0
 40
0.5000000000000008
 40
0.5000000000000008
 40
0.7500000000000003
 40
0.7500000000000003
 40
1.0
 40
1.0
 40
1.0
 40
1.0
 10
19.99053427647917
 20
-21.38545674135446
 30
0.0
 10
20.8621533038946
 20
-21.90917828972349
 30
0.0
 10
21.75917375731522
 20
-22.33499776465957
 30
0.0
 10
23.1404957120021
 20
-22.84259827748609
 30
0.0
 10
23.60935818197709
 20
-22.99026308691383
 30
0.0
 10
24.54241968198905
 20
-23.23801686788769
 30
0.0
 10
25.00742666301114
 20
-23.33867745747209
 30
0.0
 10
25.47085209520865
 20
-23.41784989156823
 30
0.0
  0
SPLINE
  5
81
330
1F
100
AcDbEntity
  8
0
  6
Continuous
 62
     7
370
    15
100
AcDbSpline
210
0.0
220
0.0
230
1.0
 70
     8
 71
     3
 72
     8
 73
     4
 74
     0
 42
0.00000001
 43
0.00000001
 12
1.0
 22
0.0
 32
0.0
 13
1.0
 23
0.0
 33
0.0
 40
0.0
 40
0.0
 40
0.0
 40
0.0
 40
1.0
 40
1.0
 40
1.0
 40
1.0
 10
19.79887231384014
 20
-21.2775064409842
 30
0.0
 10
19.86349963579854
 20
-21.31155069257704
 30
0.0
 10
19.92739294987975
 20
-21.34751760476771
 30
0.0
 10
19.99053427647913
 20
-21.38545674135443
 30
0.0
  0
SPLINE
  5
83
330
1F
100
AcDbEntity
  8
0
  6
Continuous
 62
     7
370
    15
100
AcDbSpline
210
0.0
220
0.0
230
1.0
 70
     8
 71
     3
 72
     8
 73
     4
 74
     0
 42
0.00000001
 43
0.00000001
 12
1.0
 22
0.0
 32
0.0
 13
1.0
 23
0.0
 33
0.0
 40
0.0
 40
0.0
 40
0.0
 40
0.0
 40
1.0
 40
1.0
 40
1.0
 40
1.0
 10
23.35788479954806
 20
-17.64563510861739
 30
0.0
 10
23.3135574818375
 20
-17.58681077119327
 30
0.0
 10
23.27110855628726
 20
-17.52702715846725
 30
0.0
 10
23.23049173179676
 20
-17.46630696927064
 30
0.0
  0
SPLINE
  5
84
330
1F
100
AcDbEntity
  8
0
  6
Continuous
 62
     7
370
    15
100
AcDbSpline
210
0.0
220
0.0
230
1.0
 70
     8
 71
     3
 72
    12
 73
     8
 74
     0
 42
0.00000001
 43
0.00000001
 12
1.0
 22
0.0
 32
0.0
 13
1.0
 23
0.0
 33
0.0
 40
0.0
 40
0.0
 40
0.0
 40
0.0
 40
0.4999999999999997
 40
0.4999999999999997
 40
0.7499999999999998
 40
0.7499999999999998
 40
1.0
 40
1.0
 40
1.0
 40
1.0
 10
25.95199348724206
 20
-22.88348824017321
 30
0.0
 10
25.69794440261063
 20
-21.97937185790257
 30
0.0
 10
25.36081487103714
 20
-21.08574243862869
 30
0.0
 10
24.71333540129928
 20
-19.76412601195985
 30
0.0
 10
24.47200902814603
 20
-19.32416868288028
 30
0.0
 10
23.9471055551078
 20
-18.46810209113848
 30
0.0
 10
23.66348207865549
 20
-18.05117639535789
 30
0.0
 10
23.35788479954822
 20
-17.64563510861731
 30
0.0
  0
SPLINE
  5
86
330
1F
100
AcDbEntity
  8
0
  6
Continuous
 62
     7
370
    15
100
AcDbSpline
210
0.0
220
0.0
230
1.0
 70
     8
 71
     3
 72
    12
 73
     8
 74
     0
 42
0.00000001
 43
0.00000001
 12
1.0
 22
0.0
 32
0.0
 13
1.0
 23
0.0
 33
0.0
 40
0.0
 40
0.0
 40
0.0
 40
0.0
 40
0.5
 40
0.5
 40
0.75
 40
0.75
 40
1.0
 40
1.0
 40
1.0
 40
1.0
 10
9.56401289850498
 20
-27.66746967058357
 30
0.0
 10
10.14725965626537
 20
-28.50043236511785
 30
0.0
 10
10.79353219983283
 20
-29.25428890647601
 30
0.0
 10
11.84897297634143
 20
-30.2798394202324
 30
0.0
 10
12.21723952085333
 20
-30.60544152778079
 30
0.0
 10
12.96886304579446
 20
-31.21128614670691
 30
0.0
 10
13.35272570631897
 20
-31.49237954745324
 30
0.0
 10
13.74388358091491
 20
-31.75319927368382
 30
0.0
  0
SPLINE
  5
87
330
1F
100
AcDbEntity
  8
0
  6
Continuous
 62
     7
370
    15
100
AcDbSpline
210
0.0
220
0.0
230
1.0
 70
     8
 71
     3
 72
     8
 73
     4
 74
     0
 42
0.00000001
 43
0.00000001
 12
1.0
 22
0.0
 32
0.0
 13
1.0
 23
0.0
 33
0.0
 40
0.0
 40
0.0
 40
0.0
 40
0.0
 40
1.0
 40
1.0
 40
1.0
 40
1.0
 10
9.432828325924847
 20
-27.49089622074005
 30
0.0
 10
9.478021298401917
 20
-27.54828351837481
 30
0.0
 10
9.521761682969991
 20
-27.60712868133484
 30
0.0
 10
9.564012898504956
 20
-27.66746967058353
 30
0.0
  0
SPLINE
  5
89
330
1F
100
AcDbEntity
  8
0
  6
Continuous
 62
     7
370
    15
100
AcDbSpline
210
0.0
220
0.0
230
1.0
 70
     8
 71
     3
 72
     8
 73
     4
 74
     0
 42
0.00000001
 43
0.00000001
 12
1.0
 22
0.0
 32
0.0
 13
1.0
 23
0.0
 33
0.0
 40
0.0
 40
0.0
 40
0.0
 40
0.0
 40
1.0
 40
1.0
 40
1.0
 40
1.0
 10
14.16136316974674
 20
-25.62059745341568
 30
0.0
 10
14.14479415758333
 20
-25.54882917696916
 30
0.0
 10
14.13033132195311
 20
-25.47694859580258
 30
0.0
 10
14.11792313677432
 20
-25.40495761755966
 30
0.0
  0
SPLINE
  5
8A
330
1F
100
AcDbEntity
  8
0
  6
Continuous
 62
     7
370
    15
100
AcDbSpline
210
0.0
220
0.0
230
1.0
 70
     8
 71
     3
 72
    12
 73
     8
 74
     0
 42
0.00000001
 43
0.00000001
 12
1.0
 22
0.0
 32
0.0
 13
1.0
 23
0.0
 33
0.0
 40
0.0
 40
0.0
 40
0.0
 40
0.0
 40
0.5000000000000009
 40
0.5000000000000009
 40
0.7500000000000004
 40
0.7500000000000004
 40
1.0
 40
1.0
 40
1.0
 40
1.0
 10
14.40077257836771
 20
-31.46073344895399
 30
0.0
 10
14.53642444480863
 20
-30.53145102146521
 30
0.0
 10
14.59191312154422
 20
-29.57795706786575
 30
0.0
 10
14.53796104955186
 20
-28.10724691069629
 30
0.0
 10
14.49644522404014
 20
-27.60716968614398
 30
0.0
 10
14.36511570287307
 20
-26.61161638517428
 30
0.0
 10
14.2755917152451
 20
-26.11537564239583
 30
0.0
 10
14.16136316974686
 20
-25.62059745341567
 30
0.0
  0
SPLINE
  5
8C
330
1F
100
AcDbEntity
  8
0
  6
Continuous
 62
     7
370
    15
100
AcDbSpline
210
0.0
220
0.0
230
1.0
 70
     8
 71
     3
 72
    12
 73
     8
 74
     0
 42
0.00000001
 43
0.00000001
 12
1.0
 22
0.0
 32
0.0
 13
1.0
 23
0.0
 33
0.0
 40
0.0
 40
0.0
 40
0.0
 40
0.0
 40
0.4999999999999989
 40
0.4999999999999989
 40
0.7499999999999994
 40
0.7499999999999994
 40
1.0
 40
1.0
 40
1.0
 40
1.0
 10
-23.35788479954784
 20
-17.64563510861776
 30
0.0
 10
-23.96984617650442
 20
-18.45773528493967
 30
0.0
 10
-24.48709716296575
 20
-19.30533146418048
 30
0.0
 10
-25.13630457005187
 20
-20.62602790984747
 30
0.0
 10
-25.33216997037665
 20
-21.07688682895224
 30
0.0
 10
-25.67609799211068
 20
-21.97893954300282
 30
0.0
 10
-25.82481361661173
 20
-22.43087726265799
 30
0.0
 10
-25.95199348724208
 20
-22.88348824017356
 30
0.0
  0
SPLINE
  5
8D
330
1F
100
AcDbEntity
  8
0
  6
Continuous
 62
     7
370
    15
100
AcDbSpline
210
0.0
220
0.0
230
1.0
 70
     8
 71
     3
 72
     8
 73
     4
 74
     0
 42
0.00000001
 43
0.00000001
 12
1.0
 22
0.0
 32
0.0
 13
1.0
 23
0.0
 33
0.0
 40
0.0
 40
0.0
 40
0.0
 40
0.0
 40
1.0
 40
1.0
 40
1.0
 40
1.0
 10
-23.23049173179652
 20
-17.46630696927096
 30
0.0
 10
-23.27110488341597
 20
-17.52702166770291
 30
0.0
 10
-23.31355343537433
 20
-17.58680540135592
 30
0.0
 10
-23.35788479954782
 20
-17.64563510861772
 30
0.0
  0
SPLINE
  5
8F
330
1F
100
AcDbEntity
  8
0
  6
Continuous
 62
     7
370
    15
100
AcDbSpline
210
0.0
220
0.0
230
1.0
 70
     8
 71
     3
 72
     8
 73
     4
 74
     0
 42
0.00000001
 43
0.00000001
 12
1.0
 22
0.0
 32
0.0
 13
1.0
 23
0.0
 33
0.0
 40
0.0
 40
0.0
 40
0.0
 40
0.0
 40
1.0
 40
1.0
 40
1.0
 40
1.0
 10
-19.99053427647885
 20
-21.38545674135471
 30
0.0
 10
-19.92739870993852
 20
-21.34752106576063
 30
0.0
 10
-19.86350547702138
 20
-21.31155376960517
 30
0.0
 10
-19.79887231383985
 20
-21.27750644098448
 30
0.0
  0
SPLINE
  5
90
330
1F
100
AcDbEntity
  8
0
  6
Continuous
 62
     7
370
    15
100
AcDbSpline
210
0.0
220
0.0
230
1.0
 70
     8
 71
     3
 72
    12
 73
     8
 74
     0
 42
0.00000001
 43
0.00000001
 12
1.0
 22
0.0
 32
0.0
 13
1.0
 23
0.0
 33
0.0
 40
0.0
 40
0.0
 40
0.0
 40
0.0
 40
0.5000000000000003
 40
0.5000000000000003
 40
0.7500000000000001
 40
0.7500000000000001
 40
1.0
 40
1.0
 40
1.0
 40
1.0
 10
-25.47085209520831
 20
-23.41784989156823
 30
0.0
 10
-24.54513321875983
 20
-23.25969841423209
 30
0.0
 10
-23.62115959101
 20
-23.01782543202579
 30
0.0
 10
-22.23910313498438
 20
-22.51203948444854
 30
0.0
 10
-21.77633048759485
 20
-22.31802320154749
 30
0.0
 10
-20.87008613546319
 20
-21.88547852461035
 30
0.0
 10
-20.42579763858681
 20
-21.6469893545511
 30
0.0
 10
-19.99053427647879
 20
-21.38545674135486
 30
0.0
  0
SPLINE
  5
92
330
1F
100
AcDbEntity
  8
0
  6
Continuous
 62
     7
370
    15
100
AcDbSpline
210
0.0
220
0.0
230
1.0
 70
     8
 71
     3
 72
    12
 73
     8
 74
     0
 42
0.00000001
 43
0.00000001
 12
1.0
 22
0.0
 32
0.0
 13
1.0
 23
0.0
 33
0.0
 40
0.0
 40
0.0
 40
0.0
 40
0.0
 40
0.5000000000000004
 40
0.5000000000000004
 40
0.7500000000000002
 40
0.7500000000000002
 40
1.0
 40
1.0
 40
1.0
 40
1.0
 10
26.51619280588022
 20
12.4036583223184
 30
0.0
 10
27.28362630031349
 20
13.07077808118521
 30
0.0
 10
27.9657992795173
 20
13.79230967946568
 30
0.0
 10
28.87540831846943
 20
14.94916809013888
 30
0.0
 10
29.16073248212128
 20
15.3494520317171
 30
0.0
 10
29.68469212753457
 20
16.16028603101667
 30
0.0
 10
29.92412109208651
 20
16.57142810396769
 30
0.0
 10
30.14262489562789
 20
16.98770627252222
 30
0.0
  0
SPLINE
  5
93
330
1F
100
AcDbEntity
  8
0
  6
Continuous
 62
     7
370
    15
100
AcDbSpline
210
0.0
220
0.0
230
1.0
 70
     8
 71
     3
 72
     8
 73
     4
 74
     0
 42
0.00000001
 43
0.00000001
 12
1.0
 22
0.0
 32
0.0
 13
1.0
 23
0.0
 33
0.0
 40
0.0
 40
0.0
 40
0.0
 40
0.0
 40
1.0
 40
1.0
 40
1.0
 40
1.0
 10
26.35429916564634
 20
12.2547354411869
 30
0.0
 10
26.40664812937027
 20
12.30567943976211
 30
0.0
 10
26.46059881658694
 20
12.35533120472345
 30
0.0
 10
26.51619280588017
 20
12.40365832231835
 30
0.0
  0
SPLINE
  5
95
330
1F
100
AcDbEntity
  8
0
  6
Continuous
 62
     7
370
    15
100
AcDbSpline
210
0.0
220
0.0
230
1.0
 70
     8
 71
     3
 72
     8
 73
     4
 74
     0
 42
0.00000001
 43
0.00000001
 12
1.0
 22
0.0
 32
0.0
 13
1.0
 23
0.0
 33
0.0
 40
0.0
 40
0.0
 40
0.0
 40
0.0
 40
1.0
 40
1.0
 40
1.0
 40
1.0
 10
23.99997960992969
 20
16.76186742037977
 30
0.0
 10
23.93033642446082
 20
16.73788734854539
 30
0.0
 10
23.86036139062182
 20
16.71599017493959
 30
0.0
 10
23.79006179154816
 20
16.69612485579186
 30
0.0
  0
SPLINE
  5
96
330
1F
100
AcDbEntity
  8
0
  6
Continuous
 62
     7
370
    15
100
AcDbSpline
210
0.0
220
0.0
230
1.0
 70
     8
 71
     3
 72
    12
 73
     8
 74
     0
 42
0.00000001
 43
0.00000001
 12
1.0
 22
0.0
 32
0.0
 13
1.0
 23
0.0
 33
0.0
 40
0.0
 40
0.0
 40
0.0
 40
0.0
 40
0.5000000000000009
 40
0.5000000000000009
 40
0.7500000000000004
 40
0.7500000000000004
 40
1.0
 40
1.0
 40
1.0
 40
1.0
 10
29.78309763184595
 20
17.61042576009825
 30
0.0
 10
28.84472642138687
 20
17.64819804766444
 30
0.0
 10
27.89065565066587
 20
17.6037154929665
 30
0.0
 10
26.43364170421487
 20
17.39632789740493
 30
0.0
 10
25.94064353055536
 20
17.30276719238988
 30
0.0
 10
24.96427165868555
 20
17.06809345110595
 30
0.0
 10
24.48010719405982
 20
16.92718860549798
 30
0.0
 10
23.99997960992966
 20
16.7618674203799
 30
0.0
  0
SPLINE
  5
98
330
1F
100
AcDbEntity
  8
0
  6
Continuous
 62
     7
370
    15
100
AcDbSpline
210
0.0
220
0.0
230
1.0
 70
     8
 71
     3
 72
    12
 73
     8
 74
     0
 42
0.00000001
 43
0.00000001
 12
1.0
 22
0.0
 32
0.0
 13
1.0
 23
0.0
 33
0.0
 40
0.0
 40
0.0
 40
0.0
 40
0.0
 40
0.5000000000000002
 40
0.5000000000000002
 40
0.7500000000000001
 40
0.7500000000000001
 40
1.0
 40
1.0
 40
1.0
 40
1.0
 10
-15.10740666991977
 20
25.07439898392573
 30
0.0
 10
-15.85109042001837
 20
25.7678953002081
 30
0.0
 10
-16.63997586147006
 20
26.37091068548833
 30
0.0
 10
-17.88557701714979
 20
27.15461223035174
 30
0.0
 10
-18.31349270608845
 20
27.39653231843734
 30
0.0
 10
-19.17465354233123
 20
27.8328664120644
 30
0.0
 10
-19.60857047395874
 20
28.02800770974557
 30
0.0
 10
-20.04540809930133
 20
28.20180161146592
 30
0.0
  0
SPLINE
  5
99
330
1F
100
AcDbEntity
  8
0
  6
Continuous
 62
     7
370
    15
100
AcDbSpline
210
0.0
220
0.0
230
1.0
 70
     8
 71
     3
 72
     8
 73
     4
 74
     0
 42
0.00000001
 43
0.00000001
 12
1.0
 22
0.0
 32
0.0
 13
1.0
 23
0.0
 33
0.0
 40
0.0
 40
0.0
 40
0.0
 40
0.0
 40
1.0
 40
1.0
 40
1.0
 40
1.0
 10
-14.94237711048673
 20
24.92895889390234
 30
0.0
 10
-14.99851398252078
 20
24.97569598104848
 30
0.0
 10
-15.05353313255386
 20
25.02416109758842
 30
0.0
 10
-15.10740666991973
 20
25.07439898392569
 30
0.0
  0
SPLINE
  5
9B
330
1F
100
AcDbEntity
  8
0
  6
Continuous
 62
     7
370
    15
100
AcDbSpline
210
0.0
220
0.0
230
1.0
 70
     8
 71
     3
 72
     8
 73
     4
 74
     0
 42
0.00000001
 43
0.00000001
 12
1.0
 22
0.0
 32
0.0
 13
1.0
 23
0.0
 33
0.0
 40
0.0
 40
0.0
 40
0.0
 40
0.0
 40
1.0
 40
1.0
 40
1.0
 40
1.0
 10
-19.17872514390854
 20
22.11641296751894
 30
0.0
 10
-19.14759674452923
 20
22.04965789962563
 30
0.0
 10
-19.11850514286592
 20
21.98235507428331
 30
0.0
 10
-19.09140033700028
 20
21.91451707015821
 30
0.0
  0
SPLINE
  5
9C
330
1F
100
AcDbEntity
  8
0
  6
Continuous
 62
     7
370
    15
100
AcDbSpline
210
0.0
220
0.0
230
1.0
 70
     8
 71
     3
 72
    12
 73
     8
 74
     0
 42
0.00000001
 43
0.00000001
 12
1.0
 22
0.0
 32
0.0
 13
1.0
 23
0.0
 33
0.0
 40
0.0
 40
0.0
 40
0.0
 40
0.0
 40
0.5000000000000008
 40
0.5000000000000008
 40
0.7500000000000003
 40
0.7500000000000003
 40
1.0
 40
1.0
 40
1.0
 40
1.0
 10
-20.62713543198224
 20
27.77915196456981
 30
0.0
 10
-20.56661429762814
 20
26.84197295864268
 30
0.0
 10
-20.42264786849644
 20
25.89777836517386
 30
0.0
 10
-20.06409692320437
 20
24.47042397124988
 30
0.0
 10
-19.91951640508384
 20
23.98990623605862
 30
0.0
 10
-19.58406958096241
 20
23.04341313292758
 30
0.0
 10
-19.39332766524972
 20
22.57662955969355
 30
0.0
 10
-19.17872514390868
 20
22.1164129675189
 30
0.0
  0
LINE
  5
B1
330
1F
100
AcDbEntity
  8
0
  6
Continuous
 62
     7
370
    15
100
AcDbLine
 10
0.1
 20
3.9987498046
 30
0.0
 11
0.1
 21
26.6680908792
 31
0.0
  0
LINE
  5
B2
330
1F
100
AcDbEntity
  8
0
  6
Continuous
 62
     7
370
    15
100
AcDbLine
 10
-0.1
 20
26.6680908792
 30
0.0
 11
-0.1
 21
3.9987498046
 31
0.0
  0
ARC
  5
B4
330
1F
100
AcDbEntity
  8
0
  6
Continuous
 62
     7
370
    15
100
AcDbCircle
 10
0.0
 20
-0.0000000001
 30
0.0
 40
34.60000000009396
100
AcDbArc
 50
77.4046310536
 51
78.5953689464
  0
ARC
  5
B6
330
1F
100
AcDbEntity
  8
0
  6
Continuous
 62
     7
370
    15
100
AcDbCircle
 10
0.0
 20
0.0
 30
0.0
 40
34.59999999998746
100
AcDbArc
 50
173.4046310536
 51
174.5953689464
  0
ARC
  5
B8
330
1F
100
AcDbEntity
  8
0
  6
Continuous
 62
     7
370
    15
100
AcDbCircle
 10
0.0
 20
0.0
 30
0.0
 40
34.59999999997775
100
AcDbArc
 50
341.4046310536
 51
342.5953689464
  0
ARC
  5
BA
330
1F
100
AcDbEntity
  8
0
  6
Continuous
 62
     7
370
    15
100
AcDbCircle
 10
0.0
 20
-0.0000000001
 30
0.0
 40
34.59999999990148
100
AcDbArc
 50
269.4046310536
 51
270.5953689464
  0
ARC
  5
BC
330
1F
100
AcDbEntity
  8
0
  6
Continuous
 62
     7
370
    15
100
AcDbCircle
 10
0.0
 20
0.0000000001
 30
0.0
 40
34.60000000008755
100
AcDbArc
 50
245.4046310536
 51
246.5953689464
  0
ARC
  5
BE
330
1F
100
AcDbEntity
  8
0
  6
Continuous
 62
     7
370
    15
100
AcDbCircle
 10
-0.0000000001
 20
0.0
 30
0.0
 40
34.60000000012734
100
AcDbArc
 50
5.4046310536
 51
6.5953689464
  0
ARC
  5
C0
330
1F
100
AcDbEntity
  8
0
  6
Continuous
 62
     7
370
    15
100
AcDbCircle
 10
0.0
 20
0.0
 30
0.0
 40
34.59999999998172
100
AcDbArc
 50
149.4046310536
 51
150.5953689464
  0
ARC
  5
C2
330
1F
100
AcDbEntity
  8
0
  6
Continuous
 62
     7
370
    15
100
AcDbCircle
 10
0.0
 20
0.0
 30
0.0
 40
34.59999999995956
100
AcDbArc
 50
101.4046310536
 51
102.5953689464
  0
ARC
  5
C4
330
1F
100
AcDbEntity
  8
0
  6
Continuous
 62
     7
370
    15
100
AcDbCircle
 10
-0.0000000001
 20
-0.0000000001
 30
0.0
 40
34.60000000008779
100
AcDbArc
 50
53.4046310536
 51
54.5953689464
  0
ARC
  5
C6
330
1F
100
AcDbEntity
  8
0
  6
Continuous
 62
     7
370
    15
100
AcDbCircle
 10
0.0
 20
0.0
 30
0.0
 40
34.60000000000165
100
AcDbArc
 50
197.4046310536
 51
198.5953689464
  0
ARC
  5
C8
330
1F
100
AcDbEntity
  8
0
  6
Continuous
 62
     7
370
    15
100
AcDbCircle
 10
0.0
 20
0.0
 30
0.0
 40
34.60000000004732
100
AcDbArc
 50
317.4046310536
 51
318.5953689464
  0
ARC
  5
CA
330
1F
100
AcDbEntity
  8
0
  6
Continuous
 62
     7
370
    15
100
AcDbCircle
 10
0.0
 20
0.0000000001
 30
0.0
 40
34.60000000006886
100
AcDbArc
 50
293.4046310536
 51
294.5953689464
  0
ARC
  5
CC
330
1F
100
AcDbEntity
  8
0
  6
Continuous
 62
     7
370
    15
100
AcDbCircle
 10
0.0
 20
0.0
 30
0.0
 40
34.60000000001904
100
AcDbArc
 50
221.4046310536
 51
222.5953689464
  0
ARC
  5
CE
330
1F
100
AcDbEntity
  8
0
  6
Continuous
 62
     7
370
    15
100
AcDbCircle
 10
0.0
 20
0.0
 30
0.0
 40
34.59999999997096
100
AcDbArc
 50
29.4046310536
 51
30.5953689464
  0
ARC
  5
D0
330
1F
100
AcDbEntity
  8
0
  6
Continuous
 62
     7
370
    15
100
AcDbCircle
 10
0.0
 20
0.0
 30
0.0
 40
34.59999999998242
100
AcDbArc
 50
125.4046310536
 51
126.5953689464
  0
ARC
  5
D1
330
1F
100
AcDbEntity
  8
0
  6
Continuous
 62
     7
370
    15
100
AcDbCircle
 10
0.0
 20
0.0
 30
0.0
 40
3.999999999999996
100
AcDbArc
 50
91.4325437376
 51
88.5674562624
  0
ARC
  5
D2
330
1F
100
AcDbEntity
  8
0
  6
Continuous
 62
     7
370
    15
100
AcDbCircle
 10
0.0
 20
30.5805631235
 30
0.0
 40
3.913749999999941
100
AcDbArc
 50
206.2207251311
 51
268.5358795117
  0
ARC
  5
D3
330
1F
100
AcDbEntity
  8
0
  6
Continuous
 62
     7
370
    15
100
AcDbCircle
 10
-29.0838438306
 20
9.4499137027
 30
0.0
 40
3.913749999999985
100
AcDbArc
 50
278.2207251311
 51
45.7792748689
  0
ARC
  5
D4
330
1F
100
AcDbEntity
  8
0
  6
Continuous
 62
     7
370
    15
100
AcDbCircle
 10
-12.4382355882
 20
27.9367345336
 30
0.0
 40
3.913749999999995
100
AcDbArc
 50
230.2207251311
 51
357.7792748689
  0
ARC
  5
D5
330
1F
100
AcDbEntity
  8
0
  6
Continuous
 62
     7
370
    15
100
AcDbCircle
 10
29.0838438306
 20
9.4499137027
 30
0.0
 40
3.913749999999982
100
AcDbArc
 50
134.2207251311
 51
261.7792748689
  0
ARC
  5
D6
330
1F
100
AcDbEntity
  8
0
  6
Continuous
 62
     7
370
    15
100
AcDbCircle
 10
6.3580565852
 20
-29.9123044484
 30
0.0
 40
3.91374999999999
100
AcDbArc
 50
38.2207251311
 51
165.7792748689
  0
ARC
  5
D7
330
1F
100
AcDbEntity
  8
0
  6
Continuous
 62
     7
370
    15
100
AcDbCircle
 10
30.413039599
 20
-3.1965392692
 30
0.0
 40
3.913749999999986
100
AcDbArc
 50
110.2207251311
 51
237.7792748689
  0
ARC
  5
D8
330
1F
100
AcDbEntity
  8
0
  6
Continuous
 62
     7
370
    15
100
AcDbCircle
 10
0.0
 20
30.5805631235
 30
0.0
 40
3.913749999999973
100
AcDbArc
 50
271.4641204883
 51
333.7792748689
  0
ARC
  5
D9
330
1F
100
AcDbEntity
  8
0
  6
Continuous
 62
     7
370
    15
100
AcDbCircle
 10
-6.3580565852
 20
-29.9123044484
 30
0.0
 40
3.91374999999999
100
AcDbArc
 50
14.2207251311
 51
141.7792748689
  0
ARC
  5
DA
330
1F
100
AcDbEntity
  8
0
  6
Continuous
 62
     7
370
    15
100
AcDbCircle
 10
-26.483544527
 20
-15.2902815618
 30
0.0
 40
3.91374999999999
100
AcDbArc
 50
326.2207251311
 51
93.7792748689
  0
ARC
  5
DB
330
1F
100
AcDbEntity
  8
0
  6
Continuous
 62
     7
370
    15
100
AcDbCircle
 10
-30.413039599
 20
-3.1965392692
 30
0.0
 40
3.913749999999985
100
AcDbArc
 50
302.2207251311
 51
69.7792748689
  0
ARC
  5
DC
330
1F
100
AcDbEntity
  8
0
  6
Continuous
 62
     7
370
    15
100
AcDbCircle
 10
-17.9748040108
 20
-24.7401952645
 30
0.0
 40
3.913749999999989
100
AcDbArc
 50
350.2207251311
 51
117.7792748689
  0
ARC
  5
DD
330
1F
100
AcDbEntity
  8
0
  6
Continuous
 62
     7
370
    15
100
AcDbCircle
 10
26.483544527
 20
-15.2902815618
 30
0.0
 40
3.913749999999984
100
AcDbArc
 50
86.2207251311
 51
213.7792748689
  0
ARC
  5
DE
330
1F
100
AcDbEntity
  8
0
  6
Continuous
 62
     7
370
    15
100
AcDbCircle
 10
-22.7257872454
 20
20.4623907456
 30
0.0
 40
3.913749999999988
100
AcDbArc
 50
254.2207251311
 51
21.7792748689
  0
ARC
  5
DF
330
1F
100
AcDbEntity
  8
0
  6
Continuous
 62
     7
370
    15
100
AcDbCircle
 10
22.7257872454
 20
20.4623907456
 30
0.0
 40
3.913749999999983
100
AcDbArc
 50
158.2207251311
 51
285.7792748689
  0
ARC
  5
E0
330
1F
100
AcDbEntity
  8
0
  6
Continuous
 62
     7
370
    15
100
AcDbCircle
 10
17.9748040108
 20
-24.7401952645
 30
0.0
 40
3.913749999999986
100
AcDbArc
 50
62.2207251311
 51
189.7792748689
  0
ARC
  5
E1
330
1F
100
AcDbEntity
  8
0
  6
Continuous
 62
     7
370
    15
100
AcDbCircle
 10
12.4382355882
 20
27.9367345336
 30
0.0
 40
3.913749999999987
100
AcDbArc
 50
182.2207251311
 51
309.7792748689
  0
MTEXT
  5
105
330
1F
100
AcDbEntity
  8
0
  6
Continuous
 62
     7
100
AcDbMText
 10
-34.4461806777
 20
-35.6195663917
 30
0.0
 40
4.83362
 41
0.0
 71
     1
 72
     1
  1
SolidWorks Educational Edition.
  7
SLDTEXTSTYLE0
 73
     1
 44
1.0
  0
MTEXT
  5
106
330
1F
100
AcDbEntity
  8
0
  6
Continuous
 62
     7
100
AcDbMText
 10
-34.4461806777
 20
-42.8699963917
 30
0.0
 40
4.83362
 41
0.0
 71
     1
 72
     1
  1
Somente para uso educacional.
  7
SLDTEXTSTYLE0
 73
     1
 44
1.0
  0
ENDSEC
  0
SECTION
  2
OBJECTS
  0
DICTIONARY
  5
C
330
0
100
AcDbDictionary
281
     1
  3
ACAD_GROUP
350
D
  3
ACAD_LAYOUT
350
1A
  3
ACAD_MLINESTYLE
350
17
  3
ACAD_PLOTSETTINGS
350
19
  3
ACAD_PLOTSTYLENAME
350
E
  3
ACAD_SCALELIST
350
E2
  3
AcDbVariableDictionary
350
107
  0
DICTIONARY
  5
D
102
{ACAD_REACTORS
330
C
102
}
330
C
100
AcDbDictionary
281
     1
  0
DICTIONARY
  5
1A
102
{ACAD_REACTORS
330
C
102
}
330
C
100
AcDbDictionary
281
     1
  3
Layout1
350
1E
  3
Layout2
350
26
  3
Model
350
22
  0
DICTIONARY
  5
17
102
{ACAD_REACTORS
330
C
102
}
330
C
100
AcDbDictionary
281
     1
  3
Standard
350
18
  0
DICTIONARY
  5
19
102
{ACAD_REACTORS
330
C
102
}
330
C
100
AcDbDictionary
281
     1
  0
ACDBDICTIONARYWDFLT
  5
E
102
{ACAD_REACTORS
330
C
102
}
330
C
100
AcDbDictionary
281
     1
  3
Normal
350
F
100
AcDbDictionaryWithDefault
340
F
  0
DICTIONARY
  5
E2
102
{ACAD_REACTORS
330
C
102
}
330
C
100
AcDbDictionary
281
     1
  3
A0
350
E3
  3
A1
350
E4
  3
A2
350
E5
  3
A3
350
E6
  3
A4
350
E7
  3
A5
350
E8
  3
A6
350
E9
  3
A7
350
EA
  3
A8
350
EB
  3
A9
350
EC
  3
B0
350
ED
  3
B1
350
EE
  3
B2
350
EF
  3
B3
350
F0
  3
B4
350
F1
  3
B5
350
F2
  3
B6
350
F3
  3
B7
350
F4
  3
B8
350
F5
  3
B9
350
F6
  3
C0
350
F7
  3
C1
350
F8
  3
C2
350
F9
  3
C3
350
FA
  3
C4
350
FB
  3
C5
350
FC
  3
C6
350
FD
  3
C7
350
FE
  3
C8
350
FF
  3
C9
350
100
  3
D0
350
101
  3
D1
350
102
  3
D2
350
103
  0
DICTIONARY
  5
107
102
{ACAD_REACTORS
330
C
102
}
330
C
100
AcDbDictionary
281
     1
  3
CANNOSCALE
350
108
  0
LAYOUT
  5
1E
102
{ACAD_REACTORS
330
1A
102
}
330
1A
100
AcDbPlotSettings
  1

  2
none_device
  4

  6

 40
0.0
 41
0.0
 42
0.0
 43
0.0
 44
0.0
 45
0.0
 46
0.0
 47
0.0
 48
0.0
 49
0.0
140
0.0
141
0.0
142
1.0
143
1.0
 70
   688
 72
     0
 73
     0
 74
     5
  7

 75
    16
147
1.0
148
0.0
149
0.0
100
AcDbLayout
  1
Layout1
 70
     1
 71
     1
 10
0.0
 20
0.0
 11
420.0
 21
297.0
 12
0.0
 22
0.0
 32
0.0
 14
1.0000000000E+20
 24
1.0000000000E+20
 34
1.0000000000E+20
 15
-1.0000000000E+20
 25
-1.0000000000E+20
 35
-1.0000000000E+20
146
0.0
 13
0.0
 23
0.0
 33
0.0
 16
1.0
 26
0.0
 36
0.0
 17
0.0
 27
1.0
 37
0.0
 76
     0
330
1B
  0
LAYOUT
  5
26
102
{ACAD_REACTORS
330
1A
102
}
330
1A
100
AcDbPlotSettings
  1

  2
none_device
  4

  6

 40
0.0
 41
0.0
 42
0.0
 43
0.0
 44
0.0
 45
0.0
 46
0.0
 47
0.0
 48
0.0
 49
0.0
140
0.0
141
0.0
142
1.0
143
1.0
 70
   688
 72
     0
 73
     0
 74
     5
  7

 75
    16
147
1.0
148
0.0
149
0.0
100
AcDbLayout
  1
Layout2
 70
     1
 71
     2
 10
0.0
 20
0.0
 11
0.0
 21
0.0
 12
0.0
 22
0.0
 32
0.0
 14
0.0
 24
0.0
 34
0.0
 15
0.0
 25
0.0
 35
0.0
146
0.0
 13
0.0
 23
0.0
 33
0.0
 16
1.0
 26
0.0
 36
0.0
 17
0.0
 27
1.0
 37
0.0
 76
     0
330
23
  0
LAYOUT
  5
22
102
{ACAD_REACTORS
330
1A
102
}
330
1A
100
AcDbPlotSettings
  1

  2
none_device
  4
ANSI_A_(11.00_x_8.50_Inches)
  6

 40
6.35
 41
19.05
 42
6.35000508
 43
19.05000254
 44
279.4
 45
215.9
 46
133.34999746
 47
89.9655872213
 48
0.0
 49
0.0
140
0.0
141
0.0
142
0.1228165405
143
1.0
 70
  1696
 72
     0
 73
     0
 74
     0
  7

 75
     0
147
0.0179189148
148
0.0
149
0.0
100
AcDbLayout
  1
Model
 70
     1
 71
     0
 10
0.0
 20
0.0
 11
420.0
 21
297.0
 12
0.0
 22
0.0
 32
0.0
 14
-34.4461806777
 24
-34.6
 34
0.0
 15
34.4461806777
 25
33.9168297589
 35
0.0
146
0.0
 13
0.0
 23
0.0
 33
0.0
 16
1.0
 26
0.0
 36
0.0
 17
0.0
 27
1.0
 37
0.0
 76
     0
330
1F
331
29
  0
MLINESTYLE
  5
18
102
{ACAD_REACTORS
330
17
102
}
330
17
100
AcDbMlineStyle
  2
Standard
 70
     0
  3

 62
   256
 51
90.0
 52
90.0
 71
     2
 49
0.5
 62
   256
  6
BYLAYER
 49
-0.5
 62
   256
  6
BYLAYER
  0
ACDBPLACEHOLDER
  5
F
102
{ACAD_REACTORS
330
E
102
}
330
E
  0
SCALE
  5
E3
102
{ACAD_REACTORS
330
E2
102
}
330
E2
100
AcDbScale
 70
     0
300
1:1
140
1.0
141
1.0
290
     1
  0
SCALE
  5
E4
102
{ACAD_REACTORS
330
E2
102
}
330
E2
100
AcDbScale
 70
     0
300
1:2
140
1.0
141
2.0
290
     0
  0
SCALE
  5
E5
102
{ACAD_REACTORS
330
E2
102
}
330
E2
100
AcDbScale
 70
     0
300
1:4
140
1.0
141
4.0
290
     0
  0
SCALE
  5
E6
102
{ACAD_REACTORS
330
E2
102
}
330
E2
100
AcDbScale
 70
     0
300
1:5
140
1.0
141
5.0
290
     0
  0
SCALE
  5
E7
102
{ACAD_REACTORS
330
E2
102
}
330
E2
100
AcDbScale
 70
     0
300
1:8
140
1.0
141
8.0
290
     0
  0
SCALE
  5
E8
102
{ACAD_REACTORS
330
E2
102
}
330
E2
100
AcDbScale
 70
     0
300
1:10
140
1.0
141
10.0
290
     0
  0
SCALE
  5
E9
102
{ACAD_REACTORS
330
E2
102
}
330
E2
100
AcDbScale
 70
     0
300
1:16
140
1.0
141
16.0
290
     0
  0
SCALE
  5
EA
102
{ACAD_REACTORS
330
E2
102
}
330
E2
100
AcDbScale
 70
     0
300
1:20
140
1.0
141
20.0
290
     0
  0
SCALE
  5
EB
102
{ACAD_REACTORS
330
E2
102
}
330
E2
100
AcDbScale
 70
     0
300
1:30
140
1.0
141
30.0
290
     0
  0
SCALE
  5
EC
102
{ACAD_REACTORS
330
E2
102
}
330
E2
100
AcDbScale
 70
     0
300
1:40
140
1.0
141
40.0
290
     0
  0
SCALE
  5
ED
102
{ACAD_REACTORS
330
E2
102
}
330
E2
100
AcDbScale
 70
     0
300
1:50
140
1.0
141
50.0
290
     0
  0
SCALE
  5
EE
102
{ACAD_REACTORS
330
E2
102
}
330
E2
100
AcDbScale
 70
     0
300
1:100
140
1.0
141
100.0
290
     0
  0
SCALE
  5
EF
102
{ACAD_REACTORS
330
E2
102
}
330
E2
100
AcDbScale
 70
     0
300
2:1
140
2.0
141
1.0
290
     0
  0
SCALE
  5
F0
102
{ACAD_REACTORS
330
E2
102
}
330
E2
100
AcDbScale
 70
     0
300
4:1
140
4.0
141
1.0
290
     0
  0
SCALE
  5
F1
102
{ACAD_REACTORS
330
E2
102
}
330
E2
100
AcDbScale
 70
     0
300
8:1
140
8.0
141
1.0
290
     0
  0
SCALE
  5
F2
102
{ACAD_REACTORS
330
E2
102
}
330
E2
100
AcDbScale
 70
     0
300
10:1
140
10.0
141
1.0
290
     0
  0
SCALE
  5
F3
102
{ACAD_REACTORS
330
E2
102
}
330
E2
100
AcDbScale
 70
     0
300
100:1
140
100.0
141
1.0
290
     0
  0
SCALE
  5
F4
102
{ACAD_REACTORS
330
E2
102
}
330
E2
100
AcDbScale
 70
     0
300
1/128" = 1'-0"
140
0.0078125
141
12.0
290
     0
  0
SCALE
  5
F5
102
{ACAD_REACTORS
330
E2
102
}
330
E2
100
AcDbScale
 70
     0
300
1/64" = 1'-0"
140
0.015625
141
12.0
290
     0
  0
SCALE
  5
F6
102
{ACAD_REACTORS
330
E2
102
}
330
E2
100
AcDbScale
 70
     0
300
1/32" = 1'-0"
140
0.03125
141
12.0
290
     0
  0
SCALE
  5
F7
102
{ACAD_REACTORS
330
E2
102
}
330
E2
100
AcDbScale
 70
     0
300
1/16" = 1'-0"
140
0.0625
141
12.0
290
     0
  0
SCALE
  5
F8
102
{ACAD_REACTORS
330
E2
102
}
330
E2
100
AcDbScale
 70
     0
300
3/32" = 1'-0"
140
0.09375
141
12.0
290
     0
  0
SCALE
  5
F9
102
{ACAD_REACTORS
330
E2
102
}
330
E2
100
AcDbScale
 70
     0
300
1/8" = 1'-0"
140
0.125
141
12.0
290
     0
  0
SCALE
  5
FA
102
{ACAD_REACTORS
330
E2
102
}
330
E2
100
AcDbScale
 70
     0
300
3/16" = 1'-0"
140
0.1875
141
12.0
290
     0
  0
SCALE
  5
FB
102
{ACAD_REACTORS
330
E2
102
}
330
E2
100
AcDbScale
 70
     0
300
1/4" = 1'-0"
140
0.25
141
12.0
290
     0
  0
SCALE
  5
FC
102
{ACAD_REACTORS
330
E2
102
}
330
E2
100
AcDbScale
 70
     0
300
3/8" = 1'-0"
140
0.375
141
12.0
290
     0
  0
SCALE
  5
FD
102
{ACAD_REACTORS
330
E2
102
}
330
E2
100
AcDbScale
 70
     0
300
1/2" = 1'-0"
140
0.5
141
12.0
290
     0
  0
SCALE
  5
FE
102
{ACAD_REACTORS
330
E2
102
}
330
E2
100
AcDbScale
 70
     0
300
3/4" = 1'-0"
140
0.75
141
12.0
290
     0
  0
SCALE
  5
FF
102
{ACAD_REACTORS
330
E2
102
}
330
E2
100
AcDbScale
 70
     0
300
1" = 1'-0"
140
1.0
141
12.0
290
     0
  0
SCALE
  5
100
102
{ACAD_REACTORS
330
E2
102
}
330
E2
100
AcDbScale
 70
     0
300
1-1/2" = 1'-0"
140
1.5
141
12.0
290
     0
  0
SCALE
  5
101
102
{ACAD_REACTORS
330
E2
102
}
330
E2
100
AcDbScale
 70
     0
300
3" = 1'-0"
140
3.0
141
12.0
290
     0
  0
SCALE
  5
102
102
{ACAD_REACTORS
330
E2
102
}
330
E2
100
AcDbScale
 70
     0
300
6" = 1'-0"
140
6.0
141
12.0
290
     0
  0
SCALE
  5
103
102
{ACAD_REACTORS
330
E2
102
}
330
E2
100
AcDbScale
 70
     0
300
1'-0" = 1'-0"
140
12.0
141
12.0
290
     0
  0
DICTIONARYVAR
  5
108
102
{ACAD_REACTORS
330
107
102
}
330
107
100
DictionaryVariables
280
     0
  1
1:1
  0
ENDSEC
  0
EOF
