  0
SECTION
  2
HEADER
  9
$ACADVER
  1
AC1015
  9
$ACADMAINTVER
 70
     6
  9
$DWGCODEPAGE
  3
ANSI_1252
  9
$INSBASE
 10
0.0
 20
0.0
 30
0.0
  9
$EXTMIN
 10
-86.9950349203
 20
-86.9999425287
 30
0.0
  9
$EXTMAX
 10
86.9950349203
 20
86.9630051219
 30
0.0
  9
$LIMMIN
 10
0.0
 20
0.0
  9
$LIMMAX
 10
420.0
 20
297.0
  9
$ORTHOMODE
 70
     0
  9
$REGENMODE
 70
     1
  9
$FILLMODE
 70
     1
  9
$QTEXTMODE
 70
     0
  9
$MIRRTEXT
 70
     1
  9
$LTSCALE
 40
1.0
  9
$ATTMODE
 70
     1
  9
$TEXTSIZE
 40
3.5
  9
$TRACEWID
 40
1.0
  9
$TEXTSTYLE
  7
Standard
  9
$CLAYER
  8
0
  9
$CELTYPE
  6
ByLayer
  9
$CECOLOR
 62
   256
  9
$CELTSCALE
 40
1.0
  9
$DISPSILH
 70
     0
  9
$DIMSCALE
 40
1.0
  9
$DIMASZ
 40
3.302
  9
$DIMEXO
 40
1.0
  9
$DIMDLI
 40
3.75
  9
$DIMRND
 40
0.0
  9
$DIMDLE
 40
0.0
  9
$DIMEXE
 40
1.0
  9
$DIMTP
 40
0.0
  9
$DIMTM
 40
0.0
  9
$DIMTXT
 40
3.5
  9
$DIMCEN
 40
2.5
  9
$DIMTSZ
 40
0.0
  9
$DIMTOL
 70
     0
  9
$DIMLIM
 70
     0
  9
$DIMTIH
 70
     1
  9
$DIMTOH
 70
     1
  9
$DIMSE1
 70
     0
  9
$DIMSE2
 70
     0
  9
$DIMTAD
 70
     1
  9
$DIMZIN
 70
     0
  9
$DIMBLK
  1

  9
$DIMASO
 70
     1
  9
$DIMSHO
 70
     1
  9
$DIMPOST
  1

  9
$DIMAPOST
  1

  9
$DIMALT
 70
     0
  9
$DIMALTD
 70
     3
  9
$DIMALTF
 40
0.0393700787
  9
$DIMLFAC
 40
1.0
  9
$DIMTOFL
 70
     1
  9
$DIMTVP
 40
0.0
  9
$DIMTIX
 70
     0
  9
$DIMSOXD
 70
     0
  9
$DIMSAH
 70
     0
  9
$DIMBLK1
  1

  9
$DIMBLK2
  1

  9
$DIMSTYLE
  2
ISO-25
  9
$DIMCLRD
 70
     0
  9
$DIMCLRE
 70
     0
  9
$DIMCLRT
 70
     0
  9
$DIMTFAC
 40
1.0
  9
$DIMGAP
 40
1.524
  9
$DIMJUST
 70
     0
  9
$DIMSD1
 70
     0
  9
$DIMSD2
 70
     0
  9
$DIMTOLJ
 70
     0
  9
$DIMTZIN
 70
     0
  9
$DIMALTZ
 70
     0
  9
$DIMALTTZ
 70
     0
  9
$DIMUPT
 70
     0
  9
$DIMDEC
 70
     3
  9
$DIMTDEC
 70
     3
  9
$DIMALTU
 70
     2
  9
$DIMALTTD
 70
     3
  9
$DIMTXSTY
  7
Standard
  9
$DIMAUNIT
 70
     0
  9
$DIMADEC
 70
     2
  9
$DIMALTRND
 40
0.0
  9
$DIMAZIN
 70
     0
  9
$DIMDSEP
 70
    44
  9
$DIMATFIT
 70
     3
  9
$DIMFRAC
 70
     0
  9
$DIMLDRBLK
  1

  9
$DIMLUNIT
 70
     2
  9
$DIMLWD
 70
    -2
  9
$DIMLWE
 70
    -2
  9
$DIMTMOVE
 70
     0
  9
$LUNITS
 70
     2
  9
$LUPREC
 70
     2
  9
$SKETCHINC
 40
1.0
  9
$FILLETRAD
 40
10.0
  9
$AUNITS
 70
     0
  9
$AUPREC
 70
     2
  9
$MENU
  1
.
  9
$ELEVATION
 40
0.0
  9
$PELEVATION
 40
0.0
  9
$THICKNESS
 40
0.0
  9
$LIMCHECK
 70
     0
  9
$CHAMFERA
 40
10.0
  9
$CHAMFERB
 40
10.0
  9
$CHAMFERC
 40
20.0
  9
$CHAMFERD
 40
0.0
  9
$SKPOLY
 70
     0
  9
$TDCREATE
 40
2461019.933386157
  9
$TDUCREATE
 40
2461020.058386157
  9
$TDUPDATE
 40
2461019.933415324
  9
$TDUUPDATE
 40
2461020.058415324
  9
$TDINDWG
 40
0.0000000116
  9
$TDUSRTIMER
 40
0.0000000116
  9
$USRTIMER
 70
     1
  9
$ANGBASE
 50
0.0
  9
$ANGDIR
 70
     0
  9
$PDMODE
 70
     0
  9
$PDSIZE
 40
-1.0
  9
$PLINEWID
 40
0.0
  9
$SPLFRAME
 70
     0
  9
$SPLINETYPE
 70
     6
  9
$SPLINESEGS
 70
     8
  9
$HANDSEED
  5
2F7
  9
$SURFTAB1
 70
     6
  9
$SURFTAB2
 70
     6
  9
$SURFTYPE
 70
     6
  9
$SURFU
 70
     6
  9
$SURFV
 70
     6
  9
$UCSBASE
  2

  9
$UCSNAME
  2

  9
$UCSORG
 10
0.0
 20
0.0
 30
0.0
  9
$UCSXDIR
 10
1.0
 20
0.0
 30
0.0
  9
$UCSYDIR
 10
0.0
 20
1.0
 30
0.0
  9
$UCSORTHOREF
  2

  9
$UCSORTHOVIEW
 70
     0
  9
$UCSORGTOP
 10
0.0
 20
0.0
 30
0.0
  9
$UCSORGBOTTOM
 10
0.0
 20
0.0
 30
0.0
  9
$UCSORGLEFT
 10
0.0
 20
0.0
 30
0.0
  9
$UCSORGRIGHT
 10
0.0
 20
0.0
 30
0.0
  9
$UCSORGFRONT
 10
0.0
 20
0.0
 30
0.0
  9
$UCSORGBACK
 10
0.0
 20
0.0
 30
0.0
  9
$PUCSBASE
  2

  9
$PUCSNAME
  2

  9
$PUCSORG
 10
0.0
 20
0.0
 30
0.0
  9
$PUCSXDIR
 10
1.0
 20
0.0
 30
0.0
  9
$PUCSYDIR
 10
0.0
 20
1.0
 30
0.0
  9
$PUCSORTHOREF
  2

  9
$PUCSORTHOVIEW
 70
     0
  9
$PUCSORGTOP
 10
0.0
 20
0.0
 30
0.0
  9
$PUCSORGBOTTOM
 10
0.0
 20
0.0
 30
0.0
  9
$PUCSORGLEFT
 10
0.0
 20
0.0
 30
0.0
  9
$PUCSORGRIGHT
 10
0.0
 20
0.0
 30
0.0
  9
$PUCSORGFRONT
 10
0.0
 20
0.0
 30
0.0
  9
$PUCSORGBACK
 10
0.0
 20
0.0
 30
0.0
  9
$USERI1
 70
     0
  9
$USERI2
 70
     0
  9
$USERI3
 70
     0
  9
$USERI4
 70
     0
  9
$USERI5
 70
     0
  9
$USERR1
 40
0.0
  9
$USERR2
 40
0.0
  9
$USERR3
 40
0.0
  9
$USERR4
 40
0.0
  9
$USERR5
 40
0.0
  9
$WORLDVIEW
 70
     1
  9
$SHADEDGE
 70
     3
  9
$SHADEDIF
 70
    70
  9
$TILEMODE
 70
     1
  9
$MAXACTVP
 70
    64
  9
$PINSBASE
 10
0.0
 20
0.0
 30
0.0
  9
$PLIMCHECK
 70
     0
  9
$PEXTMIN
 10
1.0000000000E+20
 20
1.0000000000E+20
 30
1.0000000000E+20
  9
$PEXTMAX
 10
-1.0000000000E+20
 20
-1.0000000000E+20
 30
-1.0000000000E+20
  9
$PLIMMIN
 10
0.0
 20
0.0
  9
$PLIMMAX
 10
420.0
 20
297.0
  9
$UNITMODE
 70
     0
  9
$VISRETAIN
 70
     1
  9
$PLINEGEN
 70
     0
  9
$PSLTSCALE
 70
     1
  9
$TREEDEPTH
 70
  3020
  9
$CMLSTYLE
  2
Standard
  9
$CMLJUST
 70
     0
  9
$CMLSCALE
 40
20.0
  9
$PROXYGRAPHICS
 70
     1
  9
$MEASUREMENT
 70
     1
  9
$CELWEIGHT
370
    -1
  9
$ENDCAPS
280
     0
  9
$JOINSTYLE
280
     0
  9
$LWDISPLAY
290
     1
  9
$INSUNITS
 70
     4
  9
$HYPERLINKBASE
  1

  9
$STYLESHEET
  1

  9
$XEDIT
290
     1
  9
$CEPSNTYPE
380
     0
  9
$PSTYLEMODE
290
     1
  9
$FINGERPRINTGUID
  2
{78434AB0-A213-489B-9EA2-5914DEF9D3C9}
  9
$VERSIONGUID
  2
{FAEB1C32-E019-11D5-929B-00C0DF256EC4}
  9
$EXTNAMES
290
     1
  9
$PSVPSCALE
 40
0.0
  9
$OLESTARTUP
290
     0
  0
ENDSEC
  0
SECTION
  2
CLASSES
  0
CLASS
  1
ACDBDICTIONARYWDFLT
  2
AcDbDictionaryWithDefault
  3
ObjectDBX Classes
 90
        0
280
     0
281
     0
  0
CLASS
  1
VISUALSTYLE
  2
AcDbVisualStyle
  3
ObjectDBX Classes
 90
     4095
280
     0
281
     0
  0
CLASS
  1
MATERIAL
  2
AcDbMaterial
  3
ObjectDBX Classes
 90
     1153
280
     0
281
     0
  0
CLASS
  1
ACDBPLACEHOLDER
  2
AcDbPlaceHolder
  3
ObjectDBX Classes
 90
        0
280
     0
281
     0
  0
CLASS
  1
LAYOUT
  2
AcDbLayout
  3
ObjectDBX Classes
 90
        0
280
     0
281
     0
  0
ENDSEC
  0
SECTION
  2
TABLES
  0
TABLE
  2
VPORT
  5
8
330
0
100
AcDbSymbolTable
 70
     1
  0
VPORT
  5
29
330
8
100
AcDbSymbolTableRecord
100
AcDbViewportTableRecord
  2
*Active
 70
     0
 10
0.0
 20
0.0
 11
1.0
 21
1.0
 12
0.0
 22
-0.0184687034
 13
0.0
 23
0.0
 14
10.0
 24
10.0
 15
10.0
 25
10.0
 16
0.0
 26
0.0
 36
1.0
 17
0.0
 27
0.0
 37
0.0
 40
177.4422066036
 41
1.0001559079
 42
50.0
 43
0.0
 44
0.0
 50
0.0
 51
0.0
 71
     0
 72
   100
 73
     1
 74
     3
 75
     0
 76
     0
 77
     0
 78
     0
281
     0
 65
     1
110
0.0
120
0.0
130
0.0
111
1.0
121
0.0
131
0.0
112
0.0
122
1.0
132
0.0
 79
     0
146
0.0
  0
ENDTAB
  0
TABLE
  2
LTYPE
  5
5
330
0
100
AcDbSymbolTable
 70
     6
  0
LTYPE
  5
14
330
5
100
AcDbSymbolTableRecord
100
AcDbLinetypeTableRecord
  2
ByBlock
 70
     0
  3

 72
    65
 73
     0
 40
0.0
  0
LTYPE
  5
15
330
5
100
AcDbSymbolTableRecord
100
AcDbLinetypeTableRecord
  2
ByLayer
 70
     0
  3

 72
    65
 73
     0
 40
0.0
  0
LTYPE
  5
16
330
5
100
AcDbSymbolTableRecord
100
AcDbLinetypeTableRecord
  2
Continuous
 70
     0
  3
Solid line
 72
    65
 73
     0
 40
0.0
  0
LTYPE
  5
3F
330
5
100
AcDbSymbolTableRecord
100
AcDbLinetypeTableRecord
  2
HIDDEN
 70
     0
  3
Hidden __ __ __ __ __ __ __ __ __ __ __ __ __ __
 72
    65
 73
     2
 40
1.905
 49
1.27
 74
     0
 49
-0.635
 74
     0
  0
LTYPE
  5
40
330
5
100
AcDbSymbolTableRecord
100
AcDbLinetypeTableRecord
  2
PHANTOM
 70
     0
  3
Phantom ______  __  __  ______  __  __  ______
 72
    65
 73
     6
 40
12.7
 49
6.35
 74
     0
 49
-1.27
 74
     0
 49
1.27
 74
     0
 49
-1.27
 74
     0
 49
1.27
 74
     0
 49
-1.27
 74
     0
  0
LTYPE
  5
41
330
5
100
AcDbSymbolTableRecord
100
AcDbLinetypeTableRecord
  2
CENTER
 70
     0
  3
Center ____ _ ____ _ ____ _ ____ _ ____ _ ____
 72
    65
 73
     4
 40
10.16
 49
6.35
 74
     0
 49
-1.27
 74
     0
 49
1.27
 74
     0
 49
-1.27
 74
     0
  0
LTYPE
  5
42
330
5
100
AcDbSymbolTableRecord
100
AcDbLinetypeTableRecord
  2
CENTERX2
 70
     0
  3
Center (2x) ________  __  ________  __  _____
 72
    65
 73
     4
 40
20.32
 49
12.7
 74
     0
 49
-2.54
 74
     0
 49
2.54
 74
     0
 49
-2.54
 74
     0
  0
LTYPE
  5
43
330
5
100
AcDbSymbolTableRecord
100
AcDbLinetypeTableRecord
  2
DOT2
 70
     0
  3
Dot (.5x) ........................................
 72
    65
 73
     2
 40
0.635
 49
0.0
 74
     0
 49
-0.635
 74
     0
  0
ENDTAB
  0
TABLE
  2
LAYER
  5
2
330
0
100
AcDbSymbolTable
 70
     1
  0
LAYER
  5
10
330
2
100
AcDbSymbolTableRecord
100
AcDbLayerTableRecord
  2
0
 70
     0
 62
     7
  6
Continuous
370
    -3
390
F
  0
ENDTAB
  0
TABLE
  2
STYLE
  5
3
330
0
100
AcDbSymbolTable
 70
     2
  0
STYLE
  5
11
330
3
100
AcDbSymbolTableRecord
100
AcDbTextStyleTableRecord
  2
Standard
 70
     0
 40
0.0
 41
1.0
 50
0.0
 71
     0
 42
3.5
  3
txt
  4

  0
STYLE
  5
2F4
330
3
100
AcDbSymbolTableRecord
100
AcDbTextStyleTableRecord
  2
SLDTEXTSTYLE0
 70
     0
 40
0.0
 41
0.7
 50
0.0
 71
     0
 42
0.2
  3
TXT
  4

  0
ENDTAB
  0
TABLE
  2
VIEW
  5
6
330
0
100
AcDbSymbolTable
 70
     0
  0
ENDTAB
  0
TABLE
  2
UCS
  5
7
330
0
100
AcDbSymbolTable
 70
     0
  0
ENDTAB
  0
TABLE
  2
APPID
  5
9
330
0
100
AcDbSymbolTable
 70
     1
  0
APPID
  5
12
330
9
100
AcDbSymbolTableRecord
100
AcDbRegAppTableRecord
  2
ACAD
 70
     0
  0
ENDTAB
  0
TABLE
  2
DIMSTYLE
  5
A
330
0
100
AcDbSymbolTable
 70
     1
100
AcDbDimStyleTable
  0
DIMSTYLE
105
27
330
A
100
AcDbSymbolTableRecord
100
AcDbDimStyleTableRecord
  2
ISO-25
 70
     0
 41
2.5
 42
0.625
 43
3.75
 44
1.25
 73
     0
 74
     0
 77
     1
 78
     8
140
2.5
141
2.5
143
0.0393700787
147
0.625
171
     3
172
     1
178
     0
271
     2
272
     2
274
     3
278
    44
283
     0
284
     8
340
11
  0
ENDTAB
  0
TABLE
  2
BLOCK_RECORD
  5
1
330
0
100
AcDbSymbolTable
 70
     1
  0
BLOCK_RECORD
  5
1F
330
1
100
AcDbSymbolTableRecord
100
AcDbBlockTableRecord
  2
*Model_Space
340
22
  0
BLOCK_RECORD
  5
1B
330
1
100
AcDbSymbolTableRecord
100
AcDbBlockTableRecord
  2
*Paper_Space
340
1E
  0
BLOCK_RECORD
  5
23
330
1
100
AcDbSymbolTableRecord
100
AcDbBlockTableRecord
  2
*Paper_Space0
340
26
  0
ENDTAB
  0
ENDSEC
  0
SECTION
  2
BLOCKS
  0
BLOCK
  5
20
330
1F
100
AcDbEntity
  8
0
100
AcDbBlockBegin
  2
*Model_Space
 70
     0
 10
0.0
 20
0.0
 30
0.0
  3
*Model_Space
  1

  0
ENDBLK
  5
21
330
1F
100
AcDbEntity
  8
0
100
AcDbBlockEnd
  0
BLOCK
  5
1C
330
1B
100
AcDbEntity
 67
     1
  8
0
100
AcDbBlockBegin
  2
*Paper_Space
 70
     0
 10
0.0
 20
0.0
 30
0.0
  3
*Paper_Space
  1

  0
ENDBLK
  5
1D
330
1B
100
AcDbEntity
 67
     1
  8
0
100
AcDbBlockEnd
  0
BLOCK
  5
24
330
23
100
AcDbEntity
  8
0
100
AcDbBlockBegin
  2
*Paper_Space0
 70
     0
 10
0.0
 20
0.0
 30
0.0
  3
*Paper_Space0
  1

  0
ENDBLK
  5
25
330
23
100
AcDbEntity
  8
0
100
AcDbBlockEnd
  0
ENDSEC
  0
SECTION
  2
ENTITIES
  0
LINE
  5
19C
330
1F
100
AcDbEntity
  8
0
  6
Continuous
 62
     7
370
    15
100
AcDbLine
 10
-0.1
 20
-86.9999425287
 30
0.0
 11
-0.1
 21
-3.9987498046
 31
0.0
  0
LINE
  5
19D
330
1F
100
AcDbEntity
  8
0
  6
Continuous
 62
     7
370
    15
100
AcDbLine
 10
-0.6782698983
 20
-86.997355994
 30
0.0
 11
-0.1
 21
-86.9999425287
 31
0.0
  0
LINE
  5
19E
330
1F
100
AcDbEntity
  8
0
  6
Continuous
 62
     7
370
    15
100
AcDbLine
 10
0.1
 20
-3.9987498046
 30
0.0
 11
0.1
 21
-86.9999425287
 31
0.0
  0
LINE
  5
19F
330
1F
100
AcDbEntity
  8
0
  6
Continuous
 62
     7
370
    15
100
AcDbLine
 10
0.1
 20
-86.9999425287
 30
0.0
 11
0.6782698983
 21
-86.997355994
 31
0.0
  0
ARC
  5
1A0
330
1F
100
AcDbEntity
  8
0
  6
Continuous
 62
     7
370
    15
100
AcDbCircle
 10
-33.3450871726
 20
72.5805808331
 30
0.0
 40
34.00000000000351
100
AcDbArc
 50
16.9536239148
 51
25.0249245145
  0
ARC
  5
1A1
330
1F
100
AcDbEntity
  8
0
  6
Continuous
 62
     7
370
    15
100
AcDbCircle
 10
0.0
 20
0.0000000002
 30
0.0
 40
82.49899999981047
100
AcDbArc
 50
89.4286300797
 51
90.5713699203
  0
ARC
  5
1A2
330
1F
100
AcDbEntity
  8
0
  6
Continuous
 62
     7
370
    15
100
AcDbCircle
 10
33.3450871726
 20
72.5805808331
 30
0.0
 40
34.00000000000269
100
AcDbArc
 50
154.9750754855
 51
163.0463760852
  0
ARC
  5
1A3
330
1F
100
AcDbEntity
  8
0
  6
Continuous
 62
     7
370
    15
100
AcDbCircle
 10
-27.8937681809
 20
74.8449948179
 30
0.0
 40
34.00000000000398
100
AcDbArc
 50
12.7183297972
 51
20.7896303969
  0
ARC
  5
1A4
330
1F
100
AcDbEntity
  8
0
  6
Continuous
 62
     7
370
    15
100
AcDbCircle
 10
0.0
 20
0.0000000001
 30
0.0
 40
82.49899999987365
100
AcDbArc
 50
85.193335962
 51
86.3360758027
  0
ARC
  5
1A5
330
1F
100
AcDbEntity
  8
0
  6
Continuous
 62
     7
370
    15
100
AcDbCircle
 10
38.6142868612
 20
69.9197568848
 30
0.0
 40
34.00000000000324
100
AcDbArc
 50
150.7397813678
 51
158.8110819676
  0
ARC
  5
1A6
330
1F
100
AcDbEntity
  8
0
  6
Continuous
 62
     7
370
    15
100
AcDbCircle
 10
-22.2901031003
 20
76.700631395
 30
0.0
 40
34.00000000000336
100
AcDbArc
 50
8.4830356795
 51
16.5543362792
  0
ARC
  5
1A7
330
1F
100
AcDbEntity
  8
0
  6
Continuous
 62
     7
370
    15
100
AcDbCircle
 10
0.0000000001
 20
0.0000000005
 30
0.0
 40
82.49899999950122
100
AcDbArc
 50
80.9580418444
 51
82.100781685
  0
ARC
  5
1A8
330
1F
100
AcDbEntity
  8
0
  6
Continuous
 62
     7
370
    15
100
AcDbCircle
 10
43.6725887053
 20
66.8770554705
 30
0.0
 40
33.99999999999665
100
AcDbArc
 50
146.5044872502
 51
154.5757878499
  0
ARC
  5
1A9
330
1F
100
AcDbEntity
  8
0
  6
Continuous
 62
     7
370
    15
100
AcDbCircle
 10
-16.564697206
 20
78.1373557211
 30
0.0
 40
34.00000000000381
100
AcDbArc
 50
4.2477415619
 51
12.3190421616
  0
ARC
  5
1AA
330
1F
100
AcDbEntity
  8
0
  6
Continuous
 62
     7
370
    15
100
AcDbCircle
 10
0.0
 20
0.0000000002
 30
0.0
 40
82.49899999981896
100
AcDbArc
 50
76.7227477267
 51
77.8654875674
  0
ARC
  5
1AB
330
1F
100
AcDbEntity
  8
0
  6
Continuous
 62
     7
370
    15
100
AcDbCircle
 10
48.4923660143
 20
63.4690947702
 30
0.0
 40
33.99999999999811
100
AcDbArc
 50
142.2691931325
 51
150.3404937323
  0
ARC
  5
1AC
330
1F
100
AcDbEntity
  8
0
  6
Continuous
 62
     7
370
    15
100
AcDbCircle
 10
-10.7488206798
 20
79.1473209061
 30
0.0
 40
34.0000000000019
100
AcDbArc
 50
0.0124474442
 51
8.0837480439
  0
ARC
  5
1AD
330
1F
100
AcDbEntity
  8
0
  6
Continuous
 62
     7
370
    15
100
AcDbCircle
 10
0.0000000002
 20
0.0000000005
 30
0.0
 40
82.49899999947549
100
AcDbArc
 50
72.4874536091
 51
73.6301934497
  0
ARC
  5
1AE
330
1F
100
AcDbEntity
  8
0
  6
Continuous
 62
     7
370
    15
100
AcDbCircle
 10
53.0472948359
 20
59.7144878837
 30
0.0
 40
33.99999999999863
100
AcDbArc
 50
138.0338990149
 51
146.1051996146
  0
ARC
  5
1AF
330
1F
100
AcDbEntity
  8
0
  6
Continuous
 62
     7
370
    15
100
AcDbCircle
 10
-4.8742378225
 20
79.7250108703
 30
0.0
 40
34.00000000000338
100
AcDbArc
 50
355.7771533266
 51
3.8484539263
  0
ARC
  5
1B0
330
1F
100
AcDbEntity
  8
0
  6
Continuous
 62
     7
370
    15
100
AcDbCircle
 10
0.0000000001
 20
0.0000000004
 30
0.0
 40
82.49899999962174
100
AcDbArc
 50
68.2521594914
 51
69.3948993321
  0
ARC
  5
1B1
330
1F
100
AcDbEntity
  8
0
  6
Continuous
 62
     7
370
    15
100
AcDbCircle
 10
57.3124977285
 20
55.6337411716
 30
0.0
 40
34.00000000000105
100
AcDbArc
 50
133.7986048972
 51
141.869905497
  0
ARC
  5
1B2
330
1F
100
AcDbEntity
  8
0
  6
Continuous
 62
     7
370
    15
100
AcDbCircle
 10
1.0269664316
 20
79.8672704715
 30
0.0
 40
34.00000000000393
100
AcDbArc
 50
351.5418592089
 51
359.6131598087
  0
ARC
  5
1B3
330
1F
100
AcDbEntity
  8
0
  6
Continuous
 62
     7
370
    15
100
AcDbCircle
 10
0.0000000001
 20
0.0000000003
 30
0.0
 40
82.49899999971201
100
AcDbArc
 50
64.0168653738
 51
65.1596052144
  0
ARC
  5
1B4
330
1F
100
AcDbEntity
  8
0
  6
Continuous
 62
     7
370
    15
100
AcDbCircle
 10
61.2646796327
 20
51.2491422574
 30
0.0
 40
34.00000000000154
100
AcDbArc
 50
129.5633107796
 51
137.6346113793
  0
ARC
  5
1B5
330
1F
100
AcDbEntity
  8
0
  6
Continuous
 62
     7
370
    15
100
AcDbCircle
 10
6.9225617512
 20
79.5733227371
 30
0.0
 40
34.00000000000238
100
AcDbArc
 50
347.3065650913
 51
355.377865691
  0
ARC
  5
1B6
330
1F
100
AcDbEntity
  8
0
  6
Continuous
 62
     7
370
    15
100
AcDbCircle
 10
0.0
 20
0.0
 30
0.0
 40
82.49899999999987
100
AcDbArc
 50
59.7815712561
 51
60.9243110968
  0
ARC
  5
1B7
330
1F
100
AcDbEntity
  8
0
  6
Continuous
 62
     7
370
    15
100
AcDbCircle
 10
64.8822551017
 20
46.5846382999
 30
0.0
 40
34.00000000000233
100
AcDbArc
 50
125.3280166619
 51
133.3993172617
  0
ARC
  5
1B8
330
1F
100
AcDbEntity
  8
0
  6
Continuous
 62
     7
370
    15
100
AcDbCircle
 10
12.780348439
 20
78.8447731076
 30
0.0
 40
34.00000000000244
100
AcDbArc
 50
343.0712709736
 51
351.1425715734
  0
ARC
  5
1B9
330
1F
100
AcDbEntity
  8
0
  6
Continuous
 62
     7
370
    15
100
AcDbCircle
 10
0.0000000001
 20
0.0000000001
 30
0.0
 40
82.49899999986144
100
AcDbArc
 50
55.5462771385
 51
56.6890169792
  0
ARC
  5
1BA
330
1F
100
AcDbEntity
  8
0
  6
Continuous
 62
     7
370
    15
100
AcDbCircle
 10
68.1454661926
 20
41.6657052023
 30
0.0
 40
33.99999999999778
100
AcDbArc
 50
121.0927225443
 51
129.164023144
  0
ARC
  5
1BB
330
1F
100
AcDbEntity
  8
0
  6
Continuous
 62
     7
370
    15
100
AcDbCircle
 10
18.5683332956
 20
77.6856006686
 30
0.0
 40
34.00000000000136
100
AcDbArc
 50
338.835976856
 51
346.9072774557
  0
ARC
  5
1BC
330
1F
100
AcDbEntity
  8
0
  6
Continuous
 62
     7
370
    15
100
AcDbCircle
 10
0.0000000001
 20
0.0000000001
 30
0.0
 40
82.4989999998661
100
AcDbArc
 50
51.3109830208
 51
52.4537228615
  0
ARC
  5
1BD
330
1F
100
AcDbEntity
  8
0
  6
Continuous
 62
     7
370
    15
100
AcDbCircle
 10
71.0364903781
 20
36.5192084714
 30
0.0
 40
33.99999999999974
100
AcDbArc
 50
116.8574284266
 51
124.9287290264
  0
ARC
  5
1BE
330
1F
100
AcDbEntity
  8
0
  6
Continuous
 62
     7
370
    15
100
AcDbCircle
 10
24.2549043546
 20
76.1021364179
 30
0.0
 40
34.00000000000469
100
AcDbArc
 50
334.6006827383
 51
342.6719833381
  0
ARC
  5
1BF
330
1F
100
AcDbEntity
  8
0
  6
Continuous
 62
     7
370
    15
100
AcDbCircle
 10
0.0000000001
 20
0.0000000002
 30
0.0
 40
82.49899999979321
100
AcDbArc
 50
47.0756889032
 51
48.2184287439
  0
ARC
  5
1C0
330
1F
100
AcDbEntity
  8
0
  6
Continuous
 62
     7
370
    15
100
AcDbCircle
 10
73.5395378866
 20
31.1732564876
 30
0.0
 40
34.00000000000217
100
AcDbArc
 50
112.622134309
 51
120.6934349087
  0
ARC
  5
1C1
330
1F
100
AcDbEntity
  8
0
  6
Continuous
 62
     7
370
    15
100
AcDbCircle
 10
29.809003537
 20
74.1030286881
 30
0.0
 40
34.00000000000386
100
AcDbArc
 50
330.3653886207
 51
338.4366892204
  0
ARC
  5
1C2
330
1F
100
AcDbEntity
  8
0
  6
Continuous
 62
     7
370
    15
100
AcDbCircle
 10
0.0000000002
 20
0.0000000002
 30
0.0
 40
82.49899999977102
100
AcDbArc
 50
42.8403947856
 51
43.9831346262
  0
ARC
  5
1C3
330
1F
100
AcDbEntity
  8
0
  6
Continuous
 62
     7
370
    15
100
AcDbCircle
 10
75.6409379406
 20
25.6570469868
 30
0.0
 40
34.00000000000348
100
AcDbArc
 50
108.3868401913
 51
116.4581407911
  0
ARC
  5
1C4
330
1F
100
AcDbEntity
  8
0
  6
Continuous
 62
     7
370
    15
100
AcDbCircle
 10
35.2002962789
 20
71.6991959125
 30
0.0
 40
33.99999999999886
100
AcDbArc
 50
326.130094503
 51
334.2013951028
  0
ARC
  5
1C5
330
1F
100
AcDbEntity
  8
0
  6
Continuous
 62
     7
370
    15
100
AcDbCircle
 10
0.0000000003
 20
0.0000000002
 30
0.0
 40
82.49899999965346
100
AcDbArc
 50
38.6051006679
 51
39.7478405086
  0
ARC
  5
1C6
330
1F
100
AcDbEntity
  8
0
  6
Continuous
 62
     7
370
    15
100
AcDbCircle
 10
77.3292134217
 20
20.0007075926
 30
0.0
 40
33.99999999999869
100
AcDbArc
 50
104.1515460737
 51
112.2228466734
  0
ARC
  5
1C7
330
1F
100
AcDbEntity
  8
0
  6
Continuous
 62
     7
370
    15
100
AcDbCircle
 10
40.3993372091
 20
68.903766992
 30
0.0
 40
34.00000000000387
100
AcDbArc
 50
321.8948003854
 51
329.9661009851
  0
ARC
  5
1C8
330
1F
100
AcDbEntity
  8
0
  6
Continuous
 62
     7
370
    15
100
AcDbCircle
 10
0.0000000002
 20
0.0000000001
 30
0.0
 40
82.49899999980661
100
AcDbArc
 50
34.3698065503
 51
35.5125463909
  0
ARC
  5
1C9
330
1F
100
AcDbEntity
  8
0
  6
Continuous
 62
     7
370
    15
100
AcDbCircle
 10
78.5951435546
 20
14.2351312692
 30
0.0
 40
34.00000000000003
100
AcDbArc
 50
99.9162519561
 51
107.9875525558
  0
ARC
  5
1CA
330
1F
100
AcDbEntity
  8
0
  6
Continuous
 62
     7
370
    15
100
AcDbCircle
 10
45.3777309687
 20
65.7320095901
 30
0.0
 40
34.00000000000411
100
AcDbArc
 50
317.6595062677
 51
325.7308068675
  0
ARC
  5
1CB
330
1F
100
AcDbEntity
  8
0
  6
Continuous
 62
     7
370
    15
100
AcDbCircle
 10
-0.0000000001
 20
0.0
 30
0.0
 40
82.4990000000588
100
AcDbArc
 50
30.1345124326
 51
31.2772522733
  0
ARC
  5
1CC
330
1F
100
AcDbEntity
  8
0
  6
Continuous
 62
     7
370
    15
100
AcDbCircle
 10
79.431814268
 20
8.3918075951
 30
0.0
 40
34.00000000000193
100
AcDbArc
 50
95.6809578384
 51
103.7522584381
  0
ARC
  5
1CD
330
1F
100
AcDbEntity
  8
0
  6
Continuous
 62
     7
370
    15
100
AcDbCircle
 10
50.1082872975
 20
62.2012467458
 30
0.0
 40
34.00000000000429
100
AcDbArc
 50
313.4242121501
 51
321.4955127498
  0
ARC
  5
1CE
330
1F
100
AcDbEntity
  8
0
  6
Continuous
 62
     7
370
    15
100
AcDbCircle
 10
0.0000000003
 20
0.0000000001
 30
0.0
 40
82.4989999996983
100
AcDbArc
 50
25.899218315
 51
27.0419581556
  0
ARC
  5
1CF
330
1F
100
AcDbEntity
  8
0
  6
Continuous
 62
     7
370
    15
100
AcDbCircle
 10
79.8346559566
 20
2.502650778
 30
0.0
 40
33.9999999999938
100
AcDbArc
 50
91.4456637208
 51
99.5169643205
  0
ARC
  5
1D0
330
1F
100
AcDbEntity
  8
0
  6
Continuous
 62
     7
370
    15
100
AcDbCircle
 10
54.5651695372
 20
58.3307622614
 30
0.0
 40
34.00000000000638
100
AcDbArc
 50
309.1889180324
 51
317.2602186322
  0
ARC
  5
1D1
330
1F
100
AcDbEntity
  8
0
  6
Continuous
 62
     7
370
    15
100
AcDbCircle
 10
0.0000000001
 20
0.0
 30
0.0
 40
82.49899999990275
100
AcDbArc
 50
21.6639241973
 51
22.806664038
  0
ARC
  5
1D2
330
1F
100
AcDbEntity
  8
0
  6
Continuous
 62
     7
370
    15
100
AcDbCircle
 10
79.8014684387
 20
-3.4001746499
 30
0.0
 40
34.00000000000269
100
AcDbArc
 50
87.2103696031
 51
95.2816702028
  0
ARC
  5
1D3
330
1F
100
AcDbEntity
  8
0
  6
Continuous
 62
     7
370
    15
100
AcDbCircle
 10
58.7240357426
 20
54.1416953809
 30
0.0
 40
34.00000000000206
100
AcDbArc
 50
304.9536239148
 51
313.0249245145
  0
ARC
  5
1D4
330
1F
100
AcDbEntity
  8
0
  6
Continuous
 62
     7
370
    15
100
AcDbCircle
 10
0.0000000002
 20
0.0000000001
 30
0.0
 40
82.49899999974268
100
AcDbArc
 50
17.4286300797
 51
18.5713699203
  0
ARC
  5
1D5
330
1F
100
AcDbEntity
  8
0
  6
Continuous
 62
     7
370
    15
100
AcDbCircle
 10
79.3324329731
 20
-9.2844295028
 30
0.0
 40
33.99999999999815
100
AcDbArc
 50
82.9750754855
 51
91.0463760852
  0
ARC
  5
1D6
330
1F
100
AcDbEntity
  8
0
  6
Continuous
 62
     7
370
    15
100
AcDbCircle
 10
62.5621716286
 20
49.6569253351
 30
0.0
 40
34.00000000000586
100
AcDbArc
 50
300.7183297972
 51
308.7896303969
  0
ARC
  5
1D7
330
1F
100
AcDbEntity
  8
0
  6
Continuous
 62
     7
370
    15
100
AcDbCircle
 10
0.0000000002
 20
0.0
 30
0.0
 40
82.49899999982327
100
AcDbArc
 50
13.193335962
 51
14.3360758027
  0
ARC
  5
1D8
330
1F
100
AcDbEntity
  8
0
  6
Continuous
 62
     7
370
    15
100
AcDbCircle
 10
78.4301112688
 20
-15.1179760214
 30
0.0
 40
33.99999999999656
100
AcDbArc
 50
78.7397813678
 51
86.8110819676
  0
ARC
  5
1D9
330
1F
100
AcDbEntity
  8
0
  6
Continuous
 62
     7
370
    15
100
AcDbCircle
 10
66.0586146279
 20
44.9009463828
 30
0.0
 40
34.0000000000003
100
AcDbArc
 50
296.4830356795
 51
304.5543362792
  0
ARC
  5
1DA
330
1F
100
AcDbEntity
  8
0
  6
Continuous
 62
     7
370
    15
100
AcDbCircle
 10
0.0000000002
 20
0.0
 30
0.0
 40
82.4989999997866
100
AcDbArc
 50
8.9580418444
 51
10.100781685
  0
ARC
  5
1DB
330
1F
100
AcDbEntity
  8
0
  6
Continuous
 62
     7
370
    15
100
AcDbCircle
 10
77.0994314941
 20
-20.8689533975
 30
0.0
 40
34.00000000000134
100
AcDbArc
 50
74.5044872502
 51
82.5757878499
  0
ARC
  5
1DC
330
1F
100
AcDbEntity
  8
0
  6
Continuous
 62
     7
370
    15
100
AcDbCircle
 10
69.1942683813
 20
39.8997340316
 30
0.0
 40
34.00000000000455
100
AcDbArc
 50
292.2477415619
 51
300.3190421616
  0
ARC
  5
1DD
330
1F
100
AcDbEntity
  8
0
  6
Continuous
 62
     7
370
    15
100
AcDbCircle
 10
0.0000000005
 20
0.0
 30
0.0
 40
82.49899999947768
100
AcDbArc
 50
4.7227477267
 51
5.8654875674
  0
ARC
  5
1DE
330
1F
100
AcDbEntity
  8
0
  6
Continuous
 62
     7
370
    15
100
AcDbCircle
 10
75.3476613605
 20
-26.5059517869
 30
0.0
 40
33.99999999999954
100
AcDbArc
 50
70.2691931325
 51
78.3404937323
  0
ARC
  5
1DF
330
1F
100
AcDbEntity
  8
0
  6
Continuous
 62
     7
370
    15
100
AcDbCircle
 10
71.9520070355
 20
34.6806031693
 30
0.0
 40
34.000000000004
100
AcDbArc
 50
288.0124474442
 51
296.0837480439
  0
ARC
  5
1E0
330
1F
100
AcDbEntity
  8
0
  6
Continuous
 62
     7
370
    15
100
AcDbCircle
 10
0.0000000001
 20
0.0
 30
0.0
 40
82.4989999998726
100
AcDbArc
 50
0.4874536091
 51
1.6301934497
  0
ARC
  5
1E1
330
1F
100
AcDbEntity
  8
0
  6
Continuous
 62
     7
370
    15
100
AcDbCircle
 10
73.1843684289
 20
-31.9981838591
 30
0.0
 40
34.00000000000011
100
AcDbArc
 50
66.0338990149
 51
74.1051996146
  0
ARC
  5
1E2
330
1F
100
AcDbEntity
  8
0
  6
Continuous
 62
     7
370
    15
100
AcDbCircle
 10
74.3167687781
 20
29.2720588787
 30
0.0
 40
34.00000000000256
100
AcDbArc
 50
283.7771533266
 51
291.8484539263
  0
ARC
  5
1E3
330
1F
100
AcDbEntity
  8
0
  6
Continuous
 62
     7
370
    15
100
AcDbCircle
 10
0.0
 20
0.0
 30
0.0
 40
82.49900000001288
100
AcDbArc
 50
356.2521594914
 51
357.3948993321
  0
ARC
  5
1E4
330
1F
100
AcDbEntity
  8
0
  6
Continuous
 62
     7
370
    15
100
AcDbCircle
 10
70.6213678553
 20
-37.3156529471
 30
0.0
 40
33.99999999999628
100
AcDbArc
 50
61.7986048972
 51
69.869905497
  0
ARC
  5
1E5
330
1F
100
AcDbEntity
  8
0
  6
Continuous
 62
     7
370
    15
100
AcDbCircle
 10
76.2756381007
 20
23.7036407532
 30
0.0
 40
34.00000000000065
100
AcDbArc
 50
279.5418592089
 51
287.6131598087
  0
ARC
  5
1E6
330
1F
100
AcDbEntity
  8
0
  6
Continuous
 62
     7
370
    15
100
AcDbCircle
 10
0.0000000004
 20
0.0
 30
0.0
 40
82.49899999962635
100
AcDbArc
 50
352.0168653738
 51
353.1596052145
  0
ARC
  5
1E7
330
1F
100
AcDbEntity
  8
0
  6
Continuous
 62
     7
370
    15
100
AcDbCircle
 10
67.6726578599
 20
-42.4293168788
 30
0.0
 40
34.00000000000076
100
AcDbArc
 50
57.5633107796
 51
65.6346113793
  0
ARC
  5
1E8
330
1F
100
AcDbEntity
  8
0
  6
Continuous
 62
     7
370
    15
100
AcDbCircle
 10
77.8179163381
 20
18.0057615617
 30
0.0
 40
34.0000000000018
100
AcDbArc
 50
275.3065650913
 51
283.377865691
  0
ARC
  5
1E9
330
1F
100
AcDbEntity
  8
0
  6
Continuous
 62
     7
370
    15
100
AcDbCircle
 10
0.0000000002
 20
0.0
 30
0.0
 40
82.4989999998204
100
AcDbArc
 50
347.7815712561
 51
348.9243110968
  0
ARC
  5
1EA
330
1F
100
AcDbEntity
  8
0
  6
Continuous
 62
     7
370
    15
100
AcDbCircle
 10
64.3543432742
 20
-47.3112465949
 30
0.0
 40
34.00000000000085
100
AcDbArc
 50
53.3280166619
 51
61.3993172617
  0
ARC
  5
1EB
330
1F
100
AcDbEntity
  8
0
  6
Continuous
 62
     7
370
    15
100
AcDbCircle
 10
78.9351801015
 20
12.2095411444
 30
0.0
 40
34.00000000000625
100
AcDbArc
 50
271.0712709736
 51
279.1425715734
  0
ARC
  5
1EC
330
1F
100
AcDbEntity
  8
0
  6
Continuous
 62
     7
370
    15
100
AcDbCircle
 10
0.0000000002
 20
-0.0000000001
 30
0.0
 40
82.49899999978462
100
AcDbArc
 50
343.5462771385
 51
344.6890169792
  0
ARC
  5
1ED
330
1F
100
AcDbEntity
  8
0
  6
Continuous
 62
     7
370
    15
100
AcDbCircle
 10
60.6845475818
 20
-51.9347786884
 30
0.0
 40
33.99999999999899
100
AcDbArc
 50
49.0927225443
 51
57.164023144
  0
ARC
  5
1EE
330
1F
100
AcDbEntity
  8
0
  6
Continuous
 62
     7
370
    15
100
AcDbCircle
 10
79.6213272837
 20
6.3466364473
 30
0.0
 40
34.00000000000406
100
AcDbArc
 50
266.835976856
 51
274.9072774557
  0
ARC
  5
1EF
330
1F
100
AcDbEntity
  8
0
  6
Continuous
 62
     7
370
    15
100
AcDbCircle
 10
0.0000000002
 20
-0.0000000001
 30
0.0
 40
82.4989999998346
100
AcDbArc
 50
339.3109830208
 51
340.4537228615
  0
ARC
  5
1F0
330
1F
100
AcDbEntity
  8
0
  6
Continuous
 62
     7
370
    15
100
AcDbCircle
 10
56.6833139342
 20
-56.2746610301
 30
0.0
 40
34.00000000000459
100
AcDbArc
 50
44.8574284266
 51
52.9287290264
  0
ARC
  5
1F1
330
1F
100
AcDbEntity
  8
0
  6
Continuous
 62
     7
370
    15
100
AcDbCircle
 10
79.8726103867
 20
0.4490686228
 30
0.0
 40
34.00000000000239
100
AcDbArc
 50
262.6006827383
 51
270.6719833381
  0
ARC
  5
1F2
330
1F
100
AcDbEntity
  8
0
  6
Continuous
 62
     7
370
    15
100
AcDbCircle
 10
0.0000000002
 20
-0.0000000001
 30
0.0
 40
82.49899999977326
100
AcDbArc
 50
335.0756889032
 51
336.2184287439
  0
ARC
  5
1F3
330
1F
100
AcDbEntity
  8
0
  6
Continuous
 62
     7
370
    15
100
AcDbCircle
 10
52.3724956821
 20
-60.3071906877
 30
0.0
 40
34.00000000000046
100
AcDbArc
 50
40.622134309
 51
48.6934349087
  0
ARC
  5
1F4
330
1F
100
AcDbEntity
  8
0
  6
Continuous
 62
     7
370
    15
100
AcDbCircle
 10
79.6876569894
 20
-5.4509518588
 30
0.0
 40
34.00000000000125
100
AcDbArc
 50
258.3653886207
 51
266.4366892204
  0
ARC
  5
1F5
330
1F
100
AcDbEntity
  8
0
  6
Continuous
 62
     7
370
    15
100
AcDbCircle
 10
0.0
 20
0.0
 30
0.0
 40
82.49900000001081
100
AcDbArc
 50
330.8403947856
 51
331.9831346262
  0
ARC
  5
1F6
330
1F
100
AcDbEntity
  8
0
  6
Continuous
 62
     7
370
    15
100
AcDbCircle
 10
47.7756370198
 20
-64.0103433827
 30
0.0
 40
33.99999999999977
100
AcDbArc
 50
36.3868401913
 51
44.4581407911
  0
ARC
  5
1F7
330
1F
100
AcDbEntity
  8
0
  6
Continuous
 62
     7
370
    15
100
AcDbCircle
 10
79.0674772429
 20
-11.3212011316
 30
0.0
 40
34.00000000000647
100
AcDbArc
 50
254.130094503
 51
262.2013951028
  0
ARC
  5
1F8
330
1F
100
AcDbEntity
  8
0
  6
Continuous
 62
     7
370
    15
100
AcDbCircle
 10
0.0
 20
0.0
 30
0.0
 40
82.49899999994287
100
AcDbArc
 50
326.6051006679
 51
327.7478405086
  0
ARC
  5
1F9
330
1F
100
AcDbEntity
  8
0
  6
Continuous
 62
     7
370
    15
100
AcDbCircle
 10
42.9178443954
 20
-67.363893779
 30
0.0
 40
34.00000000000149
100
AcDbArc
 50
32.1515460737
 51
40.2228466734
  0
ARC
  5
1FA
330
1F
100
AcDbEntity
  8
0
  6
Continuous
 62
     7
370
    15
100
AcDbCircle
 10
78.0154583541
 20
-17.1296179297
 30
0.0
 40
34.00000000000583
100
AcDbArc
 50
249.8948003854
 51
257.9661009851
  0
ARC
  5
1FB
330
1F
100
AcDbEntity
  8
0
  6
Continuous
 62
     7
370
    15
100
AcDbCircle
 10
0.0000000004
 20
-0.0000000003
 30
0.0
 40
82.49899999953873
100
AcDbArc
 50
322.3698065503
 51
323.5125463909
  0
ARC
  5
1FC
330
1F
100
AcDbEntity
  8
0
  6
Continuous
 62
     7
370
    15
100
AcDbCircle
 10
37.8256493876
 20
-70.3495259474
 30
0.0
 40
33.99999999999461
100
AcDbArc
 50
27.916251956
 51
35.9875525558
  0
ARC
  5
1FD
330
1F
100
AcDbEntity
  8
0
  6
Continuous
 62
     7
370
    15
100
AcDbCircle
 10
76.5373460853
 20
-22.8444786947
 30
0.0
 40
34.00000000000063
100
AcDbArc
 50
245.6595062677
 51
253.7308068675
  0
ARC
  5
1FE
330
1F
100
AcDbEntity
  8
0
  6
Continuous
 62
     7
370
    15
100
AcDbCircle
 10
0.0000000001
 20
-0.0000000001
 30
0.0
 40
82.49899999985865
100
AcDbArc
 50
318.1345124326
 51
319.2772522733
  0
ARC
  5
1FF
330
1F
100
AcDbEntity
  8
0
  6
Continuous
 62
     7
370
    15
100
AcDbCircle
 10
32.5268637996
 20
-72.9509334003
 30
0.0
 40
34.000000000004
100
AcDbArc
 50
23.6809578384
 51
31.7522584381
  0
ARC
  5
200
330
1F
100
AcDbEntity
  8
0
  6
Continuous
 62
     7
370
    15
100
AcDbCircle
 10
74.6412133732
 20
-28.4345708389
 30
0.0
 40
34.00000000000215
100
AcDbArc
 50
241.4242121501
 51
249.4955127498
  0
ARC
  5
201
330
1F
100
AcDbEntity
  8
0
  6
Continuous
 62
     7
370
    15
100
AcDbCircle
 10
0.0000000002
 20
-0.0000000002
 30
0.0
 40
82.4989999996782
100
AcDbArc
 50
313.899218315
 51
315.0419581556
  0
ARC
  5
202
330
1F
100
AcDbEntity
  8
0
  6
Continuous
 62
     7
370
    15
100
AcDbCircle
 10
27.050427761
 20
-75.1539081523
 30
0.0
 40
34.0000000000001
100
AcDbArc
 50
19.4456637208
 51
27.5169643205
  0
ARC
  5
203
330
1F
100
AcDbEntity
  8
0
  6
Continuous
 62
     7
370
    15
100
AcDbCircle
 10
72.3374162371
 20
-33.8693632175
 30
0.0
 40
34.00000000000381
100
AcDbArc
 50
237.1889180324
 51
245.2602186322
  0
ARC
  5
204
330
1F
100
AcDbEntity
  8
0
  6
Continuous
 62
     7
370
    15
100
AcDbCircle
 10
0.0000000001
 20
-0.0000000001
 30
0.0
 40
82.49899999981339
100
AcDbArc
 50
309.6639241973
 51
310.806664038
  0
ARC
  5
205
330
1F
100
AcDbEntity
  8
0
  6
Continuous
 62
     7
370
    15
100
AcDbCircle
 10
21.4262516663
 20
-76.9464183192
 30
0.0
 40
34.00000000000102
100
AcDbArc
 50
15.2103696031
 51
23.2816702028
  0
ARC
  5
206
330
1F
100
AcDbEntity
  8
0
  6
Continuous
 62
     7
370
    15
100
AcDbCircle
 10
69.638537218
 20
-39.1191728792
 30
0.0
 40
33.99999999999969
100
AcDbArc
 50
232.9536239148
 51
241.0249245145
  0
ARC
  5
207
330
1F
100
AcDbEntity
  8
0
  6
Continuous
 62
     7
370
    15
100
AcDbCircle
 10
0.0000000002
 20
-0.0000000002
 30
0.0
 40
82.49899999973272
100
AcDbArc
 50
305.4286300797
 51
306.5713699203
  0
ARC
  5
208
330
1F
100
AcDbEntity
  8
0
  6
Continuous
 62
     7
370
    15
100
AcDbCircle
 10
15.685052815
 20
-78.318673832
 30
0.0
 40
33.99999999999876
100
AcDbArc
 50
10.9750754855
 51
19.0463760852
  0
ARC
  5
209
330
1F
100
AcDbEntity
  8
0
  6
Continuous
 62
     7
370
    15
100
AcDbCircle
 10
66.5593166574
 20
-44.155327184
 30
0.0
 40
34.00000000000249
100
AcDbArc
 50
228.7183297972
 51
236.7896303969
  0
ARC
  5
20A
330
1F
100
AcDbEntity
  8
0
  6
Continuous
 62
     7
370
    15
100
AcDbCircle
 10
0.0000000002
 20
-0.0000000003
 30
0.0
 40
82.49899999969732
100
AcDbArc
 50
301.193335962
 51
302.3360758027
  0
ARC
  5
20B
330
1F
100
AcDbEntity
  8
0
  6
Continuous
 62
     7
370
    15
100
AcDbCircle
 10
9.8581876444
 20
-79.2631799071
 30
0.0
 40
33.99999999999736
100
AcDbArc
 50
6.7397813678
 51
14.8110819676
  0
ARC
  5
20C
330
1F
100
AcDbEntity
  8
0
  6
Continuous
 62
     7
370
    15
100
AcDbCircle
 10
63.11657219
 20
-48.9503204035
 30
0.0
 40
34.00000000000167
100
AcDbArc
 50
224.4830356795
 51
232.5543362792
  0
ARC
  5
20D
330
1F
100
AcDbEntity
  8
0
  6
Continuous
 62
     7
370
    15
100
AcDbCircle
 10
0.0000000001
 20
-0.0000000003
 30
0.0
 40
82.4989999996809
100
AcDbArc
 50
296.9580418444
 51
298.100781685
  0
ARC
  5
20E
330
1F
100
AcDbEntity
  8
0
  6
Continuous
 62
     7
370
    15
100
AcDbCircle
 10
3.9774804714
 20
-79.7747779798
 30
0.0
 40
34.00000000000349
100
AcDbArc
 50
2.5044872502
 51
10.5757878499
  0
ARC
  5
20F
330
1F
100
AcDbEntity
  8
0
  6
Continuous
 62
     7
370
    15
100
AcDbCircle
 10
59.3291068924
 20
-53.4779639475
 30
0.0
 40
34.00000000000087
100
AcDbArc
 50
220.2477415619
 51
228.3190421616
  0
ARC
  5
210
330
1F
100
AcDbEntity
  8
0
  6
Continuous
 62
     7
370
    15
100
AcDbCircle
 10
0.0000000001
 20
-0.0000000002
 30
0.0
 40
82.4989999997493
100
AcDbArc
 50
292.7227477267
 51
293.8654875674
  0
ARC
  5
211
330
1F
100
AcDbEntity
  8
0
  6
Continuous
 62
     7
370
    15
100
AcDbCircle
 10
-1.9249503207
 20
-79.8506738787
 30
0.0
 40
34.00000000000189
100
AcDbArc
 50
358.2691931325
 51
6.3404937323
  0
ARC
  5
212
330
1F
100
AcDbEntity
  8
0
  6
Continuous
 62
     7
370
    15
100
AcDbCircle
 10
55.2176065865
 20
-57.7135293971
 30
0.0
 40
34.00000000000123
100
AcDbArc
 50
216.0124474442
 51
224.0837480439
  0
ARC
  5
213
330
1F
100
AcDbEntity
  8
0
  6
Continuous
 62
     7
370
    15
100
AcDbCircle
 10
0.0000000001
 20
-0.0000000004
 30
0.0
 40
82.49899999962368
100
AcDbArc
 50
288.4874536091
 51
289.6301934497
  0
ARC
  5
214
330
1F
100
AcDbEntity
  8
0
  6
Continuous
 62
     7
370
    15
100
AcDbCircle
 10
-7.8168677017
 20
-79.4904530869
 30
0.0
 40
34.00000000000189
100
AcDbArc
 50
354.0338990149
 51
2.1051996146
  0
ARC
  5
215
330
1F
100
AcDbEntity
  8
0
  6
Continuous
 62
     7
370
    15
100
AcDbCircle
 10
50.8045268614
 20
-61.6338835626
 30
0.0
 40
34.0000000000007
100
AcDbArc
 50
211.7771533266
 51
219.8484539263
  0
ARC
  5
216
330
1F
100
AcDbEntity
  8
0
  6
Continuous
 62
     7
370
    15
100
AcDbCircle
 10
0.0000000001
 20
-0.0000000003
 30
0.0
 40
82.49899999973711
100
AcDbArc
 50
284.2521594914
 51
285.3948993321
  0
ARC
  5
217
330
1F
100
AcDbEntity
  8
0
  6
Continuous
 62
     7
370
    15
100
AcDbCircle
 10
-13.6660920619
 20
-78.6960830053
 30
0.0
 40
34.0000000000005
100
AcDbArc
 50
349.7986048972
 51
357.869905497
  0
ARC
  5
218
330
1F
100
AcDbEntity
  8
0
  6
Continuous
 62
     7
370
    15
100
AcDbCircle
 10
46.1139704282
 20
-65.2176148289
 30
0.0
 40
34.00000000000288
100
AcDbArc
 50
207.5418592089
 51
215.6131598087
  0
ARC
  5
219
330
1F
100
AcDbEntity
  8
0
  6
Continuous
 62
     7
370
    15
100
AcDbCircle
 10
0.0000000001
 20
-0.0000000003
 30
0.0
 40
82.49899999968855
100
AcDbArc
 50
280.0168653738
 51
281.1596052145
  0
ARC
  5
21A
330
1F
100
AcDbEntity
  8
0
  6
Continuous
 62
     7
370
    15
100
AcDbCircle
 10
-19.4406769663
 20
-77.4719022079
 30
0.0
 40
34.00000000000139
100
AcDbArc
 50
345.5633107796
 51
353.6346113793
  0
ARC
  5
21B
330
1F
100
AcDbEntity
  8
0
  6
Continuous
 62
     7
370
    15
100
AcDbCircle
 10
41.1715554794
 20
-68.4451500986
 30
0.0
 40
34.00000000000407
100
AcDbArc
 50
203.3065650913
 51
211.377865691
  0
ARC
  5
21C
330
1F
100
AcDbEntity
  8
0
  6
Continuous
 62
     7
370
    15
100
AcDbCircle
 10
0.0000000001
 20
-0.0000000005
 30
0.0
 40
82.49899999947785
100
AcDbArc
 50
275.7815712561
 51
276.9243110968
  0
ARC
  5
21D
330
1F
100
AcDbEntity
  8
0
  6
Continuous
 62
     7
370
    15
100
AcDbCircle
 10
-25.1090836346
 20
-75.8245967457
 30
0.0
 40
33.99999999999916
100
AcDbArc
 50
341.3280166619
 51
349.3993172617
  0
ARC
  5
21E
330
1F
100
AcDbEntity
  8
0
  6
Continuous
 62
     7
370
    15
100
AcDbCircle
 10
36.0042757718
 20
-71.2988616933
 30
0.0
 40
34.00000000000149
100
AcDbArc
 50
199.0712709736
 51
207.1425715734
  0
ARC
  5
21F
330
1F
100
AcDbEntity
  8
0
  6
Continuous
 62
     7
370
    15
100
AcDbCircle
 10
0.0
 20
-0.0000000004
 30
0.0
 40
82.49899999964622
100
AcDbArc
 50
271.5462771385
 51
272.6890169792
  0
ARC
  5
220
330
1F
100
AcDbEntity
  8
0
  6
Continuous
 62
     7
370
    15
100
AcDbCircle
 10
-30.6403531952
 20
-73.7631636299
 30
0.0
 40
34.0000000000019
100
AcDbArc
 50
337.0927225443
 51
345.164023144
  0
ARC
  5
221
330
1F
100
AcDbEntity
  8
0
  6
Continuous
 62
     7
370
    15
100
AcDbCircle
 10
30.6403531952
 20
-73.7631636299
 30
0.0
 40
34.00000000000567
100
AcDbArc
 50
194.835976856
 51
202.9072774557
  0
ARC
  5
222
330
1F
100
AcDbEntity
  8
0
  6
Continuous
 62
     7
370
    15
100
AcDbCircle
 10
0.0
 20
-0.0000000004
 30
0.0
 40
82.49899999964654
100
AcDbArc
 50
267.3109830208
 51
268.4537228615
  0
ARC
  5
223
330
1F
100
AcDbEntity
  8
0
  6
Continuous
 62
     7
370
    15
100
AcDbCircle
 10
-36.0042757718
 20
-71.2988616933
 30
0.0
 40
34.00000000000245
100
AcDbArc
 50
332.8574284266
 51
340.9287290264
  0
ARC
  5
224
330
1F
100
AcDbEntity
  8
0
  6
Continuous
 62
     7
370
    15
100
AcDbCircle
 10
25.1090836346
 20
-75.8245967457
 30
0.0
 40
34.00000000000443
100
AcDbArc
 50
190.6006827383
 51
198.6719833381
  0
ARC
  5
225
330
1F
100
AcDbEntity
  8
0
  6
Continuous
 62
     7
370
    15
100
AcDbCircle
 10
0.0
 20
-0.0000000003
 30
0.0
 40
82.49899999970013
100
AcDbArc
 50
263.0756889032
 51
264.2184287439
  0
ARC
  5
226
330
1F
100
AcDbEntity
  8
0
  6
Continuous
 62
     7
370
    15
100
AcDbCircle
 10
-41.1715554794
 20
-68.4451500986
 30
0.0
 40
33.99999999999405
100
AcDbArc
 50
328.622134309
 51
336.6934349087
  0
ARC
  5
227
330
1F
100
AcDbEntity
  8
0
  6
Continuous
 62
     7
370
    15
100
AcDbCircle
 10
19.4406769663
 20
-77.4719022079
 30
0.0
 40
34.00000000000244
100
AcDbArc
 50
186.3653886207
 51
194.4366892204
  0
ARC
  5
228
330
1F
100
AcDbEntity
  8
0
  6
Continuous
 62
     7
370
    15
100
AcDbCircle
 10
0.0
 20
-0.0000000001
 30
0.0
 40
82.49899999985708
100
AcDbArc
 50
258.8403947856
 51
259.9831346262
  0
ARC
  5
229
330
1F
100
AcDbEntity
  8
0
  6
Continuous
 62
     7
370
    15
100
AcDbCircle
 10
-46.1139704282
 20
-65.2176148289
 30
0.0
 40
34.00000000000144
100
AcDbArc
 50
324.3868401913
 51
332.4581407911
  0
ARC
  5
22A
330
1F
100
AcDbEntity
  8
0
  6
Continuous
 62
     7
370
    15
100
AcDbCircle
 10
13.6660920619
 20
-78.6960830053
 30
0.0
 40
34.00000000000455
100
AcDbArc
 50
182.130094503
 51
190.2013951028
  0
ARC
  5
22B
330
1F
100
AcDbEntity
  8
0
  6
Continuous
 62
     7
370
    15
100
AcDbCircle
 10
-0.0000000001
 20
-0.0000000002
 30
0.0
 40
82.49899999977262
100
AcDbArc
 50
254.6051006679
 51
255.7478405086
  0
ARC
  5
22C
330
1F
100
AcDbEntity
  8
0
  6
Continuous
 62
     7
370
    15
100
AcDbCircle
 10
-50.8045268614
 20
-61.6338835626
 30
0.0
 40
34.00000000000394
100
AcDbArc
 50
320.1515460737
 51
328.2228466734
  0
ARC
  5
22D
330
1F
100
AcDbEntity
  8
0
  6
Continuous
 62
     7
370
    15
100
AcDbCircle
 10
7.8168677017
 20
-79.4904530869
 30
0.0
 40
34.00000000000171
100
AcDbArc
 50
177.8948003854
 51
185.9661009851
  0
ARC
  5
22E
330
1F
100
AcDbEntity
  8
0
  6
Continuous
 62
     7
370
    15
100
AcDbCircle
 10
-0.0000000001
 20
-0.0000000002
 30
0.0
 40
82.4989999998285
100
AcDbArc
 50
250.3698065503
 51
251.5125463909
  0
ARC
  5
22F
330
1F
100
AcDbEntity
  8
0
  6
Continuous
 62
     7
370
    15
100
AcDbCircle
 10
-55.2176065866
 20
-57.7135293971
 30
0.0
 40
34.00000000000535
100
AcDbArc
 50
315.9162519561
 51
323.9875525558
  0
ARC
  5
230
330
1F
100
AcDbEntity
  8
0
  6
Continuous
 62
     7
370
    15
100
AcDbCircle
 10
1.9249503207
 20
-79.8506738787
 30
0.0
 40
34.00000000000052
100
AcDbArc
 50
173.6595062677
 51
181.7308068675
  0
ARC
  5
231
330
1F
100
AcDbEntity
  8
0
  6
Continuous
 62
     7
370
    15
100
AcDbCircle
 10
-0.0000000002
 20
-0.0000000004
 30
0.0
 40
82.49899999955306
100
AcDbArc
 50
246.1345124326
 51
247.2772522733
  0
ARC
  5
232
330
1F
100
AcDbEntity
  8
0
  6
Continuous
 62
     7
370
    15
100
AcDbCircle
 10
-59.3291068924
 20
-53.4779639475
 30
0.0
 40
33.99999999999852
100
AcDbArc
 50
311.6809578384
 51
319.7522584381
  0
ARC
  5
233
330
1F
100
AcDbEntity
  8
0
  6
Continuous
 62
     7
370
    15
100
AcDbCircle
 10
-3.9774804713
 20
-79.7747779798
 30
0.0
 40
34.00000000000479
100
AcDbArc
 50
169.4242121501
 51
177.4955127498
  0
ARC
  5
234
330
1F
100
AcDbEntity
  8
0
  6
Continuous
 62
     7
370
    15
100
AcDbCircle
 10
-0.0000000001
 20
-0.0000000002
 30
0.0
 40
82.4989999997247
100
AcDbArc
 50
241.899218315
 51
243.0419581556
  0
ARC
  5
235
330
1F
100
AcDbEntity
  8
0
  6
Continuous
 62
     7
370
    15
100
AcDbCircle
 10
-63.11657219
 20
-48.9503204035
 30
0.0
 40
34.00000000000031
100
AcDbArc
 50
307.4456637208
 51
315.5169643205
  0
ARC
  5
236
330
1F
100
AcDbEntity
  8
0
  6
Continuous
 62
     7
370
    15
100
AcDbCircle
 10
-9.8581876444
 20
-79.2631799071
 30
0.0
 40
34.00000000000348
100
AcDbArc
 50
165.1889180324
 51
173.2602186322
  0
ARC
  5
237
330
1F
100
AcDbEntity
  8
0
  6
Continuous
 62
     7
370
    15
100
AcDbCircle
 10
-0.0000000001
 20
-0.0000000002
 30
0.0
 40
82.49899999975798
100
AcDbArc
 50
237.6639241973
 51
238.806664038
  0
ARC
  5
238
330
1F
100
AcDbEntity
  8
0
  6
Continuous
 62
     7
370
    15
100
AcDbCircle
 10
-66.5593166574
 20
-44.155327184
 30
0.0
 40
33.99999999999102
100
AcDbArc
 50
303.2103696031
 51
311.2816702029
  0
ARC
  5
239
330
1F
100
AcDbEntity
  8
0
  6
Continuous
 62
     7
370
    15
100
AcDbCircle
 10
-15.685052815
 20
-78.318673832
 30
0.0
 40
34.00000000000583
100
AcDbArc
 50
160.9536239148
 51
169.0249245145
  0
ARC
  5
23A
330
1F
100
AcDbEntity
  8
0
  6
Continuous
 62
     7
370
    15
100
AcDbCircle
 10
-0.0000000001
 20
-0.0000000001
 30
0.0
 40
82.49899999990454
100
AcDbArc
 50
233.4286300797
 51
234.5713699203
  0
ARC
  5
23B
330
1F
100
AcDbEntity
  8
0
  6
Continuous
 62
     7
370
    15
100
AcDbCircle
 10
-69.638537218
 20
-39.1191728792
 30
0.0
 40
34.00000000000011
100
AcDbArc
 50
298.9750754855
 51
307.0463760852
  0
ARC
  5
23C
330
1F
100
AcDbEntity
  8
0
  6
Continuous
 62
     7
370
    15
100
AcDbCircle
 10
-21.4262516663
 20
-76.9464183192
 30
0.0
 40
34.0000000000026
100
AcDbArc
 50
156.7183297972
 51
164.7896303969
  0
ARC
  5
23D
330
1F
100
AcDbEntity
  8
0
  6
Continuous
 62
     7
370
    15
100
AcDbCircle
 10
-0.0000000001
 20
-0.0000000001
 30
0.0
 40
82.49899999990615
100
AcDbArc
 50
229.193335962
 51
230.3360758027
  0
ARC
  5
23E
330
1F
100
AcDbEntity
  8
0
  6
Continuous
 62
     7
370
    15
100
AcDbCircle
 10
-72.3374162371
 20
-33.8693632175
 30
0.0
 40
34.00000000000455
100
AcDbArc
 50
294.7397813678
 51
302.8110819676
  0
ARC
  5
23F
330
1F
100
AcDbEntity
  8
0
  6
Continuous
 62
     7
370
    15
100
AcDbCircle
 10
-27.050427761
 20
-75.1539081523
 30
0.0
 40
34.00000000000501
100
AcDbArc
 50
152.4830356795
 51
160.5543362792
  0
ARC
  5
240
330
1F
100
AcDbEntity
  8
0
  6
Continuous
 62
     7
370
    15
100
AcDbCircle
 10
-0.0000000002
 20
-0.0000000002
 30
0.0
 40
82.4989999997575
100
AcDbArc
 50
224.9580418444
 51
226.100781685
  0
ARC
  5
241
330
1F
100
AcDbEntity
  8
0
  6
Continuous
 62
     7
370
    15
100
AcDbCircle
 10
-74.6412133732
 20
-28.434570839
 30
0.0
 40
34.00000000000061
100
AcDbArc
 50
290.5044872502
 51
298.5757878499
  0
ARC
  5
242
330
1F
100
AcDbEntity
  8
0
  6
Continuous
 62
     7
370
    15
100
AcDbCircle
 10
-32.5268637997
 20
-72.9509334003
 30
0.0
 40
34.00000000000269
100
AcDbArc
 50
148.2477415619
 51
156.3190421616
  0
ARC
  5
243
330
1F
100
AcDbEntity
  8
0
  6
Continuous
 62
     7
370
    15
100
AcDbCircle
 10
-0.0000000002
 20
-0.0000000002
 30
0.0
 40
82.4989999997024
100
AcDbArc
 50
220.7227477267
 51
221.8654875674
  0
ARC
  5
244
330
1F
100
AcDbEntity
  8
0
  6
Continuous
 62
     7
370
    15
100
AcDbCircle
 10
-76.5373460853
 20
-22.8444786947
 30
0.0
 40
33.99999999999909
100
AcDbArc
 50
286.2691931325
 51
294.3404937323
  0
ARC
  5
245
330
1F
100
AcDbEntity
  8
0
  6
Continuous
 62
     7
370
    15
100
AcDbCircle
 10
-37.8256493876
 20
-70.3495259474
 30
0.0
 40
33.99999999999932
100
AcDbArc
 50
144.0124474442
 51
152.0837480439
  0
ARC
  5
246
330
1F
100
AcDbEntity
  8
0
  6
Continuous
 62
     7
370
    15
100
AcDbCircle
 10
-0.0000000001
 20
-0.0000000001
 30
0.0
 40
82.49899999985774
100
AcDbArc
 50
216.4874536091
 51
217.6301934497
  0
ARC
  5
247
330
1F
100
AcDbEntity
  8
0
  6
Continuous
 62
     7
370
    15
100
AcDbCircle
 10
-78.0154583541
 20
-17.1296179297
 30
0.0
 40
34.00000000000163
100
AcDbArc
 50
282.0338990149
 51
290.1051996146
  0
ARC
  5
248
330
1F
100
AcDbEntity
  8
0
  6
Continuous
 62
     7
370
    15
100
AcDbCircle
 10
-42.9178443954
 20
-67.363893779
 30
0.0
 40
34.0000000000048
100
AcDbArc
 50
139.7771533266
 51
147.8484539263
  0
ARC
  5
249
330
1F
100
AcDbEntity
  8
0
  6
Continuous
 62
     7
370
    15
100
AcDbCircle
 10
0.0
 20
0.0
 30
0.0
 40
82.49899999999774
100
AcDbArc
 50
212.2521594914
 51
213.3948993321
  0
ARC
  5
24A
330
1F
100
AcDbEntity
  8
0
  6
Continuous
 62
     7
370
    15
100
AcDbCircle
 10
-79.0674772429
 20
-11.3212011316
 30
0.0
 40
33.9999999999961
100
AcDbArc
 50
277.7986048972
 51
285.869905497
  0
ARC
  5
24B
330
1F
100
AcDbEntity
  8
0
  6
Continuous
 62
     7
370
    15
100
AcDbCircle
 10
-47.7756370198
 20
-64.0103433827
 30
0.0
 40
34.00000000000168
100
AcDbArc
 50
135.5418592089
 51
143.6131598087
  0
ARC
  5
24C
330
1F
100
AcDbEntity
  8
0
  6
Continuous
 62
     7
370
    15
100
AcDbCircle
 10
-0.0000000002
 20
-0.0000000001
 30
0.0
 40
82.49899999977514
100
AcDbArc
 50
208.0168653738
 51
209.1596052145
  0
ARC
  5
24D
330
1F
100
AcDbEntity
  8
0
  6
Continuous
 62
     7
370
    15
100
AcDbCircle
 10
-79.6876569894
 20
-5.4509518588
 30
0.0
 40
33.99999999999967
100
AcDbArc
 50
273.5633107796
 51
281.6346113793
  0
ARC
  5
24E
330
1F
100
AcDbEntity
  8
0
  6
Continuous
 62
     7
370
    15
100
AcDbCircle
 10
-52.3724956821
 20
-60.3071906877
 30
0.0
 40
34.00000000000323
100
AcDbArc
 50
131.3065650913
 51
139.377865691
  0
ARC
  5
24F
330
1F
100
AcDbEntity
  8
0
  6
Continuous
 62
     7
370
    15
100
AcDbCircle
 10
-0.0000000003
 20
-0.0000000002
 30
0.0
 40
82.498999999635
100
AcDbArc
 50
203.7815712561
 51
204.9243110968
  0
ARC
  5
250
330
1F
100
AcDbEntity
  8
0
  6
Continuous
 62
     7
370
    15
100
AcDbCircle
 10
-79.8726103867
 20
0.4490686228
 30
0.0
 40
33.99999999999527
100
AcDbArc
 50
269.3280166619
 51
277.3993172617
  0
ARC
  5
251
330
1F
100
AcDbEntity
  8
0
  6
Continuous
 62
     7
370
    15
100
AcDbCircle
 10
-56.6833139342
 20
-56.2746610301
 30
0.0
 40
34.00000000000664
100
AcDbArc
 50
127.0712709736
 51
135.1425715734
  0
ARC
  5
252
330
1F
100
AcDbEntity
  8
0
  6
Continuous
 62
     7
370
    15
100
AcDbCircle
 10
-0.0000000002
 20
-0.0000000001
 30
0.0
 40
82.4989999997971
100
AcDbArc
 50
199.5462771385
 51
200.6890169792
  0
ARC
  5
253
330
1F
100
AcDbEntity
  8
0
  6
Continuous
 62
     7
370
    15
100
AcDbCircle
 10
-79.6213272837
 20
6.3466364473
 30
0.0
 40
34.00000000000129
100
AcDbArc
 50
265.0927225443
 51
273.164023144
  0
ARC
  5
254
330
1F
100
AcDbEntity
  8
0
  6
Continuous
 62
     7
370
    15
100
AcDbCircle
 10
-60.6845475818
 20
-51.9347786884
 30
0.0
 40
34.00000000000286
100
AcDbArc
 50
122.835976856
 51
130.9072774557
  0
ARC
  5
255
330
1F
100
AcDbEntity
  8
0
  6
Continuous
 62
     7
370
    15
100
AcDbCircle
 10
-0.0000000002
 20
-0.0000000001
 30
0.0
 40
82.4989999997567
100
AcDbArc
 50
195.3109830208
 51
196.4537228615
  0
ARC
  5
256
330
1F
100
AcDbEntity
  8
0
  6
Continuous
 62
     7
370
    15
100
AcDbCircle
 10
-78.9351801015
 20
12.2095411444
 30
0.0
 40
33.99999999999642
100
AcDbArc
 50
260.8574284266
 51
268.9287290264
  0
ARC
  5
257
330
1F
100
AcDbEntity
  8
0
  6
Continuous
 62
     7
370
    15
100
AcDbCircle
 10
-64.3543432742
 20
-47.3112465949
 30
0.0
 40
34.00000000000195
100
AcDbArc
 50
118.6006827383
 51
126.6719833381
  0
ARC
  5
258
330
1F
100
AcDbEntity
  8
0
  6
Continuous
 62
     7
370
    15
100
AcDbCircle
 10
-0.0000000003
 20
-0.0000000001
 30
0.0
 40
82.49899999968515
100
AcDbArc
 50
191.0756889032
 51
192.2184287439
  0
ARC
  5
259
330
1F
100
AcDbEntity
  8
0
  6
Continuous
 62
     7
370
    15
100
AcDbCircle
 10
-77.8179163381
 20
18.0057615617
 30
0.0
 40
33.99999999999483
100
AcDbArc
 50
256.622134309
 51
264.6934349087
  0
ARC
  5
25A
330
1F
100
AcDbEntity
  8
0
  6
Continuous
 62
     7
370
    15
100
AcDbCircle
 10
-67.6726578599
 20
-42.4293168788
 30
0.0
 40
34.00000000000314
100
AcDbArc
 50
114.3653886207
 51
122.4366892204
  0
ARC
  5
25B
330
1F
100
AcDbEntity
  8
0
  6
Continuous
 62
     7
370
    15
100
AcDbCircle
 10
-0.0000000002
 20
0.0
 30
0.0
 40
82.49899999975267
100
AcDbArc
 50
186.8403947856
 51
187.9831346262
  0
ARC
  5
25C
330
1F
100
AcDbEntity
  8
0
  6
Continuous
 62
     7
370
    15
100
AcDbCircle
 10
-76.2756381007
 20
23.7036407532
 30
0.0
 40
34.00000000000113
100
AcDbArc
 50
252.3868401913
 51
260.4581407911
  0
ARC
  5
25D
330
1F
100
AcDbEntity
  8
0
  6
Continuous
 62
     7
370
    15
100
AcDbCircle
 10
-70.6213678553
 20
-37.3156529471
 30
0.0
 40
34.00000000000352
100
AcDbArc
 50
110.130094503
 51
118.2013951028
  0
ARC
  5
25E
330
1F
100
AcDbEntity
  8
0
  6
Continuous
 62
     7
370
    15
100
AcDbCircle
 10
-0.0000000003
 20
0.0
 30
0.0
 40
82.4989999996638
100
AcDbArc
 50
182.6051006679
 51
183.7478405086
  0
ARC
  5
25F
330
1F
100
AcDbEntity
  8
0
  6
Continuous
 62
     7
370
    15
100
AcDbCircle
 10
-74.3167687781
 20
29.2720588787
 30
0.0
 40
34.00000000000023
100
AcDbArc
 50
248.1515460737
 51
256.2228466734
  0
ARC
  5
260
330
1F
100
AcDbEntity
  8
0
  6
Continuous
 62
     7
370
    15
100
AcDbCircle
 10
-73.1843684289
 20
-31.9981838591
 30
0.0
 40
34.00000000000287
100
AcDbArc
 50
105.8948003854
 51
113.9661009851
  0
ARC
  5
261
330
1F
100
AcDbEntity
  8
0
  6
Continuous
 62
     7
370
    15
100
AcDbCircle
 10
-0.0000000002
 20
0.0
 30
0.0
 40
82.49899999984076
100
AcDbArc
 50
178.3698065503
 51
179.5125463909
  0
ARC
  5
262
330
1F
100
AcDbEntity
  8
0
  6
Continuous
 62
     7
370
    15
100
AcDbCircle
 10
-71.9520070355
 20
34.6806031693
 30
0.0
 40
34.00000000000216
100
AcDbArc
 50
243.9162519561
 51
251.9875525558
  0
ARC
  5
263
330
1F
100
AcDbEntity
  8
0
  6
Continuous
 62
     7
370
    15
100
AcDbCircle
 10
-75.3476613605
 20
-26.5059517869
 30
0.0
 40
34.00000000000498
100
AcDbArc
 50
101.6595062677
 51
109.7308068675
  0
ARC
  5
264
330
1F
100
AcDbEntity
  8
0
  6
Continuous
 62
     7
370
    15
100
AcDbCircle
 10
0.0
 20
0.0
 30
0.0
 40
82.49899999995405
100
AcDbArc
 50
174.1345124326
 51
175.2772522733
  0
ARC
  5
265
330
1F
100
AcDbEntity
  8
0
  6
Continuous
 62
     7
370
    15
100
AcDbCircle
 10
-69.1942683813
 20
39.8997340316
 30
0.0
 40
33.99999999999775
100
AcDbArc
 50
239.6809578384
 51
247.7522584381
  0
ARC
  5
266
330
1F
100
AcDbEntity
  8
0
  6
Continuous
 62
     7
370
    15
100
AcDbCircle
 10
-77.0994314941
 20
-20.8689533975
 30
0.0
 40
34.00000000000335
100
AcDbArc
 50
97.4242121501
 51
105.4955127498
  0
ARC
  5
267
330
1F
100
AcDbEntity
  8
0
  6
Continuous
 62
     7
370
    15
100
AcDbCircle
 10
-0.0000000006
 20
0.0000000001
 30
0.0
 40
82.4989999994063
100
AcDbArc
 50
169.899218315
 51
171.0419581556
  0
ARC
  5
268
330
1F
100
AcDbEntity
  8
0
  6
Continuous
 62
     7
370
    15
100
AcDbCircle
 10
-66.0586146279
 20
44.9009463828
 30
0.0
 40
34.00000000000136
100
AcDbArc
 50
235.4456637208
 51
243.5169643205
  0
ARC
  5
269
330
1F
100
AcDbEntity
  8
0
  6
Continuous
 62
     7
370
    15
100
AcDbCircle
 10
-78.4301112688
 20
-15.1179760215
 30
0.0
 40
34.0000000000017
100
AcDbArc
 50
93.1889180324
 51
101.2602186322
  0
ARC
  5
26A
330
1F
100
AcDbEntity
  8
0
  6
Continuous
 62
     7
370
    15
100
AcDbCircle
 10
-0.0000000003
 20
0.0000000001
 30
0.0
 40
82.49899999966746
100
AcDbArc
 50
165.6639241973
 51
166.806664038
  0
ARC
  5
26B
330
1F
100
AcDbEntity
  8
0
  6
Continuous
 62
     7
370
    15
100
AcDbCircle
 10
-62.5621716286
 20
49.6569253351
 30
0.0
 40
33.99999999999706
100
AcDbArc
 50
231.2103696031
 51
239.2816702029
  0
ARC
  5
26C
330
1F
100
AcDbEntity
  8
0
  6
Continuous
 62
     7
370
    15
100
AcDbCircle
 10
-79.3324329731
 20
-9.2844295028
 30
0.0
 40
34.00000000000523
100
AcDbArc
 50
88.9536239148
 51
97.0249245145
  0
ARC
  5
26D
330
1F
100
AcDbEntity
  8
0
  6
Continuous
 62
     7
370
    15
100
AcDbCircle
 10
-0.0000000002
 20
0.0000000001
 30
0.0
 40
82.49899999974151
100
AcDbArc
 50
161.4286300797
 51
162.5713699203
  0
ARC
  5
26E
330
1F
100
AcDbEntity
  8
0
  6
Continuous
 62
     7
370
    15
100
AcDbCircle
 10
-58.7240357426
 20
54.1416953809
 30
0.0
 40
33.9999999999979
100
AcDbArc
 50
226.9750754855
 51
235.0463760852
  0
ARC
  5
26F
330
1F
100
AcDbEntity
  8
0
  6
Continuous
 62
     7
370
    15
100
AcDbCircle
 10
-79.8014684387
 20
-3.4001746499
 30
0.0
 40
34.00000000000298
100
AcDbArc
 50
84.7183297972
 51
92.7896303969
  0
ARC
  5
270
330
1F
100
AcDbEntity
  8
0
  6
Continuous
 62
     7
370
    15
100
AcDbCircle
 10
-0.0000000003
 20
0.0000000001
 30
0.0
 40
82.49899999963743
100
AcDbArc
 50
157.193335962
 51
158.3360758027
  0
ARC
  5
271
330
1F
100
AcDbEntity
  8
0
  6
Continuous
 62
     7
370
    15
100
AcDbCircle
 10
-54.5651695372
 20
58.3307622614
 30
0.0
 40
33.99999999999915
100
AcDbArc
 50
222.7397813678
 51
230.8110819676
  0
ARC
  5
272
330
1F
100
AcDbEntity
  8
0
  6
Continuous
 62
     7
370
    15
100
AcDbCircle
 10
-79.8346559566
 20
2.502650778
 30
0.0
 40
34.00000000000406
100
AcDbArc
 50
80.4830356795
 51
88.5543362792
  0
ARC
  5
273
330
1F
100
AcDbEntity
  8
0
  6
Continuous
 62
     7
370
    15
100
AcDbCircle
 10
-0.0000000002
 20
0.0000000001
 30
0.0
 40
82.4989999997672
100
AcDbArc
 50
152.9580418444
 51
154.100781685
  0
ARC
  5
274
330
1F
100
AcDbEntity
  8
0
  6
Continuous
 62
     7
370
    15
100
AcDbCircle
 10
-50.1082872975
 20
62.2012467458
 30
0.0
 40
33.99999999999792
100
AcDbArc
 50
218.5044872502
 51
226.5757878499
  0
ARC
  5
275
330
1F
100
AcDbEntity
  8
0
  6
Continuous
 62
     7
370
    15
100
AcDbCircle
 10
-79.431814268
 20
8.3918075951
 30
0.0
 40
34.0000000000046
100
AcDbArc
 50
76.2477415619
 51
84.3190421616
  0
ARC
  5
276
330
1F
100
AcDbEntity
  8
0
  6
Continuous
 62
     7
370
    15
100
AcDbCircle
 10
-0.0000000001
 20
0.0000000001
 30
0.0
 40
82.49899999983185
100
AcDbArc
 50
148.7227477267
 51
149.8654875674
  0
ARC
  5
277
330
1F
100
AcDbEntity
  8
0
  6
Continuous
 62
     7
370
    15
100
AcDbCircle
 10
-45.3777309687
 20
65.7320095901
 30
0.0
 40
34.00000000000143
100
AcDbArc
 50
214.2691931325
 51
222.3404937323
  0
ARC
  5
278
330
1F
100
AcDbEntity
  8
0
  6
Continuous
 62
     7
370
    15
100
AcDbCircle
 10
-78.5951435546
 20
14.2351312692
 30
0.0
 40
34.00000000000461
100
AcDbArc
 50
72.0124474442
 51
80.0837480439
  0
ARC
  5
279
330
1F
100
AcDbEntity
  8
0
  6
Continuous
 62
     7
370
    15
100
AcDbCircle
 10
-0.0000000001
 20
0.0000000001
 30
0.0
 40
82.4989999999079
100
AcDbArc
 50
144.4874536091
 51
145.6301934497
  0
ARC
  5
27A
330
1F
100
AcDbEntity
  8
0
  6
Continuous
 62
     7
370
    15
100
AcDbCircle
 10
-40.3993372091
 20
68.903766992
 30
0.0
 40
33.99999999999693
100
AcDbArc
 50
210.0338990149
 51
218.1051996146
  0
ARC
  5
27B
330
1F
100
AcDbEntity
  8
0
  6
Continuous
 62
     7
370
    15
100
AcDbCircle
 10
-77.3292134217
 20
20.0007075926
 30
0.0
 40
33.99999999999883
100
AcDbArc
 50
67.7771533266
 51
75.8484539263
  0
ARC
  5
27C
330
1F
100
AcDbEntity
  8
0
  6
Continuous
 62
     7
370
    15
100
AcDbCircle
 10
-0.0000000002
 20
0.0000000002
 30
0.0
 40
82.49899999969736
100
AcDbArc
 50
140.2521594914
 51
141.3948993321
  0
ARC
  5
27D
330
1F
100
AcDbEntity
  8
0
  6
Continuous
 62
     7
370
    15
100
AcDbCircle
 10
-35.2002962789
 20
71.6991959125
 30
0.0
 40
34.0000000000036
100
AcDbArc
 50
205.7986048972
 51
213.869905497
  0
ARC
  5
27E
330
1F
100
AcDbEntity
  8
0
  6
Continuous
 62
     7
370
    15
100
AcDbCircle
 10
-75.6409379406
 20
25.6570469868
 30
0.0
 40
34.00000000000777
100
AcDbArc
 50
63.5418592089
 51
71.6131598087
  0
ARC
  5
27F
330
1F
100
AcDbEntity
  8
0
  6
Continuous
 62
     7
370
    15
100
AcDbCircle
 10
-0.0000000001
 20
0.0
 30
0.0
 40
82.49899999992867
100
AcDbArc
 50
136.0168653738
 51
137.1596052144
  0
ARC
  5
280
330
1F
100
AcDbEntity
  8
0
  6
Continuous
 62
     7
370
    15
100
AcDbCircle
 10
-29.809003537
 20
74.1030286881
 30
0.0
 40
34.00000000000011
100
AcDbArc
 50
201.5633107796
 51
209.6346113793
  0
ARC
  5
281
330
1F
100
AcDbEntity
  8
0
  6
Continuous
 62
     7
370
    15
100
AcDbCircle
 10
-73.5395378866
 20
31.1732564876
 30
0.0
 40
34.00000000000543
100
AcDbArc
 50
59.3065650913
 51
67.377865691
  0
ARC
  5
282
330
1F
100
AcDbEntity
  8
0
  6
Continuous
 62
     7
370
    15
100
AcDbCircle
 10
-0.0000000002
 20
0.0000000002
 30
0.0
 40
82.49899999967262
100
AcDbArc
 50
131.7815712561
 51
132.9243110968
  0
ARC
  5
283
330
1F
100
AcDbEntity
  8
0
  6
Continuous
 62
     7
370
    15
100
AcDbCircle
 10
-24.2549043546
 20
76.1021364179
 30
0.0
 40
34.00000000000127
100
AcDbArc
 50
197.3280166619
 51
205.3993172617
  0
ARC
  5
284
330
1F
100
AcDbEntity
  8
0
  6
Continuous
 62
     7
370
    15
100
AcDbCircle
 10
-71.0364903781
 20
36.5192084714
 30
0.0
 40
34.0000000000045
100
AcDbArc
 50
55.0712709736
 51
63.1425715734
  0
ARC
  5
285
330
1F
100
AcDbEntity
  8
0
  6
Continuous
 62
     7
370
    15
100
AcDbCircle
 10
-0.0000000002
 20
0.0000000003
 30
0.0
 40
82.4989999996509
100
AcDbArc
 50
127.5462771385
 51
128.6890169792
  0
ARC
  5
286
330
1F
100
AcDbEntity
  8
0
  6
Continuous
 62
     7
370
    15
100
AcDbCircle
 10
-18.5683332956
 20
77.6856006686
 30
0.0
 40
33.9999999999986
100
AcDbArc
 50
193.0927225443
 51
201.164023144
  0
ARC
  5
287
330
1F
100
AcDbEntity
  8
0
  6
Continuous
 62
     7
370
    15
100
AcDbCircle
 10
-68.1454661926
 20
41.6657052023
 30
0.0
 40
34.0000000000005
100
AcDbArc
 50
50.835976856
 51
58.9072774557
  0
ARC
  5
288
330
1F
100
AcDbEntity
  8
0
  6
Continuous
 62
     7
370
    15
100
AcDbCircle
 10
0.0
 20
0.0000000001
 30
0.0
 40
82.49899999993615
100
AcDbArc
 50
123.3109830208
 51
124.4537228615
  0
ARC
  5
289
330
1F
100
AcDbEntity
  8
0
  6
Continuous
 62
     7
370
    15
100
AcDbCircle
 10
-12.780348439
 20
78.8447731076
 30
0.0
 40
33.99999999999832
100
AcDbArc
 50
188.8574284266
 51
196.9287290264
  0
ARC
  5
28A
330
1F
100
AcDbEntity
  8
0
  6
Continuous
 62
     7
370
    15
100
AcDbCircle
 10
-64.8822551017
 20
46.5846382999
 30
0.0
 40
34.00000000000383
100
AcDbArc
 50
46.6006827383
 51
54.6719833381
  0
ARC
  5
28B
330
1F
100
AcDbEntity
  8
0
  6
Continuous
 62
     7
370
    15
100
AcDbCircle
 10
-0.0000000002
 20
0.0000000003
 30
0.0
 40
82.49899999969671
100
AcDbArc
 50
119.0756889032
 51
120.2184287439
  0
ARC
  5
28C
330
1F
100
AcDbEntity
  8
0
  6
Continuous
 62
     7
370
    15
100
AcDbCircle
 10
-6.9225617512
 20
79.5733227371
 30
0.0
 40
34.00000000000174
100
AcDbArc
 50
184.622134309
 51
192.6934349087
  0
ARC
  5
28D
330
1F
100
AcDbEntity
  8
0
  6
Continuous
 62
     7
370
    15
100
AcDbCircle
 10
-61.2646796327
 20
51.2491422574
 30
0.0
 40
34.00000000000426
100
AcDbArc
 50
42.3653886207
 51
50.4366892204
  0
ARC
  5
28E
330
1F
100
AcDbEntity
  8
0
  6
Continuous
 62
     7
370
    15
100
AcDbCircle
 10
0.0
 20
0.0
 30
0.0
 40
82.49899999995698
100
AcDbArc
 50
114.8403947856
 51
115.9831346262
  0
ARC
  5
28F
330
1F
100
AcDbEntity
  8
0
  6
Continuous
 62
     7
370
    15
100
AcDbCircle
 10
-1.0269664316
 20
79.8672704715
 30
0.0
 40
34.0000000000032
100
AcDbArc
 50
180.3868401913
 51
188.4581407911
  0
ARC
  5
290
330
1F
100
AcDbEntity
  8
0
  6
Continuous
 62
     7
370
    15
100
AcDbCircle
 10
-57.3124977285
 20
55.6337411716
 30
0.0
 40
34.00000000000342
100
AcDbArc
 50
38.130094503
 51
46.2013951028
  0
ARC
  5
291
330
1F
100
AcDbEntity
  8
0
  6
Continuous
 62
     7
370
    15
100
AcDbCircle
 10
-0.0000000001
 20
0.0000000002
 30
0.0
 40
82.49899999975057
100
AcDbArc
 50
110.6051006679
 51
111.7478405086
  0
ARC
  5
292
330
1F
100
AcDbEntity
  8
0
  6
Continuous
 62
     7
370
    15
100
AcDbCircle
 10
4.8742378225
 20
79.7250108703
 30
0.0
 40
34.00000000000422
100
AcDbArc
 50
176.1515460737
 51
184.2228466734
  0
ARC
  5
293
330
1F
100
AcDbEntity
  8
0
  6
Continuous
 62
     7
370
    15
100
AcDbCircle
 10
-53.0472948359
 20
59.7144878837
 30
0.0
 40
34.0000000000047
100
AcDbArc
 50
33.8948003854
 51
41.9661009851
  0
ARC
  5
294
330
1F
100
AcDbEntity
  8
0
  6
Continuous
 62
     7
370
    15
100
AcDbCircle
 10
0.0
 20
0.0000000001
 30
0.0
 40
82.49899999987572
100
AcDbArc
 50
106.3698065503
 51
107.5125463909
  0
ARC
  5
295
330
1F
100
AcDbEntity
  8
0
  6
Continuous
 62
     7
370
    15
100
AcDbCircle
 10
10.7488206798
 20
79.1473209061
 30
0.0
 40
33.9999999999958
100
AcDbArc
 50
171.916251956
 51
179.9875525558
  0
ARC
  5
296
330
1F
100
AcDbEntity
  8
0
  6
Continuous
 62
     7
370
    15
100
AcDbCircle
 10
-48.4923660143
 20
63.4690947702
 30
0.0
 40
34.00000000000502
100
AcDbArc
 50
29.6595062677
 51
37.7308068675
  0
ARC
  5
297
330
1F
100
AcDbEntity
  8
0
  6
Continuous
 62
     7
370
    15
100
AcDbCircle
 10
-0.0000000001
 20
0.0000000005
 30
0.0
 40
82.49899999951732
100
AcDbArc
 50
102.1345124326
 51
103.2772522733
  0
ARC
  5
298
330
1F
100
AcDbEntity
  8
0
  6
Continuous
 62
     7
370
    15
100
AcDbCircle
 10
16.564697206
 20
78.1373557211
 30
0.0
 40
34.00000000000074
100
AcDbArc
 50
167.6809578384
 51
175.7522584381
  0
ARC
  5
299
330
1F
100
AcDbEntity
  8
0
  6
Continuous
 62
     7
370
    15
100
AcDbCircle
 10
-43.6725887053
 20
66.8770554705
 30
0.0
 40
34.00000000000302
100
AcDbArc
 50
25.4242121501
 51
33.4955127498
  0
ARC
  5
29A
330
1F
100
AcDbEntity
  8
0
  6
Continuous
 62
     7
370
    15
100
AcDbCircle
 10
0.0
 20
0.0000000001
 30
0.0
 40
82.49899999990018
100
AcDbArc
 50
97.899218315
 51
99.0419581556
  0
ARC
  5
29B
330
1F
100
AcDbEntity
  8
0
  6
Continuous
 62
     7
370
    15
100
AcDbCircle
 10
22.2901031003
 20
76.700631395
 30
0.0
 40
34.00000000000131
100
AcDbArc
 50
163.4456637208
 51
171.5169643205
  0
ARC
  5
29C
330
1F
100
AcDbEntity
  8
0
  6
Continuous
 62
     7
370
    15
100
AcDbCircle
 10
-38.6142868612
 20
69.9197568848
 30
0.0
 40
34.00000000000191
100
AcDbArc
 50
21.1889180324
 51
29.2602186322
  0
ARC
  5
29D
330
1F
100
AcDbEntity
  8
0
  6
Continuous
 62
     7
370
    15
100
AcDbCircle
 10
0.0
 20
0.0
 30
0.0
 40
82.49899999995338
100
AcDbArc
 50
93.6639241973
 51
94.806664038
  0
ARC
  5
29E
330
1F
100
AcDbEntity
  8
0
  6
Continuous
 62
     7
370
    15
100
AcDbCircle
 10
27.8937681809
 20
74.8449948179
 30
0.0
 40
34.00000000000473
100
AcDbArc
 50
159.2103696031
 51
167.2816702028
  0
ARC
  5
29F
330
1F
100
AcDbEntity
  8
0
  6
Continuous
 62
     7
370
    15
100
AcDbCircle
 10
0.0
 20
0.0
 30
0.0
 40
3.999999999999997
100
AcDbArc
 50
271.4325437376
 51
268.5674562624
  0
ARC
  5
2A0
330
1F
100
AcDbEntity
  8
0
  6
Continuous
 62
     7
370
    15
100
AcDbCircle
 10
0.0
 20
-0.0000000002
 30
0.0
 40
87.0000000002192
100
AcDbArc
 50
87.4356587316
 51
88.3290471507
  0
ARC
  5
2A1
330
1F
100
AcDbEntity
  8
0
  6
Continuous
 62
     7
370
    15
100
AcDbCircle
 10
0.0
 20
0.0
 30
0.0
 40
86.99999999996592
100
AcDbArc
 50
83.200364614
 51
84.0937530331
  0
ARC
  5
2A2
330
1F
100
AcDbEntity
  8
0
  6
Continuous
 62
     7
370
    15
100
AcDbCircle
 10
0.0000000001
 20
0.0000000004
 30
0.0
 40
86.99999999963693
100
AcDbArc
 50
78.9650704963
 51
79.8584589154
  0
ARC
  5
2A3
330
1F
100
AcDbEntity
  8
0
  6
Continuous
 62
     7
370
    15
100
AcDbCircle
 10
0.0000000002
 20
0.0000000006
 30
0.0
 40
86.99999999937617
100
AcDbArc
 50
74.7297763787
 51
75.6231647978
  0
ARC
  5
2A4
330
1F
100
AcDbEntity
  8
0
  6
Continuous
 62
     7
370
    15
100
AcDbCircle
 10
0.0
 20
0.0
 30
0.0
 40
86.99999999999393
100
AcDbArc
 50
70.494482261
 51
71.3878706801
  0
ARC
  5
2A5
330
1F
100
AcDbEntity
  8
0
  6
Continuous
 62
     7
370
    15
100
AcDbCircle
 10
0.0000000002
 20
0.0000000005
 30
0.0
 40
86.99999999947225
100
AcDbArc
 50
66.2591881434
 51
67.1525765625
  0
ARC
  5
2A6
330
1F
100
AcDbEntity
  8
0
  6
Continuous
 62
     7
370
    15
100
AcDbCircle
 10
0.0000000002
 20
0.0000000004
 30
0.0
 40
86.99999999953495
100
AcDbArc
 50
62.0238940257
 51
62.9172824449
  0
ARC
  5
2A7
330
1F
100
AcDbEntity
  8
0
  6
Continuous
 62
     7
370
    15
100
AcDbCircle
 10
0.0000000001
 20
0.0000000001
 30
0.0
 40
86.99999999990067
100
AcDbArc
 50
57.7885999081
 51
58.6819883272
  0
ARC
  5
2A8
330
1F
100
AcDbEntity
  8
0
  6
Continuous
 62
     7
370
    15
100
AcDbCircle
 10
-0.0000000001
 20
-0.0000000001
 30
0.0
 40
87.00000000015332
100
AcDbArc
 50
53.5533057904
 51
54.4466942096
  0
ARC
  5
2A9
330
1F
100
AcDbEntity
  8
0
  6
Continuous
 62
     7
370
    15
100
AcDbCircle
 10
0.0
 20
0.0
 30
0.0
 40
86.9999999999687
100
AcDbArc
 50
49.3180116728
 51
50.2114000919
  0
ARC
  5
2AA
330
1F
100
AcDbEntity
  8
0
  6
Continuous
 62
     7
370
    15
100
AcDbCircle
 10
0.0000000001
 20
0.0000000001
 30
0.0
 40
86.99999999986126
100
AcDbArc
 50
45.0827175551
 51
45.9761059743
  0
ARC
  5
2AB
330
1F
100
AcDbEntity
  8
0
  6
Continuous
 62
     7
370
    15
100
AcDbCircle
 10
0.0000000003
 20
0.0000000003
 30
0.0
 40
86.99999999958605
100
AcDbArc
 50
40.8474234375
 51
41.7408118566
  0
ARC
  5
2AC
330
1F
100
AcDbEntity
  8
0
  6
Continuous
 62
     7
370
    15
100
AcDbCircle
 10
0.0000000003
 20
0.0000000002
 30
0.0
 40
86.99999999960471
100
AcDbArc
 50
36.6121293199
 51
37.505517739
  0
ARC
  5
2AD
330
1F
100
AcDbEntity
  8
0
  6
Continuous
 62
     7
370
    15
100
AcDbCircle
 10
0.0000000002
 20
0.0000000001
 30
0.0
 40
86.99999999976696
100
AcDbArc
 50
32.3768352022
 51
33.2702236213
  0
ARC
  5
2AE
330
1F
100
AcDbEntity
  8
0
  6
Continuous
 62
     7
370
    15
100
AcDbCircle
 10
0.0000000002
 20
0.0000000001
 30
0.0
 40
86.99999999980952
100
AcDbArc
 50
28.1415410846
 51
29.0349295037
  0
ARC
  5
2AF
330
1F
100
AcDbEntity
  8
0
  6
Continuous
 62
     7
370
    15
100
AcDbCircle
 10
0.0000000005
 20
0.0000000002
 30
0.0
 40
86.99999999944582
100
AcDbArc
 50
23.9062469669
 51
24.799635386
  0
ARC
  5
2B0
330
1F
100
AcDbEntity
  8
0
  6
Continuous
 62
     7
370
    15
100
AcDbCircle
 10
0.0000000006
 20
0.0000000002
 30
0.0
 40
86.99999999938048
100
AcDbArc
 50
19.6709528493
 51
20.5643412684
  0
ARC
  5
2B1
330
1F
100
AcDbEntity
  8
0
  6
Continuous
 62
     7
370
    15
100
AcDbCircle
 10
0.0000000004
 20
0.0000000001
 30
0.0
 40
86.99999999958386
100
AcDbArc
 50
15.4356587316
 51
16.3290471507
  0
ARC
  5
2B2
330
1F
100
AcDbEntity
  8
0
  6
Continuous
 62
     7
370
    15
100
AcDbCircle
 10
0.0000000004
 20
0.0000000001
 30
0.0
 40
86.99999999959434
100
AcDbArc
 50
11.200364614
 51
12.0937530331
  0
ARC
  5
2B3
330
1F
100
AcDbEntity
  8
0
  6
Continuous
 62
     7
370
    15
100
AcDbCircle
 10
0.0
 20
0.0
 30
0.0
 40
86.9999999999859
100
AcDbArc
 50
6.9650704963
 51
7.8584589154
  0
ARC
  5
2B4
330
1F
100
AcDbEntity
  8
0
  6
Continuous
 62
     7
370
    15
100
AcDbCircle
 10
0.0000000001
 20
0.0
 30
0.0
 40
86.99999999993861
100
AcDbArc
 50
2.7297763787
 51
3.6231647978
  0
ARC
  5
2B5
330
1F
100
AcDbEntity
  8
0
  6
Continuous
 62
     7
370
    15
100
AcDbCircle
 10
0.0000000004
 20
0.0
 30
0.0
 40
86.99999999961176
100
AcDbArc
 50
358.494482261
 51
359.3878706802
  0
ARC
  5
2B6
330
1F
100
AcDbEntity
  8
0
  6
Continuous
 62
     7
370
    15
100
AcDbCircle
 10
0.0000000005
 20
0.0
 30
0.0
 40
86.99999999953383
100
AcDbArc
 50
354.2591881434
 51
355.1525765625
  0
ARC
  5
2B7
330
1F
100
AcDbEntity
  8
0
  6
Continuous
 62
     7
370
    15
100
AcDbCircle
 10
0.0000000007
 20
-0.0000000001
 30
0.0
 40
86.99999999931156
100
AcDbArc
 50
350.0238940257
 51
350.9172824449
  0
ARC
  5
2B8
330
1F
100
AcDbEntity
  8
0
  6
Continuous
 62
     7
370
    15
100
AcDbCircle
 10
-0.0000000003
 20
0.0000000001
 30
0.0
 40
87.00000000031619
100
AcDbArc
 50
345.7885999081
 51
346.6819883272
  0
ARC
  5
2B9
330
1F
100
AcDbEntity
  8
0
  6
Continuous
 62
     7
370
    15
100
AcDbCircle
 10
0.0000000002
 20
-0.0000000001
 30
0.0
 40
86.99999999981665
100
AcDbArc
 50
341.5533057904
 51
342.4466942096
  0
ARC
  5
2BA
330
1F
100
AcDbEntity
  8
0
  6
Continuous
 62
     7
370
    15
100
AcDbCircle
 10
0.0000000002
 20
-0.0000000001
 30
0.0
 40
86.99999999977452
100
AcDbArc
 50
337.3180116728
 51
338.2114000919
  0
ARC
  5
2BB
330
1F
100
AcDbEntity
  8
0
  6
Continuous
 62
     7
370
    15
100
AcDbCircle
 10
0.0
 20
0.0
 30
0.0
 40
86.99999999996525
100
AcDbArc
 50
333.0827175551
 51
333.9761059743
  0
ARC
  5
2BC
330
1F
100
AcDbEntity
  8
0
  6
Continuous
 62
     7
370
    15
100
AcDbCircle
 10
0.0000000002
 20
-0.0000000001
 30
0.0
 40
86.99999999973681
100
AcDbArc
 50
328.8474234375
 51
329.7408118566
  0
ARC
  5
2BD
330
1F
100
AcDbEntity
  8
0
  6
Continuous
 62
     7
370
    15
100
AcDbCircle
 10
0.0000000004
 20
-0.0000000003
 30
0.0
 40
86.99999999953367
100
AcDbArc
 50
324.6121293199
 51
325.505517739
  0
ARC
  5
2BE
330
1F
100
AcDbEntity
  8
0
  6
Continuous
 62
     7
370
    15
100
AcDbCircle
 10
0.0000000003
 20
-0.0000000003
 30
0.0
 40
86.99999999957411
100
AcDbArc
 50
320.3768352022
 51
321.2702236213
  0
ARC
  5
2BF
330
1F
100
AcDbEntity
  8
0
  6
Continuous
 62
     7
370
    15
100
AcDbCircle
 10
0.0000000002
 20
-0.0000000001
 30
0.0
 40
86.99999999978562
100
AcDbArc
 50
316.1415410846
 51
317.0349295037
  0
ARC
  5
2C0
330
1F
100
AcDbEntity
  8
0
  6
Continuous
 62
     7
370
    15
100
AcDbCircle
 10
0.0000000002
 20
-0.0000000002
 30
0.0
 40
86.99999999974877
100
AcDbArc
 50
311.9062469669
 51
312.799635386
  0
ARC
  5
2C1
330
1F
100
AcDbEntity
  8
0
  6
Continuous
 62
     7
370
    15
100
AcDbCircle
 10
0.0000000005
 20
-0.0000000006
 30
0.0
 40
86.99999999923257
100
AcDbArc
 50
307.6709528493
 51
308.5643412684
  0
ARC
  5
2C2
330
1F
100
AcDbEntity
  8
0
  6
Continuous
 62
     7
370
    15
100
AcDbCircle
 10
0.0
 20
0.0
 30
0.0
 40
86.99999999996957
100
AcDbArc
 50
303.4356587316
 51
304.3290471507
  0
ARC
  5
2C3
330
1F
100
AcDbEntity
  8
0
  6
Continuous
 62
     7
370
    15
100
AcDbCircle
 10
0.0000000002
 20
-0.0000000004
 30
0.0
 40
86.99999999953617
100
AcDbArc
 50
299.200364614
 51
300.0937530331
  0
ARC
  5
2C4
330
1F
100
AcDbEntity
  8
0
  6
Continuous
 62
     7
370
    15
100
AcDbCircle
 10
0.0
 20
0.0
 30
0.0
 40
87.00000000002672
100
AcDbArc
 50
294.9650704963
 51
295.8584589154
  0
ARC
  5
2C5
330
1F
100
AcDbEntity
  8
0
  6
Continuous
 62
     7
370
    15
100
AcDbCircle
 10
0.0000000001
 20
-0.0000000001
 30
0.0
 40
86.99999999984378
100
AcDbArc
 50
290.7297763787
 51
291.6231647978
  0
ARC
  5
2C6
330
1F
100
AcDbEntity
  8
0
  6
Continuous
 62
     7
370
    15
100
AcDbCircle
 10
-0.0000000001
 20
0.0000000002
 30
0.0
 40
87.00000000018119
100
AcDbArc
 50
286.494482261
 51
287.3878706801
  0
ARC
  5
2C7
330
1F
100
AcDbEntity
  8
0
  6
Continuous
 62
     7
370
    15
100
AcDbCircle
 10
0.0000000001
 20
-0.0000000005
 30
0.0
 40
86.99999999945328
100
AcDbArc
 50
282.2591881434
 51
283.1525765625
  0
ARC
  5
2C8
330
1F
100
AcDbEntity
  8
0
  6
Continuous
 62
     7
370
    15
100
AcDbCircle
 10
0.0
 20
0.0
 30
0.0
 40
86.99999999995767
100
AcDbArc
 50
278.0238940257
 51
278.9172824449
  0
ARC
  5
2C9
330
1F
100
AcDbEntity
  8
0
  6
Continuous
 62
     7
370
    15
100
AcDbCircle
 10
0.0
 20
-0.0000000004
 30
0.0
 40
86.99999999960812
100
AcDbArc
 50
273.7885999081
 51
274.6819883272
  0
ARC
  5
2CA
330
1F
100
AcDbEntity
  8
0
  6
Continuous
 62
     7
370
    15
100
AcDbCircle
 10
0.0
 20
-0.0000000002
 30
0.0
 40
86.99999999982063
100
AcDbArc
 50
265.3180116728
 51
266.2114000919
  0
ARC
  5
2CB
330
1F
100
AcDbEntity
  8
0
  6
Continuous
 62
     7
370
    15
100
AcDbCircle
 10
0.0
 20
-0.0000000002
 30
0.0
 40
86.99999999974852
100
AcDbArc
 50
261.0827175551
 51
261.9761059743
  0
ARC
  5
2CC
330
1F
100
AcDbEntity
  8
0
  6
Continuous
 62
     7
370
    15
100
AcDbCircle
 10
0.0
 20
0.0
 30
0.0
 40
87.00000000002089
100
AcDbArc
 50
256.8474234375
 51
257.7408118566
  0
ARC
  5
2CD
330
1F
100
AcDbEntity
  8
0
  6
Continuous
 62
     7
370
    15
100
AcDbCircle
 10
-0.0000000001
 20
-0.0000000002
 30
0.0
 40
86.99999999976605
100
AcDbArc
 50
252.6121293199
 51
253.505517739
  0
ARC
  5
2CE
330
1F
100
AcDbEntity
  8
0
  6
Continuous
 62
     7
370
    15
100
AcDbCircle
 10
-0.0000000001
 20
-0.0000000002
 30
0.0
 40
86.99999999981017
100
AcDbArc
 50
248.3768352022
 51
249.2702236213
  0
ARC
  5
2CF
330
1F
100
AcDbEntity
  8
0
  6
Continuous
 62
     7
370
    15
100
AcDbCircle
 10
-0.0000000002
 20
-0.0000000005
 30
0.0
 40
86.99999999947083
100
AcDbArc
 50
244.1415410846
 51
245.0349295037
  0
ARC
  5
2D0
330
1F
100
AcDbEntity
  8
0
  6
Continuous
 62
     7
370
    15
100
AcDbCircle
 10
-0.0000000003
 20
-0.0000000005
 30
0.0
 40
86.99999999938947
100
AcDbArc
 50
239.9062469669
 51
240.799635386
  0
ARC
  5
2D1
330
1F
100
AcDbEntity
  8
0
  6
Continuous
 62
     7
370
    15
100
AcDbCircle
 10
-0.0000000002
 20
-0.0000000002
 30
0.0
 40
86.99999999972802
100
AcDbArc
 50
235.6709528493
 51
236.5643412684
  0
ARC
  5
2D2
330
1F
100
AcDbEntity
  8
0
  6
Continuous
 62
     7
370
    15
100
AcDbCircle
 10
0.0
 20
0.0
 30
0.0
 40
86.99999999997439
100
AcDbArc
 50
231.4356587316
 51
232.3290471507
  0
ARC
  5
2D3
330
1F
100
AcDbEntity
  8
0
  6
Continuous
 62
     7
370
    15
100
AcDbCircle
 10
-0.0000000004
 20
-0.0000000004
 30
0.0
 40
86.99999999945116
100
AcDbArc
 50
227.200364614
 51
228.0937530331
  0
ARC
  5
2D4
330
1F
100
AcDbEntity
  8
0
  6
Continuous
 62
     7
370
    15
100
AcDbCircle
 10
-0.0000000004
 20
-0.0000000004
 30
0.0
 40
86.99999999947742
100
AcDbArc
 50
222.9650704963
 51
223.8584589154
  0
ARC
  5
2D5
330
1F
100
AcDbEntity
  8
0
  6
Continuous
 62
     7
370
    15
100
AcDbCircle
 10
-0.0000000003
 20
-0.0000000002
 30
0.0
 40
86.99999999964307
100
AcDbArc
 50
218.7297763787
 51
219.6231647978
  0
ARC
  5
2D6
330
1F
100
AcDbEntity
  8
0
  6
Continuous
 62
     7
370
    15
100
AcDbCircle
 10
-0.0000000005
 20
-0.0000000004
 30
0.0
 40
86.99999999936665
100
AcDbArc
 50
214.494482261
 51
215.3878706802
  0
ARC
  5
2D7
330
1F
100
AcDbEntity
  8
0
  6
Continuous
 62
     7
370
    15
100
AcDbCircle
 10
0.0
 20
0.0
 30
0.0
 40
86.99999999997308
100
AcDbArc
 50
210.2591881434
 51
211.1525765625
  0
ARC
  5
2D8
330
1F
100
AcDbEntity
  8
0
  6
Continuous
 62
     7
370
    15
100
AcDbCircle
 10
-0.0000000001
 20
-0.0000000001
 30
0.0
 40
86.99999999986241
100
AcDbArc
 50
206.0238940257
 51
206.9172824449
  0
ARC
  5
2D9
330
1F
100
AcDbEntity
  8
0
  6
Continuous
 62
     7
370
    15
100
AcDbCircle
 10
0.0
 20
0.0
 30
0.0
 40
87.00000000004609
100
AcDbArc
 50
201.7885999081
 51
202.6819883272
  0
ARC
  5
2DA
330
1F
100
AcDbEntity
  8
0
  6
Continuous
 62
     7
370
    15
100
AcDbCircle
 10
-0.0000000003
 20
-0.0000000001
 30
0.0
 40
86.9999999996597
100
AcDbArc
 50
197.5533057904
 51
198.4466942096
  0
ARC
  5
2DB
330
1F
100
AcDbEntity
  8
0
  6
Continuous
 62
     7
370
    15
100
AcDbCircle
 10
-0.0000000005
 20
-0.0000000001
 30
0.0
 40
86.99999999953475
100
AcDbArc
 50
193.3180116728
 51
194.2114000919
  0
ARC
  5
2DC
330
1F
100
AcDbEntity
  8
0
  6
Continuous
 62
     7
370
    15
100
AcDbCircle
 10
-0.0000000004
 20
-0.0000000001
 30
0.0
 40
86.99999999959269
100
AcDbArc
 50
189.0827175551
 51
189.9761059743
  0
ARC
  5
2DD
330
1F
100
AcDbEntity
  8
0
  6
Continuous
 62
     7
370
    15
100
AcDbCircle
 10
-0.0000000006
 20
-0.0000000001
 30
0.0
 40
86.9999999993883
100
AcDbArc
 50
184.8474234375
 51
185.7408118566
  0
ARC
  5
2DE
330
1F
100
AcDbEntity
  8
0
  6
Continuous
 62
     7
370
    15
100
AcDbCircle
 10
-0.0000000005
 20
0.0
 30
0.0
 40
86.99999999952927
100
AcDbArc
 50
180.6121293199
 51
181.505517739
  0
ARC
  5
2DF
330
1F
100
AcDbEntity
  8
0
  6
Continuous
 62
     7
370
    15
100
AcDbCircle
 10
-0.0000000001
 20
0.0
 30
0.0
 40
86.99999999993598
100
AcDbArc
 50
176.3768352022
 51
177.2702236213
  0
ARC
  5
2E0
330
1F
100
AcDbEntity
  8
0
  6
Continuous
 62
     7
370
    15
100
AcDbCircle
 10
-0.0000000007
 20
0.0000000001
 30
0.0
 40
86.99999999927836
100
AcDbArc
 50
172.1415410846
 51
173.0349295037
  0
ARC
  5
2E1
330
1F
100
AcDbEntity
  8
0
  6
Continuous
 62
     7
370
    15
100
AcDbCircle
 10
0.0
 20
0.0
 30
0.0
 40
86.9999999999532
100
AcDbArc
 50
167.9062469669
 51
168.799635386
  0
ARC
  5
2E2
330
1F
100
AcDbEntity
  8
0
  6
Continuous
 62
     7
370
    15
100
AcDbCircle
 10
-0.0000000003
 20
0.0000000001
 30
0.0
 40
86.99999999970083
100
AcDbArc
 50
163.6709528493
 51
164.5643412684
  0
ARC
  5
2E3
330
1F
100
AcDbEntity
  8
0
  6
Continuous
 62
     7
370
    15
100
AcDbCircle
 10
-0.0000000003
 20
0.0000000001
 30
0.0
 40
86.99999999972941
100
AcDbArc
 50
159.4356587316
 51
160.3290471507
  0
ARC
  5
2E4
330
1F
100
AcDbEntity
  8
0
  6
Continuous
 62
     7
370
    15
100
AcDbCircle
 10
-0.0000000002
 20
0.0000000001
 30
0.0
 40
86.99999999979138
100
AcDbArc
 50
155.200364614
 51
156.0937530331
  0
ARC
  5
2E5
330
1F
100
AcDbEntity
  8
0
  6
Continuous
 62
     7
370
    15
100
AcDbCircle
 10
-0.0000000003
 20
0.0000000002
 30
0.0
 40
86.99999999964184
100
AcDbArc
 50
150.9650704963
 51
151.8584589154
  0
ARC
  5
2E6
330
1F
100
AcDbEntity
  8
0
  6
Continuous
 62
     7
370
    15
100
AcDbCircle
 10
-0.0000000004
 20
0.0000000002
 30
0.0
 40
86.99999999954342
100
AcDbArc
 50
146.7297763787
 51
147.6231647978
  0
ARC
  5
2E7
330
1F
100
AcDbEntity
  8
0
  6
Continuous
 62
     7
370
    15
100
AcDbCircle
 10
-0.0000000002
 20
0.0000000001
 30
0.0
 40
86.99999999980506
100
AcDbArc
 50
142.494482261
 51
143.3878706801
  0
ARC
  5
2E8
330
1F
100
AcDbEntity
  8
0
  6
Continuous
 62
     7
370
    15
100
AcDbCircle
 10
0.0000000001
 20
-0.0000000001
 30
0.0
 40
87.00000000015764
100
AcDbArc
 50
138.2591881434
 51
139.1525765625
  0
ARC
  5
2E9
330
1F
100
AcDbEntity
  8
0
  6
Continuous
 62
     7
370
    15
100
AcDbCircle
 10
0.0
 20
0.0
 30
0.0
 40
87.00000000000418
100
AcDbArc
 50
134.0238940257
 51
134.9172824449
  0
ARC
  5
2EA
330
1F
100
AcDbEntity
  8
0
  6
Continuous
 62
     7
370
    15
100
AcDbCircle
 10
-0.0000000003
 20
0.0000000003
 30
0.0
 40
86.9999999995558
100
AcDbArc
 50
129.7885999081
 51
130.6819883272
  0
ARC
  5
2EB
330
1F
100
AcDbEntity
  8
0
  6
Continuous
 62
     7
370
    15
100
AcDbCircle
 10
-0.0000000001
 20
0.0000000001
 30
0.0
 40
86.99999999989986
100
AcDbArc
 50
125.5533057904
 51
126.4466942096
  0
ARC
  5
2EC
330
1F
100
AcDbEntity
  8
0
  6
Continuous
 62
     7
370
    15
100
AcDbCircle
 10
-0.0000000001
 20
0.0000000001
 30
0.0
 40
86.9999999998507
100
AcDbArc
 50
121.3180116728
 51
122.2114000919
  0
ARC
  5
2ED
330
1F
100
AcDbEntity
  8
0
  6
Continuous
 62
     7
370
    15
100
AcDbCircle
 10
0.0
 20
0.0000000001
 30
0.0
 40
86.99999999993375
100
AcDbArc
 50
117.0827175551
 51
117.9761059743
  0
ARC
  5
2EE
330
1F
100
AcDbEntity
  8
0
  6
Continuous
 62
     7
370
    15
100
AcDbCircle
 10
0.0
 20
-0.0000000001
 30
0.0
 40
87.00000000007664
100
AcDbArc
 50
112.8474234375
 51
113.7408118566
  0
ARC
  5
2EF
330
1F
100
AcDbEntity
  8
0
  6
Continuous
 62
     7
370
    15
100
AcDbCircle
 10
-0.0000000001
 20
0.0000000002
 30
0.0
 40
86.99999999977896
100
AcDbArc
 50
108.6121293199
 51
109.505517739
  0
ARC
  5
2F0
330
1F
100
AcDbEntity
  8
0
  6
Continuous
 62
     7
370
    15
100
AcDbCircle
 10
-0.0000000002
 20
0.0000000007
 30
0.0
 40
86.9999999992965
100
AcDbArc
 50
104.3768352022
 51
105.2702236213
  0
ARC
  5
2F1
330
1F
100
AcDbEntity
  8
0
  6
Continuous
 62
     7
370
    15
100
AcDbCircle
 10
0.0
 20
0.0000000002
 30
0.0
 40
86.999999999794
100
AcDbArc
 50
100.1415410846
 51
101.0349295037
  0
ARC
  5
2F2
330
1F
100
AcDbEntity
  8
0
  6
Continuous
 62
     7
370
    15
100
AcDbCircle
 10
0.0
 20
0.0
 30
0.0
 40
86.99999999997334
100
AcDbArc
 50
95.9062469669
 51
96.799635386
  0
ARC
  5
2F3
330
1F
100
AcDbEntity
  8
0
  6
Continuous
 62
     7
370
    15
100
AcDbCircle
 10
0.0
 20
0.0000000003
 30
0.0
 40
86.99999999970575
100
AcDbArc
 50
91.6709528493
 51
92.5643412684
  0
MTEXT
  5
2F5
330
1F
100
AcDbEntity
  8
0
  6
Continuous
 62
     7
100
AcDbMText
 10
-86.9950349203
 20
-88.0195089204
 30
0.0
 40
4.83362
 41
0.0
 71
     1
 72
     1
  1
SolidWorks Educational Edition.
  7
SLDTEXTSTYLE0
 73
     1
 44
1.0
  0
MTEXT
  5
2F6
330
1F
100
AcDbEntity
  8
0
  6
Continuous
 62
     7
100
AcDbMText
 10
-86.9950349203
 20
-95.2699389204
 30
0.0
 40
4.83362
 41
0.0
 71
     1
 72
     1
  1
Somente para uso educacional.
  7
SLDTEXTSTYLE0
 73
     1
 44
1.0
  0
ENDSEC
  0
SECTION
  2
OBJECTS
  0
DICTIONARY
  5
C
330
0
100
AcDbDictionary
281
     1
  3
ACAD_GROUP
350
D
  3
ACAD_LAYOUT
350
1A
  3
ACAD_MLINESTYLE
350
17
  3
ACAD_PLOTSETTINGS
350
19
  3
ACAD_PLOTSTYLENAME
350
E
  0
DICTIONARY
  5
D
102
{ACAD_REACTORS
330
C
102
}
330
C
100
AcDbDictionary
281
     1
  0
DICTIONARY
  5
1A
102
{ACAD_REACTORS
330
C
102
}
330
C
100
AcDbDictionary
281
     1
  3
Layout1
350
1E
  3
Layout2
350
26
  3
Model
350
22
  0
DICTIONARY
  5
17
102
{ACAD_REACTORS
330
C
102
}
330
C
100
AcDbDictionary
281
     1
  3
Standard
350
18
  0
DICTIONARY
  5
19
102
{ACAD_REACTORS
330
C
102
}
330
C
100
AcDbDictionary
281
     1
  0
ACDBDICTIONARYWDFLT
  5
E
102
{ACAD_REACTORS
330
C
102
}
330
C
100
AcDbDictionary
281
     1
  3
Normal
350
F
100
AcDbDictionaryWithDefault
340
F
  0
LAYOUT
  5
1E
102
{ACAD_REACTORS
330
1A
102
}
330
1A
100
AcDbPlotSettings
  1

  2
none_device
  4

  6

 40
0.0
 41
0.0
 42
0.0
 43
0.0
 44
0.0
 45
0.0
 46
0.0
 47
0.0
 48
0.0
 49
0.0
140
0.0
141
0.0
142
1.0
143
1.0
 70
   688
 72
     0
 73
     0
 74
     5
  7

 75
    16
147
1.0
148
0.0
149
0.0
100
AcDbLayout
  1
Layout1
 70
     1
 71
     1
 10
0.0
 20
0.0
 11
420.0
 21
297.0
 12
0.0
 22
0.0
 32
0.0
 14
1.0000000000E+20
 24
1.0000000000E+20
 34
1.0000000000E+20
 15
-1.0000000000E+20
 25
-1.0000000000E+20
 35
-1.0000000000E+20
146
0.0
 13
0.0
 23
0.0
 33
0.0
 16
1.0
 26
0.0
 36
0.0
 17
0.0
 27
1.0
 37
0.0
 76
     0
330
1B
  0
LAYOUT
  5
26
102
{ACAD_REACTORS
330
1A
102
}
330
1A
100
AcDbPlotSettings
  1

  2
none_device
  4

  6

 40
0.0
 41
0.0
 42
0.0
 43
0.0
 44
0.0
 45
0.0
 46
0.0
 47
0.0
 48
0.0
 49
0.0
140
0.0
141
0.0
142
1.0
143
1.0
 70
   688
 72
     0
 73
     0
 74
     5
  7

 75
    16
147
1.0
148
0.0
149
0.0
100
AcDbLayout
  1
Layout2
 70
     1
 71
     2
 10
0.0
 20
0.0
 11
0.0
 21
0.0
 12
0.0
 22
0.0
 32
0.0
 14
0.0
 24
0.0
 34
0.0
 15
0.0
 25
0.0
 35
0.0
146
0.0
 13
0.0
 23
0.0
 33
0.0
 16
1.0
 26
0.0
 36
0.0
 17
0.0
 27
1.0
 37
0.0
 76
     0
330
23
  0
LAYOUT
  5
22
102
{ACAD_REACTORS
330
1A
102
}
330
1A
100
AcDbPlotSettings
  1

  2
none_device
  4
ANSI_A_(11.00_x_8.50_Inches)
  6

 40
6.35
 41
19.05
 42
6.35000508
 43
19.05000254
 44
279.4
 45
215.9
 46
133.34999746
 47
88.9226904537
 48
0.0
 49
0.0
140
0.0
141
0.0
142
0.0483723696
143
1.0
 70
  1696
 72
     0
 73
     0
 74
     0
  7

 75
     0
147
0.0179189148
148
0.0
149
0.0
100
AcDbLayout
  1
Model
 70
     1
 71
     0
 10
0.0
 20
0.0
 11
420.0
 21
297.0
 12
0.0
 22
0.0
 32
0.0
 14
-86.9950349203
 24
-86.9999425287
 34
0.0
 15
86.9950349203
 25
86.9630051219
 35
0.0
146
0.0
 13
0.0
 23
0.0
 33
0.0
 16
1.0
 26
0.0
 36
0.0
 17
0.0
 27
1.0
 37
0.0
 76
     0
330
1F
331
29
  0
MLINESTYLE
  5
18
102
{ACAD_REACTORS
330
17
102
}
330
17
100
AcDbMlineStyle
  2
Standard
 70
     0
  3

 62
   256
 51
90.0
 52
90.0
 71
     2
 49
0.5
 62
   256
  6
BYLAYER
 49
-0.5
 62
   256
  6
BYLAYER
  0
ACDBPLACEHOLDER
  5
F
102
{ACAD_REACTORS
330
E
102
}
330
E
  0
ENDSEC
  0
EOF
